<svg viewBox="0 0 46 35" fill="none" xmlns="http://www.w3.org/2000/svg">
<path d="M18.4997 19.2495C18.4997 19.6945 18.3677 20.1295 18.1205 20.4995C17.8733 20.8695 17.5219 21.1579 17.1107 21.3282C16.6996 21.4985 16.2472 21.5431 15.8107 21.4562C15.3743 21.3694 14.9734 21.1551 14.6587 20.8405C14.344 20.5258 14.1297 20.1249 14.0429 19.6884C13.9561 19.252 14.0007 18.7996 14.171 18.3884C14.3413 17.9773 14.6297 17.6259 14.9997 17.3787C15.3697 17.1314 15.8047 16.9995 16.2497 16.9995C16.8464 16.9995 17.4187 17.2365 17.8407 17.6585C18.2626 18.0804 18.4997 18.6527 18.4997 19.2495ZM29.7497 16.9995C29.3047 16.9995 28.8697 17.1314 28.4997 17.3787C28.1297 17.6259 27.8413 17.9773 27.671 18.3884C27.5007 18.7996 27.4561 19.252 27.5429 19.6884C27.6297 20.1249 27.844 20.5258 28.1587 20.8405C28.4734 21.1551 28.8743 21.3694 29.3107 21.4562C29.7472 21.5431 30.1996 21.4985 30.6107 21.3282C31.0219 21.1579 31.3733 20.8695 31.6205 20.4995C31.8677 20.1295 31.9997 19.6945 31.9997 19.2495C31.9997 18.6527 31.7626 18.0804 31.3407 17.6585C30.9187 17.2365 30.3464 16.9995 29.7497 16.9995ZM43.7091 29.1682L31.1466 34.7388C30.7688 34.9068 30.3607 34.9957 29.9474 35.0001C29.534 35.0045 29.1241 34.9244 28.7429 34.7646C28.3616 34.6048 28.0171 34.3687 27.7304 34.0709C27.4438 33.773 27.221 33.4197 27.0759 33.0326L25.5553 28.9076C24.7153 28.9638 23.8634 28.9926 22.9997 28.9938C22.1359 28.9951 21.2841 28.9663 20.4441 28.9076L18.9234 33.0326C18.7781 33.4195 18.5553 33.7726 18.2686 34.0703C17.9819 34.368 17.6374 34.604 17.2562 34.7638C16.875 34.9236 16.4652 35.0038 16.0519 34.9995C15.6386 34.9952 15.2306 34.9065 14.8528 34.7388L2.29032 29.1682C1.64192 28.8847 1.11524 28.3802 0.804127 27.7446C0.493017 27.109 0.41769 26.3836 0.591569 25.6976L6.12469 3.87447C6.27072 3.30692 6.57908 2.79428 7.01201 2.39931C7.44495 2.00434 7.98366 1.74419 8.56219 1.65072L15.3234 0.538846C16.0688 0.418962 16.8321 0.580589 17.4649 0.992291C18.0977 1.40399 18.5548 2.03634 18.7472 2.76635L19.3584 5.17385C20.5497 5.0576 21.7634 4.99947 22.9997 4.99947C24.2359 4.99947 25.4484 5.0576 26.6372 5.17385L27.2484 2.76635C27.4405 2.03611 27.8975 1.40351 28.5304 0.991741C29.1633 0.579973 29.9268 0.418526 30.6722 0.538846L37.4372 1.65072C38.0157 1.74419 38.5544 2.00434 38.9874 2.39931C39.4203 2.79428 39.7287 3.30692 39.8747 3.87447L45.4116 25.6957C45.5857 26.3824 45.5101 27.1086 45.1982 27.7447C44.8863 28.3808 44.3586 28.8853 43.7091 29.1682ZM42.4997 26.427L36.9628 4.62447C36.9628 4.62447 36.9628 4.62447 36.9478 4.62447L30.1866 3.49947C30.1817 3.49667 30.1762 3.4952 30.1706 3.4952C30.165 3.4952 30.1595 3.49667 30.1547 3.49947L29.6241 5.58822C30.5616 5.76447 31.4991 5.97447 32.4047 6.22947C32.7617 6.32048 33.0728 6.53973 33.2785 6.84539C33.4843 7.15105 33.5703 7.52176 33.5203 7.8868C33.4702 8.25184 33.2875 8.58569 33.0071 8.82468C32.7267 9.06366 32.3681 9.19107 31.9997 9.1826C31.8628 9.18221 31.7265 9.16329 31.5947 9.12635C28.7933 8.36619 25.9023 7.98716 22.9997 7.99947C20.0972 7.98654 17.2061 8.36495 14.4047 9.12447C14.2133 9.18363 14.012 9.20387 13.8127 9.18398C13.6134 9.16409 13.4201 9.10448 13.2442 9.00867C13.0683 8.91286 12.9133 8.78279 12.7885 8.62613C12.6637 8.46947 12.5715 8.2894 12.5174 8.09653C12.4633 7.90367 12.4484 7.70192 12.4735 7.5032C12.4986 7.30447 12.5633 7.11279 12.6637 6.93947C12.7641 6.76615 12.8982 6.61469 13.0581 6.49404C13.218 6.37338 13.4005 6.28597 13.5947 6.23697C14.4984 5.98197 15.4284 5.77197 16.3734 5.59572L15.8428 3.49947C15.8428 3.49947 15.8428 3.49947 15.8203 3.49947L9.05157 4.61135C9.04605 4.60983 9.04022 4.60983 9.03469 4.61135L3.49969 26.4363L16.0622 31.9995C16.0685 32.0029 16.0756 32.0047 16.0828 32.0047C16.09 32.0047 16.0971 32.0029 16.1034 31.9995L17.3747 28.572C16.101 28.3771 14.84 28.1066 13.5984 27.762C13.2286 27.6438 12.9191 27.3869 12.7348 27.0452C12.5505 26.7035 12.5058 26.3037 12.6103 25.9297C12.7147 25.5558 12.96 25.2369 13.2946 25.0401C13.6293 24.8433 14.0272 24.784 14.4047 24.8745C17.2059 25.6349 20.0971 26.0133 22.9997 25.9995C25.9023 26.0133 28.7934 25.6349 31.5947 24.8745C31.9778 24.7671 32.388 24.8163 32.7349 25.0112C33.0817 25.2062 33.337 25.531 33.4444 25.9142C33.5518 26.2973 33.5026 26.7074 33.3076 27.0543C33.1126 27.4012 32.7878 27.6564 32.4047 27.7638C31.1619 28.108 29.8996 28.3779 28.6247 28.572L29.8903 31.9995C29.8964 32.0028 29.9031 32.0045 29.91 32.0045C29.9169 32.0045 29.9237 32.0028 29.9297 31.9995L42.4997 26.427Z"/>
</svg>
