<svg width="49" height="48" viewBox="0 0 49 48" fill="none" xmlns="http://www.w3.org/2000/svg">
<path d="M33.4287 30.0001C32.4281 29.9998 31.4375 30.2003 30.5158 30.5897C29.594 30.979 28.7598 31.5494 28.0624 32.267L19.4187 26.7114C20.0986 24.9678 20.0986 23.0325 19.4187 21.2889L28.0624 15.7333C29.3608 17.0632 31.1067 17.8637 32.9617 17.9796C34.8168 18.0954 36.6487 17.5183 38.1024 16.3602C39.5562 15.202 40.5281 13.5454 40.8297 11.7114C41.1314 9.87738 40.7413 7.9967 39.7351 6.43397C38.7289 4.87124 37.1783 3.73778 35.3839 3.25336C33.5895 2.76894 31.6791 2.96806 30.0232 3.81212C28.3672 4.65618 27.0837 6.08505 26.4214 7.82169C25.7591 9.55833 25.7653 11.479 26.4387 13.2114L17.7949 18.767C16.754 17.6984 15.4181 16.9645 13.958 16.659C12.4978 16.3536 10.9798 16.4905 9.59785 17.0523C8.21592 17.6141 7.03292 18.5753 6.20007 19.8129C5.36722 21.0505 4.92236 22.5084 4.92236 24.0001C4.92236 25.4919 5.36722 26.9498 6.20007 28.1874C7.03292 29.425 8.21592 30.3862 9.59785 30.948C10.9798 31.5098 12.4978 31.6467 13.958 31.3413C15.4181 31.0358 16.754 30.3019 17.7949 29.2333L26.4387 34.7889C25.8596 36.2824 25.7739 37.922 26.1942 39.4677C26.6144 41.0135 27.5185 42.384 28.774 43.3787C30.0295 44.3735 31.5705 44.9401 33.1714 44.9956C34.7722 45.0512 36.3488 44.5927 37.6703 43.6874C38.9917 42.7821 39.9886 41.4775 40.515 39.9646C41.0413 38.4518 41.0695 36.8101 40.5954 35.2801C40.1212 33.7501 39.1697 32.412 37.88 31.4619C36.5904 30.5118 35.0305 29.9995 33.4287 30.0001ZM33.4287 6.00015C34.3187 6.00015 35.1887 6.26407 35.9287 6.75853C36.6688 7.253 37.2455 7.9558 37.5861 8.77807C37.9267 9.60034 38.0158 10.5051 37.8422 11.3781C37.6686 12.251 37.24 13.0528 36.6107 13.6821C35.9813 14.3115 35.1795 14.74 34.3066 14.9137C33.4337 15.0873 32.5289 14.9982 31.7066 14.6576C30.8843 14.317 30.1815 13.7402 29.6871 13.0002C29.1926 12.2602 28.9287 11.3902 28.9287 10.5001C28.9287 9.30667 29.4028 8.16208 30.2467 7.31817C31.0906 6.47425 32.2352 6.00015 33.4287 6.00015ZM12.4287 28.5001C11.5387 28.5001 10.6686 28.2362 9.92861 27.7418C9.18859 27.2473 8.61181 26.5445 8.27122 25.7222C7.93062 24.9 7.84151 23.9952 8.01514 23.1222C8.18877 22.2493 8.61736 21.4475 9.24669 20.8182C9.87603 20.1888 10.6779 19.7602 11.5508 19.5866C12.4237 19.413 13.3285 19.5021 14.1507 19.8427C14.973 20.1833 15.6758 20.7601 16.1703 21.5001C16.6648 22.2401 16.9287 23.1101 16.9287 24.0001C16.9287 25.1936 16.4546 26.3382 15.6107 27.1821C14.7667 28.026 13.6221 28.5001 12.4287 28.5001ZM33.4287 42.0001C32.5387 42.0001 31.6686 41.7362 30.9286 41.2418C30.1886 40.7473 29.6118 40.0445 29.2712 39.2222C28.9306 38.4 28.8415 37.4952 29.0151 36.6222C29.1888 35.7493 29.6174 34.9475 30.2467 34.3182C30.876 33.6888 31.6779 33.2602 32.5508 33.0866C33.4237 32.913 34.3285 33.0021 35.1508 33.3427C35.973 33.6833 36.6758 34.2601 37.1703 35.0001C37.6648 35.7401 37.9287 36.6101 37.9287 37.5001C37.9287 38.6936 37.4546 39.8382 36.6107 40.6821C35.7667 41.526 34.6221 42.0001 33.4287 42.0001Z" fill="white"/>
</svg>
