<svg viewBox="0 0 49 48" fill="none" xmlns="http://www.w3.org/2000/svg">
<path d="M46.9569 12.927C46.8434 12.6529 46.6512 12.4186 46.4046 12.2537C46.1579 12.0889 45.868 12.0008 45.5713 12.0008H39.8657C39.0679 10.6436 37.9326 9.51593 36.5701 8.72739C35.2076 7.93886 33.6642 7.51628 32.09 7.50076C30.9173 7.48537 29.7532 7.70471 28.6665 8.14585C27.5797 8.587 26.5922 9.24104 25.7619 10.0695C24.9074 10.908 24.2292 11.909 23.7671 13.0134C23.3051 14.1179 23.0685 15.3036 23.0713 16.5008V17.6426C15.5225 15.6514 9.34816 9.51076 9.28254 9.44513C9.0813 9.24211 8.82623 9.10082 8.54738 9.03789C8.26853 8.97497 7.97751 8.99304 7.70858 9.08997C7.43966 9.1869 7.20403 9.35866 7.02945 9.58502C6.85487 9.81137 6.7486 10.0829 6.72316 10.3676C5.91504 19.3283 8.51754 25.3245 10.8482 28.7764C11.9846 30.4828 13.367 32.0118 14.9507 33.3139C12.095 36.6008 7.59879 38.3276 7.55004 38.3464C7.33838 38.4257 7.14737 38.5517 6.99128 38.7152C6.83519 38.8787 6.71807 39.0753 6.64865 39.2904C6.57924 39.5055 6.55933 39.7335 6.59041 39.9574C6.6215 40.1813 6.70277 40.3952 6.82816 40.5833C6.96879 40.7933 7.53129 41.5301 8.90566 42.2183C10.6044 43.0695 12.8488 43.5008 15.5713 43.5008C28.8219 43.5008 39.8938 33.297 41.0244 20.1683L46.6325 14.562C46.8422 14.3521 46.985 14.0847 47.0427 13.7937C47.1005 13.5027 47.0706 13.2011 46.9569 12.927ZM38.5194 18.4414C38.2622 18.6992 38.1076 19.0417 38.0844 19.4051C37.3213 31.2345 27.4363 40.5008 15.5713 40.5008C13.5913 40.5008 12.1963 40.2383 11.2175 39.9233C13.3757 38.7514 16.385 36.7358 18.32 33.8333C18.4336 33.6626 18.511 33.4704 18.5474 33.2687C18.5838 33.067 18.5785 32.8599 18.5317 32.6603C18.485 32.4607 18.3979 32.2728 18.2757 32.1082C18.1535 31.9436 17.9988 31.8058 17.8213 31.7033C17.7332 31.6526 9.58816 26.7645 9.57129 13.7033C12.5713 16.1408 18.0557 19.9226 24.3219 20.9764C24.5367 21.0126 24.7567 21.0016 24.9668 20.9442C25.1769 20.8867 25.372 20.7843 25.5384 20.6438C25.7049 20.5034 25.8388 20.3284 25.9308 20.131C26.0229 19.9336 26.0708 19.7185 26.0713 19.5008V16.5008C26.0696 15.7006 26.228 14.9082 26.5371 14.1702C26.8462 13.4321 27.2999 12.7634 27.8713 12.2033C28.4191 11.6544 29.0713 11.221 29.7895 10.9286C30.5077 10.6362 31.2772 10.4907 32.0525 10.5008C34.4263 10.5308 36.6444 11.9783 37.5725 14.1026C37.6895 14.3697 37.8818 14.5969 38.1259 14.7564C38.37 14.9159 38.6553 15.0008 38.9469 15.0008H41.9469L38.5194 18.4414Z"/>
</svg>
