<svg viewBox="0 0 49 48" fill="none" xmlns="http://www.w3.org/2000/svg">
<path d="M39.2856 6H9.28564C8.49 6 7.72693 6.31607 7.16432 6.87868C6.60171 7.44129 6.28564 8.20435 6.28564 9V36C6.28564 36.7956 6.60171 37.5587 7.16432 38.1213C7.72693 38.6839 8.49 39 9.28564 39H12.2856V45C12.2855 45.2851 12.3667 45.5644 12.5196 45.805C12.6725 46.0457 12.8908 46.2377 13.149 46.3587C13.4072 46.4798 13.6945 46.5247 13.9772 46.4883C14.26 46.4519 14.5266 46.3356 14.7456 46.1531L23.3294 39H31.2419C31.9442 39.0002 32.6243 38.7541 33.1638 38.3044L41.2056 31.6012C41.5443 31.3204 41.8167 30.9682 42.0033 30.5698C42.19 30.1715 42.2864 29.7368 42.2856 29.2969V9C42.2856 8.20435 41.9696 7.44129 41.407 6.87868C40.8444 6.31607 40.0813 6 39.2856 6ZM39.2856 29.2969L31.2419 36H23.3294C22.6271 35.9998 21.947 36.2459 21.4075 36.6956L15.2856 41.7975V37.5C15.2856 37.1022 15.1276 36.7206 14.8463 36.4393C14.565 36.158 14.1835 36 13.7856 36H9.28564V9H39.2856V29.2969ZM30.2856 25.5V16.5C30.2856 16.1022 30.4437 15.7206 30.725 15.4393C31.0063 15.158 31.3878 15 31.7856 15C32.1835 15 32.565 15.158 32.8463 15.4393C33.1276 15.7206 33.2856 16.1022 33.2856 16.5V25.5C33.2856 25.8978 33.1276 26.2794 32.8463 26.5607C32.565 26.842 32.1835 27 31.7856 27C31.3878 27 31.0063 26.842 30.725 26.5607C30.4437 26.2794 30.2856 25.8978 30.2856 25.5ZM21.2856 25.5V16.5C21.2856 16.1022 21.4437 15.7206 21.725 15.4393C22.0063 15.158 22.3878 15 22.7856 15C23.1835 15 23.565 15.158 23.8463 15.4393C24.1276 15.7206 24.2856 16.1022 24.2856 16.5V25.5C24.2856 25.8978 24.1276 26.2794 23.8463 26.5607C23.565 26.842 23.1835 27 22.7856 27C22.3878 27 22.0063 26.842 21.725 26.5607C21.4437 26.2794 21.2856 25.8978 21.2856 25.5Z" fill="white"/>
</svg>
