<svg viewBox="0 0 49 48" fill="none" xmlns="http://www.w3.org/2000/svg">
<path d="M28.8569 38H20.8569C16.6135 38 12.5438 36.3143 9.54323 33.3137C6.54264 30.3131 4.85693 26.2435 4.85693 22V12H12.8569V22C12.8569 24.1217 13.6998 26.1566 15.2001 27.6569C16.7004 29.1571 18.7352 30 20.8569 30V12H28.8569V21H28.9169C31.109 20.7265 33.1256 19.6617 34.5878 18.0058C36.0499 16.35 36.8569 14.217 36.8569 12.008H44.8569L44.1729 15.43C43.7633 17.4782 42.8912 19.4057 41.6233 21.0656C40.3554 22.7255 38.7252 24.0739 36.8569 25.008C38.6736 25.6132 40.2942 26.6958 41.5489 28.1423C42.8036 29.5888 43.6464 31.346 43.9889 33.23L44.8569 38.008H36.8569C36.8569 35.799 36.0499 33.666 34.5878 32.0102C33.1256 30.3543 31.109 29.2895 28.9169 29.016V38.016L28.8569 38Z" stroke="#6A6A6F" stroke-width="2.5" stroke-linecap="round" stroke-linejoin="round" fill="transparent"/>
</svg>
