<svg width="48" height="48" viewBox="0 0 48 48" fill="none" xmlns="http://www.w3.org/2000/svg">
<path d="M43.5 12H39V10.5C39 9.70435 38.6839 8.94129 38.1213 8.37868C37.5587 7.81607 36.7957 7.5 36 7.5H12C11.2044 7.5 10.4413 7.81607 9.87868 8.37868C9.31607 8.94129 9 9.70435 9 10.5V12H4.5C3.70435 12 2.94129 12.3161 2.37868 12.8787C1.81607 13.4413 1.5 14.2044 1.5 15V18C1.5 19.9891 2.29018 21.8968 3.6967 23.3033C4.39314 23.9997 5.21993 24.5522 6.12987 24.9291C7.03982 25.306 8.01509 25.5 9 25.5H9.68438C10.568 28.3002 12.2527 30.78 14.5303 32.6331C16.808 34.4862 19.5787 35.6313 22.5 35.9269V40.5H18C17.6022 40.5 17.2206 40.658 16.9393 40.9393C16.658 41.2206 16.5 41.6022 16.5 42C16.5 42.3978 16.658 42.7794 16.9393 43.0607C17.2206 43.342 17.6022 43.5 18 43.5H30C30.3978 43.5 30.7794 43.342 31.0607 43.0607C31.342 42.7794 31.5 42.3978 31.5 42C31.5 41.6022 31.342 41.2206 31.0607 40.9393C30.7794 40.658 30.3978 40.5 30 40.5H25.5V35.9212C31.4888 35.3156 36.4575 31.1138 38.265 25.5H39C40.9891 25.5 42.8968 24.7098 44.3033 23.3033C45.7098 21.8968 46.5 19.9891 46.5 18V15C46.5 14.2044 46.1839 13.4413 45.6213 12.8787C45.0587 12.3161 44.2957 12 43.5 12ZM9 22.5C7.80653 22.5 6.66193 22.0259 5.81802 21.182C4.97411 20.3381 4.5 19.1935 4.5 18V15H9V21C9 21.5 9.02437 22 9.07312 22.5H9ZM36 20.8312C36 27.4912 30.6581 32.9513 24.0919 33H24C20.8174 33 17.7652 31.7357 15.5147 29.4853C13.2643 27.2348 12 24.1826 12 21V10.5H36V20.8312ZM43.5 18C43.5 19.1935 43.0259 20.3381 42.182 21.182C41.3381 22.0259 40.1935 22.5 39 22.5H38.9062C38.9678 21.9459 38.9991 21.3888 39 20.8312V15H43.5V18Z" fill="white"/>
</svg>
