<svg viewBox="0 0 20 20" fill="none" xmlns="http://www.w3.org/2000/svg">
<path d="M17.3727 12.38L13.6922 10.7308L13.682 10.7261C13.491 10.6444 13.2825 10.6116 13.0756 10.6307C12.8687 10.6498 12.6698 10.7202 12.4969 10.8355C12.4765 10.8489 12.457 10.8635 12.4383 10.8792L10.5367 12.5003C9.33204 11.9152 8.08829 10.6808 7.50313 9.49174L9.12657 7.56127C9.14219 7.54174 9.15704 7.52221 9.1711 7.50111C9.28394 7.32869 9.35239 7.13105 9.37039 6.92578C9.38838 6.72051 9.35534 6.51397 9.27423 6.32455V6.31517L7.62032 2.62846C7.51309 2.38101 7.3287 2.17487 7.09468 2.04083C6.86067 1.90678 6.58958 1.85202 6.32188 1.88471C5.26326 2.02401 4.29155 2.5439 3.58824 3.34728C2.88492 4.15066 2.49809 5.18259 2.50001 6.25033C2.50001 12.4535 7.54688 17.5003 13.75 17.5003C14.8177 17.5022 15.8497 17.1154 16.6531 16.4121C17.4564 15.7088 17.9763 14.7371 18.1156 13.6785C18.1484 13.4108 18.0937 13.1398 17.9598 12.9058C17.8259 12.6718 17.62 12.4874 17.3727 12.38ZM13.75 16.2503C11.0987 16.2474 8.55687 15.1929 6.68214 13.3182C4.8074 11.4435 3.7529 8.90161 3.75001 6.25033C3.74707 5.48743 4.02192 4.74955 4.52324 4.17448C5.02456 3.59941 5.71806 3.22648 6.47423 3.12533C6.47392 3.12845 6.47392 3.13159 6.47423 3.13471L8.11485 6.80658L6.50001 8.73939C6.48362 8.75825 6.46873 8.77837 6.45548 8.79955C6.33791 8.97995 6.26894 9.18767 6.25525 9.40257C6.24157 9.61746 6.28362 9.83225 6.37735 10.0261C7.08516 11.4738 8.54376 12.9214 10.007 13.6285C10.2023 13.7213 10.4184 13.7619 10.634 13.7463C10.8497 13.7307 11.0576 13.6594 11.2375 13.5394C11.2576 13.5259 11.2769 13.5113 11.2953 13.4956L13.1945 11.8753L16.8664 13.5199C16.8664 13.5199 16.8727 13.5199 16.875 13.5199C16.7751 14.2771 16.4027 14.972 15.8275 15.4746C15.2524 15.9771 14.5138 16.2529 13.75 16.2503Z" />
</svg>
