<svg width="45" height="37" viewBox="0 0 45 37" fill="none" xmlns="http://www.w3.org/2000/svg">
<path d="M42 5H37.5V3.5C37.5 2.70435 37.1839 1.94129 36.6213 1.37868C36.0587 0.81607 35.2957 0.5 34.5 0.5H10.5C9.70435 0.5 8.94129 0.81607 8.37868 1.37868C7.81607 1.94129 7.5 2.70435 7.5 3.5V5H3C2.20435 5 1.44129 5.31607 0.87868 5.87868C0.316071 6.44129 0 7.20435 0 8V11C0 12.9891 0.790176 14.8968 2.1967 16.3033C2.89314 16.9997 3.71993 17.5522 4.62987 17.9291C5.53982 18.306 6.51509 18.5 7.5 18.5H8.18438C9.06796 21.3002 10.7527 23.78 13.0303 25.6331C15.308 27.4862 18.0787 28.6313 21 28.9269V33.5H16.5C16.1022 33.5 15.7206 33.658 15.4393 33.9393C15.158 34.2206 15 34.6022 15 35C15 35.3978 15.158 35.7794 15.4393 36.0607C15.7206 36.342 16.1022 36.5 16.5 36.5H28.5C28.8978 36.5 29.2794 36.342 29.5607 36.0607C29.842 35.7794 30 35.3978 30 35C30 34.6022 29.842 34.2206 29.5607 33.9393C29.2794 33.658 28.8978 33.5 28.5 33.5H24V28.9213C29.9888 28.3156 34.9575 24.1138 36.765 18.5H37.5C39.4891 18.5 41.3968 17.7098 42.8033 16.3033C44.2098 14.8968 45 12.9891 45 11V8C45 7.20435 44.6839 6.44129 44.1213 5.87868C43.5587 5.31607 42.7957 5 42 5ZM7.5 15.5C6.30653 15.5 5.16193 15.0259 4.31802 14.182C3.47411 13.3381 3 12.1935 3 11V8H7.5V14C7.5 14.5 7.52438 15 7.57313 15.5H7.5ZM34.5 13.8313C34.5 20.4913 29.1581 25.9513 22.5919 26H22.5C19.3174 26 16.2652 24.7357 14.0147 22.4853C11.7643 20.2348 10.5 17.1826 10.5 14V3.5H34.5V13.8313ZM42 11C42 12.1935 41.5259 13.3381 40.682 14.182C39.8381 15.0259 38.6935 15.5 37.5 15.5H37.4063C37.4678 14.9459 37.4991 14.3888 37.5 13.8313V8H42V11Z" fill="white"/>
</svg>
