<svg viewBox="0 0 18 17" fill="none" xmlns="http://www.w3.org/2000/svg">
<path d="M17.4397 6.35938C17.3614 6.11327 17.2107 5.89654 17.0071 5.73761C16.8036 5.57868 16.5568 5.48496 16.299 5.46875L11.6584 5.14844L9.93966 0.8125C9.84581 0.573753 9.68246 0.368675 9.47074 0.223816C9.25902 0.0789564 9.00869 0.000986628 8.75216 0C8.49564 0.000986628 8.24531 0.0789564 8.03359 0.223816C7.82187 0.368675 7.65852 0.573753 7.56466 0.8125L5.81466 5.17188L1.20529 5.46875C0.947871 5.48601 0.701556 5.58012 0.498206 5.7389C0.294857 5.89768 0.14383 6.11383 0.0646643 6.35938C-0.0166321 6.60869 -0.0213819 6.87664 0.0510272 7.12868C0.123436 7.38072 0.269684 7.60529 0.470914 7.77344L4.01779 10.7734L2.9631 14.9219C2.89013 15.2025 2.90326 15.4986 3.00079 15.7717C3.09832 16.0448 3.27573 16.2822 3.50998 16.4531C3.73734 16.6163 4.00823 16.7079 4.28798 16.7163C4.56772 16.7246 4.84359 16.6493 5.08029 16.5L8.74435 14.1797H8.75998L12.7053 16.6719C12.9077 16.8034 13.1436 16.8739 13.385 16.875C13.582 16.8735 13.7761 16.8267 13.9523 16.7384C14.1285 16.6502 14.2821 16.5227 14.4013 16.3657C14.5205 16.2088 14.6022 16.0266 14.64 15.8332C14.6778 15.6398 14.6707 15.4403 14.6194 15.25L13.5022 10.7109L17.0334 7.77344C17.2346 7.60529 17.3809 7.38072 17.4533 7.12868C17.5257 6.87664 17.521 6.60869 17.4397 6.35938Z" fill="#FFA000"/>
</svg>
