<svg width="39" height="39" viewBox="0 0 39 39" fill="none" xmlns="http://www.w3.org/2000/svg">
<path d="M37.9744 6.57699L19.9744 0.576986C19.6665 0.474338 19.3335 0.474338 19.0256 0.576986L1.02563 6.57699C0.726947 6.67655 0.46717 6.86758 0.283094 7.12299C0.0990181 7.37841 -2.33293e-05 7.68527 4.12192e-09 8.00011V23.0001C4.12192e-09 23.3979 0.158035 23.7795 0.43934 24.0608C0.720644 24.3421 1.10218 24.5001 1.5 24.5001C1.89783 24.5001 2.27936 24.3421 2.56066 24.0608C2.84196 23.7795 3 23.3979 3 23.0001V10.0814L9.29813 12.1795C7.6248 14.8829 7.09269 18.1398 7.81863 21.2352C8.54457 24.3306 10.4692 27.0113 13.17 28.6889C9.795 30.0126 6.8775 32.407 4.74375 35.6807C4.63278 35.8457 4.5557 36.031 4.51699 36.226C4.47828 36.421 4.47871 36.6217 4.51827 36.8165C4.55782 37.0113 4.6357 37.1964 4.74738 37.3608C4.85906 37.5253 5.00232 37.6659 5.16882 37.7745C5.33532 37.8831 5.52175 37.9575 5.71727 37.9934C5.91278 38.0293 6.11349 38.026 6.30772 37.9837C6.50195 37.9413 6.68582 37.8608 6.84866 37.7468C7.0115 37.6328 7.15005 37.4875 7.25625 37.3195C10.0819 32.9845 14.5444 30.5001 19.5 30.5001C24.4556 30.5001 28.9181 32.9845 31.7438 37.3195C31.9638 37.6465 32.3036 37.8737 32.6898 37.9522C33.0761 38.0306 33.4776 37.9538 33.8077 37.7385C34.1378 37.5232 34.3699 37.1866 34.4539 36.8016C34.5378 36.4165 34.4668 36.0139 34.2563 35.6807C32.1225 32.407 29.1938 30.0126 25.83 28.6889C28.5282 27.0114 30.451 24.3324 31.1768 21.2393C31.9027 18.1462 31.3722 14.8915 29.7019 12.1889L37.9744 9.43261C38.2731 9.3331 38.533 9.1421 38.7171 8.88668C38.9013 8.63126 39.0003 8.32436 39.0003 8.00949C39.0003 7.69461 38.9013 7.38772 38.7171 7.13229C38.533 6.87687 38.2731 6.68587 37.9744 6.58636V6.57699ZM28.5 18.5001C28.5004 19.923 28.1635 21.3256 27.5168 22.5931C26.8701 23.8605 25.9322 24.9565 24.7799 25.7912C23.6276 26.6259 22.2938 27.1756 20.888 27.395C19.4822 27.6144 18.0443 27.4974 16.6925 27.0536C15.3406 26.6097 14.1133 25.8516 13.1111 24.8416C12.109 23.8315 11.3606 22.5983 10.9273 21.243C10.4941 19.8877 10.3884 18.449 10.6188 17.0449C10.8493 15.6409 11.4094 14.3114 12.2531 13.1657L19.0256 15.4157C19.3335 15.5184 19.6665 15.5184 19.9744 15.4157L26.7469 13.1657C27.8865 14.7107 28.5009 16.5803 28.5 18.5001ZM19.5 12.4195L6.24375 8.00011L19.5 3.58074L32.7563 8.00011L19.5 12.4195Z" fill="white"/>
</svg>
