<svg viewBox="0 0 64 64" fill="none" xmlns="http://www.w3.org/2000/svg">
<path d="M56.0598 25.092C54.06 25.092 52.0591 25.0565 50.0603 25.1092C49.2316 25.1315 48.7865 24.8163 48.4348 24.1026C46.9641 21.1254 44.8781 18.6429 42.0271 16.878C36.5044 13.4578 30.6947 12.8678 24.6419 15.3849C20.9499 16.9196 18.064 19.394 16.019 22.8091C15.741 23.2744 15.4919 23.7559 15.2314 24.2313C14.9155 24.8051 14.4212 25.088 13.7679 25.088C9.57955 25.088 5.39118 25.088 1.20383 25.0777C0.48902 25.0758 0.214171 24.7018 0.458254 23.9404C0.977185 22.3165 1.45099 20.6642 2.13811 19.1081C4.31537 14.1856 7.59305 10.072 11.8676 6.75825C15.9021 3.62897 20.4432 1.56103 25.4942 0.61221C30.2999 -0.28998 35.0891 -0.211925 39.8324 0.958895C45.1591 2.27468 49.8398 4.80385 53.8754 8.49168C57.4977 11.8024 60.2522 15.7092 62.0808 20.2364C62.567 21.4407 62.9269 22.6986 63.2756 23.9505C63.5093 24.7899 63.2377 25.0808 62.368 25.0829C60.2656 25.0869 58.1632 25.0838 56.0598 25.0838V25.091V25.092Z" fill="white"/>
<path d="M62.9114 39.0284C60.7578 39.0232 58.6041 39.0263 56.4503 39.0263L56.4514 39.0273V39.0436C54.3491 39.0436 52.2466 39.0658 50.1442 39.0314C49.4007 39.0192 48.9074 39.2676 48.5978 39.9346C48.4059 40.3471 48.1556 40.7344 47.9332 41.1338C45.4749 45.5545 41.7245 48.3736 36.8786 49.8262C36.0244 50.0817 35.9701 50.1212 35.968 51.0204C35.9578 55.0244 35.9495 59.0286 35.9434 63.0326C35.9424 63.7493 36.3536 64.1194 37.0613 63.9654C38.5616 63.6379 40.0795 63.354 41.5429 62.9019C46.9651 61.2283 51.7051 58.4366 55.5673 54.2754C59.4409 50.102 62.2068 45.3325 63.5001 39.7774C63.6549 39.1104 63.5995 39.0293 62.9114 39.0284Z" fill="white"/>
<path d="M0.882061 39.0284C3.0357 39.0232 5.18934 39.0263 7.34313 39.0263L7.34201 39.0273V39.0436C9.44437 39.0436 11.5469 39.0658 13.6492 39.0314C14.3928 39.0192 14.886 39.2676 15.1957 39.9346C15.3876 40.3471 15.6378 40.7344 15.8603 41.1338C18.3186 45.5545 22.069 48.3736 26.9148 49.8262C27.769 50.0817 27.8234 50.1212 27.8255 51.0204C27.8357 55.0244 27.8439 59.0286 27.8501 63.0326C27.8511 63.7493 27.4398 64.1194 26.7322 63.9654C25.2318 63.6379 23.714 63.354 22.2505 62.9019C16.8284 61.2283 12.0884 58.4366 8.22613 54.2754C4.35259 50.102 1.58662 45.3325 0.293344 39.7774C0.138514 39.1104 0.193993 39.0293 0.882061 39.0284Z" fill="white"/>
<path d="M6.66539 35.7521H1.60869C1.21496 35.7336 0.866221 35.5883 0.56248 35.3164C0.341238 35.1265 0.191244 34.8547 0.112496 34.5009C0.0374992 34.1471 0 33.8511 0 33.6128V30.306C0 29.8145 0.12187 29.3881 0.365612 29.0268C0.763099 28.4682 1.32371 28.1889 2.04743 28.1889H6.66539V30.1943H2.27805V33.7525H6.66539V35.7521ZM7.89678 28.1889H10.5911L12.1885 31.222L13.5722 28.2002H16.2665L13.3191 33.0654V35.7521H10.8554V33.0654L7.89678 28.1889ZM17.4922 35.7521V28.1889H23.1227C23.5802 28.1889 23.9757 28.3342 24.3095 28.6246C24.4932 28.781 24.6339 28.9393 24.7314 29.0995C24.8326 29.2595 24.8833 29.4475 24.8833 29.6636V30.6858C24.8382 30.9055 24.7389 31.1308 24.5851 31.3617C24.5213 31.466 24.4088 31.5906 24.2476 31.7359C24.0902 31.8775 24.0114 31.9463 24.0114 31.9426C24.0713 31.9799 24.1576 32.0375 24.2702 32.1157C24.3826 32.1902 24.4764 32.274 24.5514 32.3671C24.6938 32.5347 24.7894 32.6893 24.8382 32.8307C24.8908 32.9723 24.9189 33.0728 24.9226 33.1324V34.149C24.9226 34.3688 24.8701 34.5624 24.7651 34.73C24.6639 34.8937 24.5045 35.0781 24.287 35.283C24.0995 35.4468 23.8539 35.5678 23.5502 35.646C23.2464 35.7243 22.9662 35.7447 22.7074 35.7521C22.6062 35.7521 22.517 35.767 22.442 35.7521H17.4922ZM19.7703 30.1943V31.2332H22.5602V30.1943H19.7703ZM19.7703 32.7079V33.7525H22.5602V32.7079H19.7703ZM26.0302 35.7521V28.1889H32.5381V30.1943H28.3082V31.1774H32.5381V32.7638H28.3082V33.7525H32.5381V35.7521H26.0302ZM41.0256 33.395V35.7521H38.7474V32.7638H35.9801V35.7521H33.7132V28.1889H39.5406C39.7131 28.1889 39.8669 28.2113 40.0018 28.256C40.1368 28.297 40.2792 28.3658 40.4293 28.4626C40.8267 28.742 41.0256 29.1311 41.0256 29.6302V30.8087C40.9955 31.0358 40.9074 31.2537 40.7612 31.4622C40.6787 31.5851 40.5605 31.6969 40.4068 31.7974C40.253 31.8942 40.1331 31.965 40.0468 32.0096C40.1144 32.0469 40.2081 32.1064 40.3281 32.1884C40.448 32.2666 40.5418 32.3448 40.6093 32.423C40.7481 32.5719 40.8512 32.7246 40.9186 32.8811C40.9899 33.0338 41.0256 33.2051 41.0256 33.395ZM35.9801 30.1943V31.1997H38.7474V30.1943H35.9801ZM42.1951 28.1889H44.8893L46.4867 31.222L47.8705 28.2002H50.5647L47.6174 33.0654V35.7521H45.1536V33.0654L42.1951 28.1889ZM50.9581 35.7521V30.3842C50.9581 30.1943 50.9805 29.9429 51.0256 29.6302C51.0743 29.3136 51.1811 29.0473 51.3461 28.8314C51.5261 28.6153 51.7474 28.4533 52.0098 28.3453C52.2723 28.2336 52.5348 28.1777 52.7973 28.1777C52.906 28.1777 52.9829 28.1815 53.028 28.1889H56.2903C56.5753 28.1889 56.8172 28.2355 57.0159 28.3286C57.2147 28.4217 57.4059 28.5744 57.5896 28.7866C57.7471 28.9542 57.8615 29.1274 57.9328 29.3061C58.004 29.4812 58.0396 29.6859 58.0396 29.9206V35.7521H55.7728V32.8251H53.2361V35.7521H50.9581ZM53.2361 31.222H55.7728V30.2166H53.2361V31.222ZM64 35.7521H59.271V28.1889H61.7122V33.7525H64V34.8076V35.7521Z" fill="white"/>
</svg>
