<svg viewBox="0 0 48 48" fill="none" xmlns="http://www.w3.org/2000/svg">
<path d="M46.5 22.5H45V16.5C45 15.7044 44.6839 14.9413 44.1213 14.3787C43.5587 13.8161 42.7956 13.5 42 13.5H39V12C39 11.2044 38.6839 10.4413 38.1213 9.87868C37.5587 9.31607 36.7956 9 36 9H31.5C30.7044 9 29.9413 9.31607 29.3787 9.87868C28.8161 10.4413 28.5 11.2044 28.5 12V22.5H19.5V12C19.5 11.2044 19.1839 10.4413 18.6213 9.87868C18.0587 9.31607 17.2956 9 16.5 9H12C11.2044 9 10.4413 9.31607 9.87868 9.87868C9.31607 10.4413 9 11.2044 9 12V13.5H6C5.20435 13.5 4.44129 13.8161 3.87868 14.3787C3.31607 14.9413 3 15.7044 3 16.5V22.5H1.5C1.10218 22.5 0.720644 22.658 0.43934 22.9393C0.158035 23.2206 0 23.6022 0 24C0 24.3978 0.158035 24.7794 0.43934 25.0607C0.720644 25.342 1.10218 25.5 1.5 25.5H3V31.5C3 32.2956 3.31607 33.0587 3.87868 33.6213C4.44129 34.1839 5.20435 34.5 6 34.5H9V36C9 36.7956 9.31607 37.5587 9.87868 38.1213C10.4413 38.6839 11.2044 39 12 39H16.5C17.2956 39 18.0587 38.6839 18.6213 38.1213C19.1839 37.5587 19.5 36.7956 19.5 36V25.5H28.5V36C28.5 36.7956 28.8161 37.5587 29.3787 38.1213C29.9413 38.6839 30.7044 39 31.5 39H36C36.7956 39 37.5587 38.6839 38.1213 38.1213C38.6839 37.5587 39 36.7956 39 36V34.5H42C42.7956 34.5 43.5587 34.1839 44.1213 33.6213C44.6839 33.0587 45 32.2956 45 31.5V25.5H46.5C46.8978 25.5 47.2794 25.342 47.5607 25.0607C47.842 24.7794 48 24.3978 48 24C48 23.6022 47.842 23.2206 47.5607 22.9393C47.2794 22.658 46.8978 22.5 46.5 22.5ZM6 31.5V16.5H9V31.5H6ZM16.5 36H12V12H16.5V36ZM36 36H31.5V12H36V32.9663C36 32.9775 36 32.9888 36 33C36 33.0112 36 33.0225 36 33.0337V36ZM42 31.5H39V16.5H42V31.5Z" />
</svg>
