<svg width="60" height="60" viewBox="0 0 60 60" fill="none" xmlns="http://www.w3.org/2000/svg">
<path d="M55 0H5C3.67392 0 2.40215 0.526784 1.46447 1.46447C0.526784 2.40215 0 3.67392 0 5V55C0 56.3261 0.526784 57.5979 1.46447 58.5355C2.40215 59.4732 3.67392 60 5 60H55C56.3261 60 57.5979 59.4732 58.5355 58.5355C59.4732 57.5979 60 56.3261 60 55V5C60 3.67392 59.4732 2.40215 58.5355 1.46447C57.5979 0.526784 56.3261 0 55 0ZM20 27.5C20 25.5222 20.5865 23.5888 21.6853 21.9443C22.7841 20.2998 24.3459 19.0181 26.1732 18.2612C28.0004 17.5043 30.0111 17.3063 31.9509 17.6921C33.8907 18.078 35.6725 19.0304 37.0711 20.4289C38.4696 21.8275 39.422 23.6093 39.8079 25.5491C40.1937 27.4889 39.9957 29.4996 39.2388 31.3268C38.4819 33.1541 37.2002 34.7159 35.5557 35.8147C33.9112 36.9135 31.9778 37.5 30 37.5C27.3478 37.5 24.8043 36.4464 22.9289 34.5711C21.0536 32.6957 20 30.1522 20 27.5ZM11.4594 55C12.7387 51.8505 14.7954 49.0766 17.4375 46.9375C20.9947 44.0659 25.4284 42.4997 30 42.4997C34.5716 42.4997 39.0053 44.0659 42.5625 46.9375C45.2046 49.0766 47.2613 51.8505 48.5406 55H11.4594ZM55 55H53.8531C52.7415 51.4615 50.8556 48.215 48.3323 45.4966C45.809 42.7781 42.7117 40.656 39.2656 39.2844C41.7189 37.3573 43.5104 34.7133 44.3906 31.7204C45.2708 28.7275 45.1959 25.5347 44.1764 22.5863C43.1569 19.6379 41.2435 17.0808 38.7026 15.2709C36.1617 13.4609 33.1196 12.4883 30 12.4883C26.8804 12.4883 23.8383 13.4609 21.2974 15.2709C18.7565 17.0808 16.8431 19.6379 15.8236 22.5863C14.8041 25.5347 14.7292 28.7275 15.6094 31.7204C16.4896 34.7133 18.2811 37.3573 20.7344 39.2844C17.2883 40.656 14.191 42.7781 11.6677 45.4966C9.14444 48.215 7.25847 51.4615 6.14687 55H5V5H55V55Z" fill="white"/>
</svg>
