<svg width="48" height="48" viewBox="0 0 48 48" fill="none" xmlns="http://www.w3.org/2000/svg">
<path d="M45.72 14.2868C45.3816 13.9918 44.9632 13.8039 44.5178 13.7472C44.0725 13.6904 43.6203 13.7673 43.2187 13.968L33.8044 18.6555L25.9444 5.59991C25.7423 5.2649 25.4571 4.98777 25.1165 4.79541C24.7758 4.60304 24.3912 4.50195 24 4.50195C23.6088 4.50195 23.2242 4.60304 22.8835 4.79541C22.5428 4.98777 22.2577 5.2649 22.0556 5.59991L14.1956 18.6612L4.78499 13.9737C4.38438 13.7747 3.93393 13.6985 3.49017 13.7546C3.04641 13.8107 2.62911 13.9967 2.29063 14.2891C1.95215 14.5815 1.70758 14.9674 1.5876 15.3983C1.46762 15.8292 1.47759 16.2859 1.61624 16.7112L8.55374 37.9662C8.62349 38.1797 8.74032 38.3748 8.89558 38.5372C9.05085 38.6995 9.24059 38.8249 9.4508 38.9041C9.66102 38.9833 9.88634 39.0143 10.1101 38.9947C10.3339 38.9752 10.5504 38.9056 10.7437 38.7912C10.7906 38.763 15.585 36.0012 24 36.0012C32.415 36.0012 37.2094 38.763 37.2525 38.7893C37.4459 38.9048 37.6628 38.9753 37.8871 38.9956C38.1115 39.0158 38.3375 38.9852 38.5484 38.9062C38.7593 38.8271 38.9497 38.7015 39.1055 38.5388C39.2613 38.3761 39.3784 38.1803 39.4481 37.9662L46.3856 16.7168C46.5283 16.2914 46.5411 15.8332 46.4226 15.4005C46.3041 14.9678 46.0595 14.5801 45.72 14.2868ZM37.125 35.4068C34.875 34.4524 30.39 33.0012 24 33.0012C17.61 33.0012 13.125 34.4524 10.875 35.4068L5.00812 17.4387L13.4587 21.6518C13.9703 21.904 14.5577 21.9556 15.1053 21.7963C15.653 21.637 16.1211 21.2784 16.4175 20.7912L24 8.18741L31.5825 20.7874C31.8792 21.2739 32.347 21.6319 32.894 21.7911C33.4411 21.9503 34.028 21.8993 34.5394 21.648L42.9919 17.4387L37.125 35.4068ZM32.9756 29.4068C32.9144 29.7538 32.733 30.0682 32.4632 30.2948C32.1933 30.5214 31.8524 30.6458 31.5 30.6462C31.412 30.646 31.3242 30.6385 31.2375 30.6237C26.4463 29.8012 21.5499 29.8012 16.7587 30.6237C16.3669 30.6928 15.9636 30.6034 15.6377 30.3752C15.3117 30.147 15.0897 29.7986 15.0206 29.4068C14.9515 29.0149 15.0409 28.6117 15.2691 28.2857C15.4973 27.9597 15.8456 27.7378 16.2375 27.6687C21.3736 26.7862 26.6226 26.7862 31.7587 27.6687C32.1498 27.7373 32.4977 27.9583 32.7262 28.283C32.9546 28.6078 33.045 29.0099 32.9775 29.4012L32.9756 29.4068Z" fill="white"/>
</svg>
