<svg width="48" height="48" viewBox="0 0 48 48" fill="none" xmlns="http://www.w3.org/2000/svg">
<path d="M42 23.9999C42 24.3977 41.8419 24.7792 41.5606 25.0605C41.2793 25.3418 40.8978 25.4999 40.5 25.4999H24C23.6022 25.4999 23.2206 25.3418 22.9393 25.0605C22.658 24.7792 22.5 24.3977 22.5 23.9999C22.5 23.602 22.658 23.2205 22.9393 22.9392C23.2206 22.6579 23.6022 22.4999 24 22.4999H40.5C40.8978 22.4999 41.2793 22.6579 41.5606 22.9392C41.8419 23.2205 42 23.602 42 23.9999ZM24 13.4999H40.5C40.8978 13.4999 41.2793 13.3418 41.5606 13.0605C41.8419 12.7792 42 12.3977 42 11.9999C42 11.602 41.8419 11.2205 41.5606 10.9392C41.2793 10.6579 40.8978 10.4999 40.5 10.4999H24C23.6022 10.4999 23.2206 10.6579 22.9393 10.9392C22.658 11.2205 22.5 11.602 22.5 11.9999C22.5 12.3977 22.658 12.7792 22.9393 13.0605C23.2206 13.3418 23.6022 13.4999 24 13.4999ZM40.5 34.4999H24C23.6022 34.4999 23.2206 34.6579 22.9393 34.9392C22.658 35.2205 22.5 35.602 22.5 35.9999C22.5 36.3977 22.658 36.7792 22.9393 37.0605C23.2206 37.3418 23.6022 37.4999 24 37.4999H40.5C40.8978 37.4999 41.2793 37.3418 41.5606 37.0605C41.8419 36.7792 42 36.3977 42 35.9999C42 35.602 41.8419 35.2205 41.5606 34.9392C41.2793 34.6579 40.8978 34.4999 40.5 34.4999ZM15.4387 7.93861L10.5 12.8792L8.56123 10.9386C8.27977 10.6571 7.89803 10.499 7.49998 10.499C7.10193 10.499 6.72019 10.6571 6.43873 10.9386C6.15727 11.2201 5.99915 11.6018 5.99915 11.9999C5.99915 12.3979 6.15727 12.7796 6.43873 13.0611L9.43873 16.0611C9.57804 16.2006 9.74347 16.3112 9.92557 16.3867C10.1077 16.4622 10.3029 16.501 10.5 16.501C10.6971 16.501 10.8923 16.4622 11.0744 16.3867C11.2565 16.3112 11.4219 16.2006 11.5612 16.0611L17.5612 10.0611C17.8427 9.77965 18.0008 9.3979 18.0008 8.99986C18.0008 8.60181 17.8427 8.22007 17.5612 7.93861C17.2798 7.65715 16.898 7.49902 16.5 7.49902C16.1019 7.49902 15.7202 7.65715 15.4387 7.93861ZM15.4387 19.9386L10.5 24.8792L8.56123 22.9386C8.27977 22.6571 7.89803 22.499 7.49998 22.499C7.10193 22.499 6.72019 22.6571 6.43873 22.9386C6.15727 23.2201 5.99915 23.6018 5.99915 23.9999C5.99915 24.1969 6.03797 24.3921 6.11339 24.5742C6.18881 24.7563 6.29936 24.9217 6.43873 25.0611L9.43873 28.0611C9.57804 28.2006 9.74347 28.3112 9.92557 28.3867C10.1077 28.4622 10.3029 28.501 10.5 28.501C10.6971 28.501 10.8923 28.4622 11.0744 28.3867C11.2565 28.3112 11.4219 28.2006 11.5612 28.0611L17.5612 22.0611C17.8427 21.7796 18.0008 21.3979 18.0008 20.9999C18.0008 20.6018 17.8427 20.2201 17.5612 19.9386C17.2798 19.6571 16.898 19.499 16.5 19.499C16.1019 19.499 15.7202 19.6571 15.4387 19.9386ZM15.4387 31.9386L10.5 36.8792L8.56123 34.9386C8.42186 34.7992 8.25641 34.6887 8.07432 34.6133C7.89223 34.5378 7.69707 34.499 7.49998 34.499C7.30289 34.499 7.10772 34.5378 6.92563 34.6133C6.74355 34.6887 6.57809 34.7992 6.43873 34.9386C6.29936 35.078 6.18881 35.2434 6.11339 35.4255C6.03797 35.6076 5.99915 35.8028 5.99915 35.9999C5.99915 36.197 6.03797 36.3921 6.11339 36.5742C6.18881 36.7563 6.29936 36.9217 6.43873 37.0611L9.43873 40.0611C9.57804 40.2006 9.74347 40.3112 9.92557 40.3867C10.1077 40.4622 10.3029 40.501 10.5 40.501C10.6971 40.501 10.8923 40.4622 11.0744 40.3867C11.2565 40.3112 11.4219 40.2006 11.5612 40.0611L17.5612 34.0611C17.8427 33.7796 18.0008 33.3979 18.0008 32.9999C18.0008 32.6018 17.8427 32.2201 17.5612 31.9386C17.2798 31.6571 16.898 31.499 16.5 31.499C16.1019 31.499 15.7202 31.6571 15.4387 31.9386Z" fill="white"/>
</svg>
