<svg width="26" height="26" viewBox="0 0 26 26" fill="none" xmlns="http://www.w3.org/2000/svg">
<path d="M1 22.3333V3.66667C1 2.95942 1.28095 2.28115 1.78105 1.78105C2.28115 1.28095 2.95942 1 3.66667 1H22.3333C23.0406 1 23.7189 1.28095 24.219 1.78105C24.719 2.28115 25 2.95942 25 3.66667V22.3333C25 23.0406 24.719 23.7189 24.219 24.219C23.7189 24.719 23.0406 25 22.3333 25H3.66667C2.95942 25 2.28115 24.719 1.78105 24.219C1.28095 23.7189 1 23.0406 1 22.3333Z" stroke="white" stroke-width="2" stroke-linecap="round" stroke-linejoin="round"/>
<path d="M10.8853 12.4479C10.5124 12.0749 10.0373 11.8208 9.51997 11.7179C9.00266 11.6149 8.46644 11.6677 7.97913 11.8695C7.49181 12.0713 7.07529 12.4131 6.78223 12.8516C6.48918 13.2902 6.33276 13.8058 6.33276 14.3333C6.33276 14.8607 6.48918 15.3763 6.78223 15.8149C7.07529 16.2534 7.49181 16.5952 7.97913 16.797C8.46644 16.9988 9.00266 17.0516 9.51997 16.9486C10.0373 16.8457 10.5124 16.5916 10.8853 16.2186M14.3333 14.3333C14.3333 15.0405 14.6143 15.7188 15.1144 16.2189C15.6145 16.719 16.2928 16.9999 17 16.9999C17.7072 16.9999 18.3855 16.719 18.8856 16.2189C19.3857 15.7188 19.6667 15.0405 19.6667 14.3333C19.6667 13.626 19.3857 12.9477 18.8856 12.4476C18.3855 11.9475 17.7072 11.6666 17 11.6666C16.2928 11.6666 15.6145 11.9475 15.1144 12.4476C14.6143 12.9477 14.3333 13.626 14.3333 14.3333ZM14.3333 14.3333V6.33325" stroke="white" stroke-width="2" stroke-linecap="round" stroke-linejoin="round"/>
</svg>
