<svg width="49" height="48" viewBox="0 0 49 48" fill="none" xmlns="http://www.w3.org/2000/svg">
<path d="M24.7144 4.5C20.8576 4.5 17.0875 5.64366 13.8807 7.78634C10.674 9.92903 8.17462 12.9745 6.69871 16.5377C5.2228 20.1008 4.83664 24.0216 5.58905 27.8043C6.34146 31.5869 8.19866 35.0615 10.9258 37.7886C13.6529 40.5157 17.1275 42.3729 20.9101 43.1253C24.6927 43.8777 28.6135 43.4916 32.1767 42.0156C35.7398 40.5397 38.7853 38.0404 40.928 34.8336C43.0707 31.6269 44.2144 27.8567 44.2144 24C44.2089 18.83 42.1527 13.8732 38.4969 10.2174C34.8411 6.56167 29.8844 4.50546 24.7144 4.5ZM26.2144 40.4306V28.5H30.7144C31.1122 28.5 31.4937 28.342 31.775 28.0607C32.0563 27.7794 32.2144 27.3978 32.2144 27C32.2144 26.6022 32.0563 26.2206 31.775 25.9393C31.4937 25.658 31.1122 25.5 30.7144 25.5H26.2144V21C26.2144 20.2044 26.5304 19.4413 27.093 18.8787C27.6557 18.3161 28.4187 18 29.2144 18H32.2144C32.6122 18 32.9937 17.842 33.275 17.5607C33.5563 17.2794 33.7144 16.8978 33.7144 16.5C33.7144 16.1022 33.5563 15.7206 33.275 15.4393C32.9937 15.158 32.6122 15 32.2144 15H29.2144C27.6231 15 26.0969 15.6321 24.9717 16.7574C23.8465 17.8826 23.2144 19.4087 23.2144 21V25.5H18.7144C18.3165 25.5 17.935 25.658 17.6537 25.9393C17.3724 26.2206 17.2144 26.6022 17.2144 27C17.2144 27.3978 17.3724 27.7794 17.6537 28.0607C17.935 28.342 18.3165 28.5 18.7144 28.5H23.2144V40.4306C18.9859 40.0446 15.0689 38.0433 12.2783 34.8431C9.4877 31.6428 8.03825 27.4899 8.23145 23.2482C8.42466 19.0065 10.2456 15.0025 13.3156 12.0692C16.3856 9.13586 20.4683 7.49895 24.7144 7.49895C28.9605 7.49895 33.0431 9.13586 36.1131 12.0692C39.1831 15.0025 41.0041 19.0065 41.1973 23.2482C41.3905 27.4899 39.941 31.6428 37.1504 34.8431C34.3598 38.0433 30.4429 40.0446 26.2144 40.4306Z" fill="white"/>
</svg>
