<svg width="64" height="64" viewBox="0 0 64 64" fill="none" xmlns="http://www.w3.org/2000/svg">
<path d="M43.9996 28H37.9996C37.4692 28 36.9605 27.7893 36.5854 27.4142C36.2103 27.0391 35.9996 26.5304 35.9996 26C35.9996 25.4696 36.2103 24.9609 36.5854 24.5858C36.9605 24.2107 37.4692 24 37.9996 24H43.9996C44.53 24 45.0387 24.2107 45.4138 24.5858C45.7889 24.9609 45.9996 25.4696 45.9996 26C45.9996 26.5304 45.7889 27.0391 45.4138 27.4142C45.0387 27.7893 44.53 28 43.9996 28ZM25.9996 24H23.9996V22C23.9996 21.4696 23.7889 20.9609 23.4138 20.5858C23.0387 20.2107 22.53 20 21.9996 20C21.4692 20 20.9605 20.2107 20.5854 20.5858C20.2103 20.9609 19.9996 21.4696 19.9996 22V24H17.9996C17.4692 24 16.9605 24.2107 16.5854 24.5858C16.2103 24.9609 15.9996 25.4696 15.9996 26C15.9996 26.5304 16.2103 27.0391 16.5854 27.4142C16.9605 27.7893 17.4692 28 17.9996 28H19.9996V30C19.9996 30.5304 20.2103 31.0391 20.5854 31.4142C20.9605 31.7893 21.4692 32 21.9996 32C22.53 32 23.0387 31.7893 23.4138 31.4142C23.7889 31.0391 23.9996 30.5304 23.9996 30V28H25.9996C26.53 28 27.0387 27.7893 27.4138 27.4142C27.7889 27.0391 27.9996 26.5304 27.9996 26C27.9996 25.4696 27.7889 24.9609 27.4138 24.5858C27.0387 24.2107 26.53 24 25.9996 24ZM60.3696 50.1625C59.6158 51.2389 58.6355 52.1371 57.4975 52.7942C56.3595 53.4512 55.0915 53.8511 53.7824 53.9657C52.4734 54.0803 51.1551 53.9068 49.9203 53.4575C48.6854 53.0083 47.5639 52.294 46.6346 51.365C46.6046 51.335 46.5746 51.305 46.5471 51.2725L36.6196 40H27.3696L17.4521 51.2725L17.3646 51.365C15.6751 53.0508 13.3863 53.9984 10.9996 54C9.6857 53.9995 8.38783 53.7113 7.19718 53.1558C6.00653 52.6002 4.95196 51.7906 4.10757 50.7839C3.26317 49.7773 2.64943 48.598 2.30945 47.3288C1.96947 46.0597 1.91149 44.7315 2.1396 43.4375C2.1384 43.4259 2.1384 43.4141 2.1396 43.4025L6.2321 22.38C6.84118 18.9127 8.65275 15.7709 11.3485 13.5068C14.0442 11.2427 17.4517 10.001 20.9721 10H42.9996C46.5094 10.0056 49.9064 11.2402 52.6008 13.4893C55.2952 15.7385 57.1169 18.8602 57.7496 22.3125C57.7496 22.3275 57.7496 22.3425 57.7496 22.3575L61.8421 43.4C61.8433 43.4116 61.8433 43.4234 61.8421 43.435C62.0539 44.598 62.0328 45.7915 61.7801 46.9463C61.5273 48.1011 61.0479 49.1943 60.3696 50.1625ZM42.9996 36C45.917 36 48.7149 34.8411 50.7778 32.7782C52.8407 30.7153 53.9996 27.9174 53.9996 25C53.9996 22.0826 52.8407 19.2847 50.7778 17.2218C48.7149 15.1589 45.917 14 42.9996 14H20.9721C18.3895 14.0023 15.8904 14.9153 13.9145 16.5784C11.9387 18.2415 10.6126 20.5482 10.1696 23.0925V23.125L6.0746 44.1475C5.8936 45.1897 6.0478 46.2625 6.51505 47.2116C6.98229 48.1606 7.73849 48.937 8.67489 49.4291C9.61129 49.9212 10.6796 50.1036 11.7263 49.9501C12.7729 49.7967 13.7439 49.3152 14.4996 48.575L24.9796 36.6775C25.1673 36.4646 25.3981 36.2941 25.6567 36.1773C25.9153 36.0605 26.1958 36 26.4796 36H42.9996ZM57.9246 44.1475L55.7396 32.8975C54.3958 35.0675 52.5204 36.8587 50.291 38.1016C48.0617 39.3444 45.552 39.9979 42.9996 40H41.9496L49.4996 48.5775C50.0688 49.1312 50.7613 49.542 51.52 49.7762C52.2788 50.0105 53.0823 50.0615 53.8646 49.925C55.1678 49.695 56.3267 48.9577 57.0873 47.8747C57.8478 46.7917 58.148 45.4514 57.9221 44.1475H57.9246Z" fill="white"/>
</svg>
