<svg width="48" height="48" viewBox="0 0 48 48" fill="none" xmlns="http://www.w3.org/2000/svg">
<path d="M22.455 40.8637C22.3739 41.1882 22.1867 41.4763 21.923 41.6822C21.6594 41.8881 21.3345 41.9999 21 42C20.8736 42.0006 20.7477 41.9854 20.625 41.955L14.625 40.455C14.458 40.413 14.2994 40.3426 14.1563 40.2468L9.65628 37.2468C9.32534 37.026 9.09566 36.6828 9.01777 36.2927C8.93989 35.9026 9.02017 35.4975 9.24096 35.1665C9.46176 34.8356 9.80497 34.6059 10.1951 34.528C10.5852 34.4501 10.9903 34.5304 11.3213 34.7512L15.6038 37.6068L21.3525 39.045C21.5446 39.0915 21.7256 39.1756 21.8851 39.2923C22.0445 39.4091 22.1794 39.5561 22.2818 39.7252C22.3843 39.8942 22.4523 40.0818 22.482 40.2772C22.5118 40.4725 22.5026 40.6719 22.455 40.8637ZM47.3344 22.7775C47.2113 23.1513 47.0154 23.497 46.7579 23.7947C46.5005 24.0924 46.1866 24.3361 45.8344 24.5118L41.3944 26.7318L31.0669 37.0612C30.8836 37.2443 30.656 37.3768 30.4063 37.4458C30.1566 37.5148 29.8932 37.518 29.6419 37.455L17.6419 34.455C17.4594 34.4091 17.2871 34.3297 17.1338 34.2206L6.72378 26.7881L2.17128 24.5118C1.45978 24.1562 0.918666 23.5325 0.666913 22.7779C0.415161 22.0234 0.473383 21.1997 0.828776 20.4881L5.48815 11.1712C5.84383 10.4597 6.46751 9.9186 7.22206 9.66685C7.97662 9.4151 8.80026 9.47332 9.5119 9.82871L13.6482 11.8912L23.5857 9.05246C23.8552 8.97535 24.1411 8.97535 24.4107 9.05246L34.3482 11.8912L38.4844 9.82871C39.196 9.47332 40.0197 9.4151 40.7742 9.66685C41.5288 9.9186 42.1525 10.4597 42.5082 11.1712L47.1675 20.4881C47.3452 20.8397 47.4515 21.2231 47.4801 21.6161C47.5088 22.009 47.4592 22.4038 47.3344 22.7775ZM38.6757 25.2037L33.5738 15H27.6075L19.5 22.875C21.8738 24.3918 25.5957 24.81 28.935 21.4443C29.1958 21.1815 29.5446 21.0243 29.9143 21.0032C30.284 20.9821 30.6485 21.0985 30.9375 21.33L37.3894 26.4993L38.6757 25.2037ZM3.5119 21.8287L6.82878 23.4881L11.4882 14.1712L8.17128 12.5118L3.5119 21.8287ZM35.25 28.6237L30.0544 24.4631C26.3906 27.4631 21.7388 27.8587 17.8838 25.4006C17.5046 25.1594 17.1844 24.836 16.9469 24.4545C16.7095 24.0729 16.5608 23.6429 16.5118 23.1961C16.4628 22.7494 16.5149 22.2973 16.6641 21.8734C16.8133 21.4495 17.0558 21.0645 17.3738 20.7468C17.3783 20.7414 17.3833 20.7364 17.3888 20.7318L25.8 12.5737L24 12.06L14.5463 14.7618L9.4144 25.0237L18.6394 31.6143L29.5407 34.3387L35.25 28.6237ZM44.4825 21.8287L39.8288 12.5118L36.5119 14.1712L41.1713 23.4881L44.4825 21.8287Z" fill="white"/>
</svg>
