<svg width="48" height="48" viewBox="0 0 48 48" fill="none" xmlns="http://www.w3.org/2000/svg">
<path d="M12.7501 28.5C11.4151 28.5 10.11 28.8959 9 29.6376C7.88997 30.3793 7.02481 31.4335 6.51391 32.6669C6.00302 33.9003 5.86935 35.2575 6.1298 36.5669C6.39025 37.8762 7.03313 39.079 7.97713 40.023C8.92114 40.967 10.1239 41.6099 11.4332 41.8703C12.7426 42.1308 14.0998 41.9971 15.3332 41.4862C16.5666 40.9753 17.6208 40.1101 18.3625 39.0001C19.1042 37.8901 19.5001 36.585 19.5001 35.25C19.5001 33.4598 18.7889 31.7429 17.5231 30.477C16.2572 29.2112 14.5403 28.5 12.7501 28.5ZM12.7501 39C12.0084 39 11.2834 38.7801 10.6667 38.368C10.05 37.956 9.56938 37.3703 9.28555 36.6851C9.00172 35.9998 8.92746 35.2458 9.07216 34.5184C9.21685 33.791 9.574 33.1228 10.0985 32.5983C10.6229 32.0739 11.2911 31.7167 12.0185 31.5721C12.7459 31.4274 13.4999 31.5016 14.1852 31.7855C14.8704 32.0693 15.4561 32.5499 15.8681 33.1666C16.2802 33.7833 16.5001 34.5083 16.5001 35.25C16.5001 36.2446 16.105 37.1984 15.4018 37.9017C14.6985 38.6049 13.7447 39 12.7501 39ZM6.43885 19.9387L9.12948 17.25L6.43885 14.5613C6.15739 14.2798 5.99927 13.898 5.99927 13.5C5.99927 13.102 6.15739 12.7202 6.43885 12.4388C6.72031 12.1573 7.10206 11.9992 7.5001 11.9992C7.89815 11.9992 8.27989 12.1573 8.56135 12.4387L11.2501 15.1294L13.9389 12.4387C14.2203 12.1573 14.6021 11.9992 15.0001 11.9992C15.3981 11.9992 15.7799 12.1573 16.0614 12.4388C16.3428 12.7202 16.5009 13.102 16.5009 13.5C16.5009 13.898 16.3428 14.2798 16.0614 14.5613L13.3707 17.25L16.0614 19.9387C16.3428 20.2202 16.5009 20.602 16.5009 21C16.5009 21.398 16.3428 21.7798 16.0614 22.0613C15.7799 22.3427 15.3981 22.5008 15.0001 22.5008C14.6021 22.5008 14.2203 22.3427 13.9389 22.0613L11.2501 19.3706L8.56135 22.0613C8.27989 22.3427 7.89815 22.5008 7.5001 22.5008C7.10206 22.5008 6.72031 22.3427 6.43885 22.0612C6.15739 21.7798 5.99927 21.398 5.99927 21C5.99927 20.602 6.15739 20.2202 6.43885 19.9387ZM41.5614 37.9387C41.7007 38.0781 41.8113 38.2436 41.8867 38.4257C41.9621 38.6077 42.0009 38.8029 42.0009 39C42.0009 39.1971 41.9621 39.3923 41.8867 39.5743C41.8113 39.7564 41.7007 39.9219 41.5614 40.0613C41.422 40.2006 41.2565 40.3112 41.0744 40.3866C40.8924 40.462 40.6972 40.5008 40.5001 40.5008C40.303 40.5008 40.1078 40.462 39.9258 40.3866C39.7437 40.3112 39.5782 40.2006 39.4389 40.0613L36.7501 37.3706L34.0614 40.0613C33.7799 40.3427 33.3981 40.5008 33.0001 40.5008C32.6021 40.5008 32.2203 40.3427 31.9389 40.0613C31.6574 39.7798 31.4993 39.398 31.4993 39C31.4993 38.602 31.6574 38.2202 31.9389 37.9387L34.6295 35.25L31.9389 32.5613C31.6574 32.2798 31.4993 31.898 31.4993 31.5C31.4993 31.102 31.6574 30.7202 31.9389 30.4387C32.2203 30.1573 32.6021 29.9992 33.0001 29.9992C33.3981 29.9992 33.7799 30.1573 34.0614 30.4387L36.7501 33.1294L39.4389 30.4387C39.7203 30.1573 40.1021 29.9992 40.5001 29.9992C40.8981 29.9992 41.2799 30.1573 41.5614 30.4387C41.8428 30.7202 42.0009 31.102 42.0009 31.5C42.0009 31.898 41.8428 32.2798 41.5614 32.5613L38.8707 35.25L41.5614 37.9387ZM33.0882 21.1556C31.9295 25.3425 28.3407 28.9612 24.3639 29.955C24.2412 29.9855 24.1152 30.0006 23.9889 30C23.6231 29.9993 23.2702 29.865 22.9965 29.6224C22.7228 29.3797 22.5472 29.0454 22.5027 28.6823C22.4583 28.3193 22.548 27.9525 22.7551 27.6509C22.9621 27.3494 23.2722 27.1339 23.627 27.045C26.5576 26.3119 29.3176 23.4994 30.1895 20.355C30.7876 18.1987 30.7932 14.9175 27.4314 11.5612L27.0001 11.1206V15C27.0001 15.3978 26.8421 15.7794 26.5608 16.0607C26.2795 16.342 25.8979 16.5 25.5001 16.5C25.1023 16.5 24.7207 16.342 24.4394 16.0607C24.1581 15.7794 24.0001 15.3978 24.0001 15V7.5C24.0001 7.10218 24.1581 6.72064 24.4394 6.43934C24.7207 6.15804 25.1023 6 25.5001 6H33.0001C33.3979 6 33.7795 6.15804 34.0608 6.43934C34.3421 6.72064 34.5001 7.10218 34.5001 7.5C34.5001 7.89782 34.3421 8.27936 34.0608 8.56066C33.7795 8.84196 33.3979 9 33.0001 9H29.1207L29.5614 9.43875C32.9814 12.8606 34.2339 17.0213 33.0882 21.1556Z" fill="white"/>
</svg>
