<svg width="36" height="34" viewBox="0 0 36 34" fill="none" xmlns="http://www.w3.org/2000/svg">
<path d="M35.9999 16.9999C35.9999 17.3977 35.8418 17.7792 35.5605 18.0605C35.2792 18.3418 34.8977 18.4999 34.4999 18.4999H17.9999C17.602 18.4999 17.2205 18.3418 16.9392 18.0605C16.6579 17.7792 16.4999 17.3977 16.4999 16.9999C16.4999 16.602 16.6579 16.2205 16.9392 15.9392C17.2205 15.6579 17.602 15.4999 17.9999 15.4999H34.4999C34.8977 15.4999 35.2792 15.6579 35.5605 15.9392C35.8418 16.2205 35.9999 16.602 35.9999 16.9999ZM17.9999 6.49986H34.4999C34.8977 6.49986 35.2792 6.34182 35.5605 6.06052C35.8418 5.77921 35.9999 5.39768 35.9999 4.99986C35.9999 4.60203 35.8418 4.2205 35.5605 3.9392C35.2792 3.65789 34.8977 3.49986 34.4999 3.49986H17.9999C17.602 3.49986 17.2205 3.65789 16.9392 3.9392C16.6579 4.2205 16.4999 4.60203 16.4999 4.99986C16.4999 5.39768 16.6579 5.77921 16.9392 6.06052C17.2205 6.34182 17.602 6.49986 17.9999 6.49986ZM34.4999 27.4999H17.9999C17.602 27.4999 17.2205 27.6579 16.9392 27.9392C16.6579 28.2205 16.4999 28.602 16.4999 28.9999C16.4999 29.3977 16.6579 29.7792 16.9392 30.0605C17.2205 30.3418 17.602 30.4999 17.9999 30.4999H34.4999C34.8977 30.4999 35.2792 30.3418 35.5605 30.0605C35.8418 29.7792 35.9999 29.3977 35.9999 28.9999C35.9999 28.602 35.8418 28.2205 35.5605 27.9392C35.2792 27.6579 34.8977 27.4999 34.4999 27.4999ZM9.43861 0.938607L4.49986 5.87923L2.56111 3.93861C2.27965 3.65715 1.8979 3.49902 1.49986 3.49902C1.10181 3.49902 0.720068 3.65715 0.438607 3.93861C0.157146 4.22007 -0.00097656 4.60181 -0.000976562 4.99986C-0.000976565 5.3979 0.157146 5.77965 0.438607 6.06111L3.43861 9.06111C3.57792 9.20057 3.74335 9.31121 3.92545 9.3867C4.10754 9.46218 4.30273 9.50104 4.49986 9.50104C4.69698 9.50104 4.89217 9.46218 5.07427 9.3867C5.25636 9.31121 5.4218 9.20057 5.56111 9.06111L11.5611 3.06111C11.8426 2.77965 12.0007 2.3979 12.0007 1.99986C12.0007 1.60181 11.8426 1.22007 11.5611 0.938607C11.2796 0.657146 10.8979 0.499023 10.4999 0.499023C10.1018 0.499023 9.72007 0.657146 9.43861 0.938607ZM9.43861 12.9386L4.49986 17.8792L2.56111 15.9386C2.27965 15.6571 1.8979 15.499 1.49986 15.499C1.10181 15.499 0.720068 15.6571 0.438607 15.9386C0.157146 16.2201 -0.000976562 16.6018 -0.000976562 16.9999C-0.000976562 17.1969 0.0378437 17.3921 0.113268 17.5742C0.188692 17.7563 0.299242 17.9217 0.438607 18.0611L3.43861 21.0611C3.57792 21.2006 3.74335 21.3112 3.92545 21.3867C4.10754 21.4622 4.30273 21.501 4.49986 21.501C4.69698 21.501 4.89217 21.4622 5.07427 21.3867C5.25636 21.3112 5.4218 21.2006 5.56111 21.0611L11.5611 15.0611C11.8426 14.7796 12.0007 14.3979 12.0007 13.9999C12.0007 13.6018 11.8426 13.2201 11.5611 12.9386C11.2796 12.6571 10.8979 12.499 10.4999 12.499C10.1018 12.499 9.72007 12.6571 9.43861 12.9386ZM9.43861 24.9386L4.49986 29.8792L2.56111 27.9386C2.42174 27.7992 2.25629 27.6887 2.0742 27.6133C1.89211 27.5378 1.69695 27.499 1.49986 27.499C1.30277 27.499 1.1076 27.5378 0.925513 27.6133C0.743423 27.6887 0.577973 27.7992 0.438607 27.9386C0.299242 28.078 0.188692 28.2434 0.113268 28.4255C0.0378437 28.6076 -0.000976562 28.8028 -0.000976562 28.9999C-0.000976562 29.197 0.0378437 29.3921 0.113268 29.5742C0.188692 29.7563 0.299242 29.9217 0.438607 30.0611L3.43861 33.0611C3.57792 33.2006 3.74335 33.3112 3.92545 33.3867C4.10754 33.4622 4.30273 33.501 4.49986 33.501C4.69698 33.501 4.89217 33.4622 5.07427 33.3867C5.25636 33.3112 5.4218 33.2006 5.56111 33.0611L11.5611 27.0611C11.8426 26.7796 12.0007 26.3979 12.0007 25.9999C12.0007 25.6018 11.8426 25.2201 11.5611 24.9386C11.2796 24.6571 10.8979 24.499 10.4999 24.499C10.1018 24.499 9.72007 24.6571 9.43861 24.9386Z" fill="white"/>
</svg>
