<svg width="40" height="38" viewBox="0 0 40 38" fill="none" xmlns="http://www.w3.org/2000/svg">
<path d="M36.5 9H30.5V3C30.5 2.20435 30.1839 1.44129 29.6213 0.87868C29.0587 0.31607 28.2956 0 27.5 0H3.5C2.70435 0 1.94129 0.31607 1.37868 0.87868C0.81607 1.44129 0.5 2.20435 0.5 3V27C0.500881 27.2822 0.581351 27.5584 0.732166 27.797C0.882982 28.0355 1.09802 28.2266 1.35259 28.3484C1.60715 28.4702 1.89091 28.5177 2.17127 28.4855C2.45163 28.4533 2.71721 28.3426 2.9375 28.1663L9.5 22.875V28.5C9.5 29.2956 9.81607 30.0587 10.3787 30.6213C10.9413 31.1839 11.7044 31.5 12.5 31.5H30.0481L37.0625 37.1663C37.3279 37.3809 37.6586 37.4987 38 37.5C38.3978 37.5 38.7794 37.342 39.0607 37.0607C39.342 36.7794 39.5 36.3978 39.5 36V12C39.5 11.2044 39.1839 10.4413 38.6213 9.87868C38.0587 9.31607 37.2956 9 36.5 9ZM8.47813 19.8337L3.5 23.8594V3H27.5V19.5H9.42125C9.07795 19.5 8.74504 19.6179 8.47813 19.8337ZM36.5 32.8594L31.5219 28.8337C31.2565 28.6191 30.9257 28.5013 30.5844 28.5H12.5V22.5H27.5C28.2956 22.5 29.0587 22.1839 29.6213 21.6213C30.1839 21.0587 30.5 20.2956 30.5 19.5V12H36.5V32.8594Z" fill="white"/>
</svg>
