<svg width="48" height="48" viewBox="0 0 48 48" fill="none" xmlns="http://www.w3.org/2000/svg">
<path d="M29.7563 30.6563L25.4063 42.6188C25.2998 42.9059 25.1079 43.1535 24.8565 43.3283C24.6052 43.5032 24.3063 43.5969 24.0001 43.5969C23.6939 43.5969 23.395 43.5032 23.1436 43.3283C22.8923 43.1535 22.7004 42.9059 22.5938 42.6188L18.2438 30.6563C18.1679 30.4501 18.0481 30.2629 17.8927 30.1075C17.7373 29.9521 17.55 29.8323 17.3438 29.7563L5.38134 25.4063C5.09428 25.2998 4.8467 25.1079 4.67186 24.8565C4.49703 24.6052 4.40332 24.3063 4.40332 24.0001C4.40332 23.6939 4.49703 23.395 4.67186 23.1436C4.8467 22.8923 5.09428 22.7004 5.38134 22.5938L17.3438 18.2438C17.55 18.1679 17.7373 18.0481 17.8927 17.8927C18.0481 17.7373 18.1679 17.55 18.2438 17.3438L22.5938 5.38134C22.7004 5.09428 22.8923 4.8467 23.1436 4.67186C23.395 4.49703 23.6939 4.40332 24.0001 4.40332C24.3063 4.40332 24.6052 4.49703 24.8565 4.67186C25.1079 4.8467 25.2998 5.09428 25.4063 5.38134L29.7563 17.3438C29.8323 17.55 29.9521 17.7373 30.1075 17.8927C30.2629 18.0481 30.4501 18.1679 30.6563 18.2438L42.6188 22.5938C42.9059 22.7004 43.1535 22.8923 43.3283 23.1436C43.5032 23.395 43.5969 23.6939 43.5969 24.0001C43.5969 24.3063 43.5032 24.6052 43.3283 24.8565C43.1535 25.1079 42.9059 25.2998 42.6188 25.4063L30.6563 29.7563C30.4501 29.8323 30.2629 29.9521 30.1075 30.1075C29.9521 30.2629 29.8323 30.4501 29.7563 30.6563V30.6563Z" stroke="white" stroke-width="3" stroke-linecap="round" stroke-linejoin="round"/>
</svg>
