<svg width="48" height="32" viewBox="0 0 48 32" fill="none" xmlns="http://www.w3.org/2000/svg">
<path d="M21.9842 21.6102C23.9946 20.2718 25.5209 18.3219 26.3374 16.049C27.1539 13.7761 27.2173 11.3007 26.5182 8.98899C25.8191 6.67725 24.3945 4.65187 22.4553 3.21235C20.516 1.77283 18.165 0.995605 15.7498 0.995605C13.3347 0.995605 10.9837 1.77283 9.04442 3.21235C7.10517 4.65187 5.68065 6.67725 4.98152 8.98899C4.28239 11.3007 4.34577 13.7761 5.16228 16.049C5.9788 18.3219 7.50509 20.2718 9.51547 21.6102C5.8789 22.9505 2.77317 25.4307 0.661724 28.6808C0.550753 28.8457 0.473673 29.0311 0.434964 29.2261C0.396254 29.421 0.396688 29.6218 0.436239 29.8166C0.47579 30.0114 0.55367 30.1964 0.665351 30.3609C0.777033 30.5253 0.920289 30.6659 1.08679 30.7745C1.25329 30.8831 1.43972 30.9575 1.63524 30.9935C1.83076 31.0294 2.03146 31.0261 2.22569 30.9837C2.41992 30.9414 2.6038 30.8609 2.76663 30.7469C2.92947 30.6328 3.06802 30.4876 3.17422 30.3195C4.5362 28.2248 6.39989 26.5034 8.59604 25.3118C10.7922 24.1201 13.2512 23.496 15.7498 23.496C18.2485 23.496 20.7075 24.1201 22.9037 25.3118C25.0998 26.5034 26.9635 28.2248 28.3255 30.3195C28.5455 30.6465 28.8853 30.8738 29.2716 30.9522C29.6578 31.0306 30.0594 30.9539 30.3895 30.7386C30.7196 30.5233 30.9517 30.1867 31.0356 29.8016C31.1195 29.4166 31.0485 29.0139 30.838 28.6808C28.7265 25.4307 25.6208 22.9505 21.9842 21.6102ZM7.49985 12.2502C7.49985 10.6185 7.9837 9.02342 8.89022 7.66672C9.79675 6.31001 11.0852 5.25259 12.5927 4.62816C14.1002 4.00374 15.759 3.84036 17.3593 4.15869C18.9597 4.47702 20.4297 5.26276 21.5835 6.41654C22.7373 7.57032 23.523 9.04033 23.8413 10.6407C24.1597 12.241 23.9963 13.8998 23.3719 15.4073C22.7474 16.9148 21.69 18.2033 20.3333 19.1098C18.9766 20.0163 17.3815 20.5002 15.7498 20.5002C13.5626 20.4977 11.4656 19.6277 9.91896 18.0811C8.37232 16.5344 7.50233 14.4374 7.49985 12.2502ZM46.9011 30.7564C46.5679 30.9737 46.1621 31.0497 45.7728 30.9678C45.3836 30.8859 45.0428 30.6527 44.8255 30.3195C43.4651 28.2235 41.6017 26.5014 39.4051 25.3102C37.2085 24.1191 34.7486 23.4968 32.2499 23.5002C31.852 23.5002 31.4705 23.3421 31.1892 23.0608C30.9079 22.7795 30.7499 22.398 30.7499 22.0002C30.7499 21.6023 30.9079 21.2208 31.1892 20.9395C31.4705 20.6582 31.852 20.5002 32.2499 20.5002C33.4648 20.499 34.6645 20.2296 35.7632 19.711C36.8619 19.1925 37.8326 18.4377 38.6058 17.5005C39.379 16.5633 39.9356 15.467 40.236 14.2898C40.5363 13.1125 40.573 11.8835 40.3433 10.6904C40.1136 9.49742 39.6232 8.36984 38.9072 7.38829C38.1913 6.40674 37.2673 5.59544 36.2014 5.01236C35.1355 4.42928 33.954 4.08882 32.7413 4.01529C31.5286 3.94177 30.3146 4.137 29.1861 4.58704C29.0021 4.66659 28.804 4.70844 28.6036 4.71014C28.4031 4.71183 28.2044 4.67333 28.019 4.59691C27.8337 4.52049 27.6656 4.4077 27.5246 4.2652C27.3836 4.12271 27.2726 3.9534 27.1982 3.76728C27.1237 3.58116 27.0873 3.382 27.0912 3.18158C27.095 2.98116 27.1389 2.78354 27.2204 2.60039C27.3019 2.41725 27.4193 2.25229 27.5656 2.11528C27.712 1.97826 27.8843 1.87197 28.0724 1.80267C30.6551 0.772641 33.5278 0.735574 36.1362 1.69862C38.7447 2.66167 40.9041 4.55659 42.1978 7.01783C43.4916 9.47906 43.8281 12.3322 43.1423 15.0269C42.4565 17.7216 40.7971 20.0668 38.4842 21.6102C42.1208 22.9505 45.2265 25.4307 47.338 28.6808C47.5552 29.014 47.6313 29.4198 47.5494 29.8091C47.4674 30.1983 47.2342 30.5391 46.9011 30.7564Z" fill="white"/>
</svg>
