<svg width="1196" height="447" viewBox="0 0 1196 447" fill="none" xmlns="http://www.w3.org/2000/svg">
<path opacity="0.166667" d="M724.592 63.1786C730.509 59.8991 736.657 55.8333 743.149 51.5982C767.058 35.9703 793.778 15.0863 818.468 6.21249C837.548 -0.565205 855.456 0.35602 869.898 17.6218C880.548 30.3433 889.144 39.1446 895.306 46.6145C910.36 64.8338 913.204 70.351 925.715 82.0626C931.146 87.1919 937.032 91.8003 943.301 95.8336C950.164 100.201 957.446 104.147 964.751 107.788C980.845 115.854 997.995 120.912 1015.58 116.667C1045.61 109.477 1078.81 103.509 1108.68 108.173C1115.6 109.093 1122.41 110.635 1129.03 112.781C1153.89 120.725 1174.44 139.773 1186.4 173.071C1189.7 182.333 1191.98 191.006 1192.81 199.434C1194.04 211.246 1192.01 223.3 1186.95 234.245C1160.22 293.545 1071.49 347.35 894.51 388.148C891.504 388.865 888.498 389.398 885.52 390.107C879.761 391.614 873.753 391.254 868.342 389.08C863.321 387.089 858.609 383.914 853.759 380.734C848.209 376.733 842.351 373.044 835.578 371.365C830.83 370.182 826.19 372.224 821.509 373.384C808.351 380.896 795.16 390.374 781.793 399.507C776.725 402.612 771.466 405.366 766.056 407.748C759.036 410.743 751.719 412.868 744.266 414.078C740.97 414.627 737.653 415.374 734.325 415.978C727.953 417.119 721.504 418.191 714.947 419.065C710.889 419.591 706.8 420.051 702.679 420.566C675.434 423.639 647.556 426.225 619.045 428.322C611.105 428.888 603.174 429.398 595.38 429.731C578.085 430.451 562.159 426.32 546.759 420.14C542.953 418.605 539.137 416.965 535.45 415.143C534.188 414.525 532.969 413.833 531.694 413.257C525.461 410.442 519.771 406.564 514.858 401.783C508.439 395.551 502.748 388.463 494.755 382.721C490.423 380.752 485.738 379.64 480.941 379.442C479.225 379.262 477.486 379.3 475.762 379.554C434.61 386.71 398.497 403.545 354.051 413.054C348.148 414.319 342.15 415.381 336.072 416.36C329.993 417.339 323.544 418.067 317.183 418.6C310.822 419.134 304.284 420.056 297.928 421.108C272.347 425.371 247.506 433.593 221.434 441.264C203.308 446.594 185.822 445.61 170.09 437.202C163.043 433.439 156.212 429.483 149.53 425.331C144.832 422.619 140.233 419.878 135.683 417.153C126.344 411.528 117.296 405.826 108.072 400.488C91.2687 390.787 74.9753 380.018 58.178 369.229C53.1025 365.992 48.4115 362.597 43.969 359.198C18.496 339.746 3.94552 317.242 2.28553 293.928C1.7899 281.072 6.01829 268.344 14.4294 255.848C26.3943 238.07 47.2902 221.464 74.4313 204.158C81.3045 199.75 88.4528 195.232 95.8865 190.057C99.0481 187.872 102.143 185.539 105.323 183.303C114.303 176.973 123.603 170.84 133.115 165.012C149.7 154.856 166.896 146.242 184.812 140.485C202.648 134.588 221.241 131.91 239.738 132.574C274.934 134.108 300.816 159.781 334.125 167.288C340.033 168.615 345.959 170.074 351.885 170.822C356.906 171.52 362.016 171.588 367.101 171.023C380.184 169.445 392.781 164.473 403.685 156.581C439.139 131.42 463.831 89.8298 508.931 89.5514C523.624 89.9854 538.379 88.9291 552.98 86.3981C564.083 84.5797 573.264 82.4734 582.619 81.7922C607.512 80.0016 632.11 78.7967 656.413 78.1777C662.476 77.9988 668.492 77.8792 674.576 77.5411C685.469 76.8896 696.281 74.7191 706.711 71.09C712.86 68.9649 718.842 66.3184 724.592 63.1786V63.1786Z" stroke="#6A6A6F" stroke-width="4.33333" stroke-miterlimit="10" stroke-dasharray="9 1"/>
<path opacity="0.333333" d="M709.392 75.5071C715.355 72.757 721.515 69.4218 727.97 66.0236C752.178 53.2908 778.229 34.8044 802.432 25.3309C820.696 18.1798 837.982 17.0495 852.542 29.1344C863.277 38.0302 872.708 43.2304 879.675 48.9818C894.784 61.5184 898.409 67.3274 910.836 80.1801C915.954 85.4668 921.495 90.3066 927.408 94.6527C933.715 99.3119 940.467 103.505 947.144 107.605C961.861 116.654 977.722 122.807 994.356 120.957C1022.88 117.731 1054.87 114.199 1083.93 119.413C1090.64 120.346 1097.27 121.776 1103.75 123.692C1128.68 130.73 1148.89 149.599 1160.21 180.893C1163.22 189.2 1165.31 197.017 1165.98 204.742C1167.01 215.436 1165.13 226.325 1160.55 236.222C1136.26 290.113 1054.15 338.958 896.498 377.045C893.58 377.751 890.631 378.329 887.735 379.037C882.206 380.546 876.421 380.293 871.168 378.313C866.298 376.446 861.769 373.402 857.162 370.227C852.01 366.026 846.537 362.216 840.32 360.246C835.844 358.814 831.422 360.075 826.962 360.811C814.186 366.237 801.318 374.872 789.012 385.316C784.306 388.515 779.43 391.432 774.408 394.053C767.936 397.382 761.14 399.951 754.152 401.709C751.061 402.512 747.966 403.423 744.808 404.2C738.813 405.644 732.642 406.986 726.303 407.949C722.442 408.541 718.469 408.982 714.533 409.481C688.346 412.699 661.52 415.413 634.054 417.624C626.427 418.236 618.819 418.798 611.283 419.192C594.748 420.057 579.238 417.014 564.152 412.302C560.405 411.132 556.685 409.855 553.029 408.467C551.788 407.996 550.57 407.464 549.318 407.011C543.256 404.882 537.553 401.871 532.382 398.067C525.748 393.182 519.686 387.549 511.853 382.83C507.654 380.859 502.203 380.263 498.572 379.565C497.026 379.205 495.443 379.006 493.847 378.971C456.278 378.924 422.246 386.12 379.17 394.74C373.521 395.869 367.752 396.941 361.867 398.093C355.682 399.317 349.466 400.352 343.193 401.242C336.919 402.133 330.466 403.374 324.172 404.706C298.769 410.102 274.1 418.718 248.346 426.327C230.289 431.575 212.869 431.536 196.713 424.98C189.504 422.044 182.413 418.906 175.431 415.476L161.056 409.532C151.368 405.508 141.949 401.382 132.334 397.78C114.21 390.995 97.6 381.222 81.491 370.033C76.7836 366.72 72.2573 363.154 67.9304 359.346C44.7496 339.316 31.3547 315.604 28.944 292.31C28.5098 280.262 32.3746 268.428 40.1475 256.753C51.2212 240.153 70.5288 224.468 95.7777 208.388C102.151 204.318 108.832 200.142 115.811 195.428C118.759 193.452 121.695 191.333 124.693 189.311C133.109 183.612 141.881 178.13 150.845 172.783C166.508 163.432 182.574 155.821 199.326 151.023C216.054 146.122 233.359 144.092 250.524 145.018C283.559 146.923 309.098 169.026 340.634 174.97C346.169 176.008 351.815 177.403 357.442 178.04C362.158 178.708 366.977 178.592 371.716 177.697C383.836 175.157 395.391 170.043 405.623 162.691C439.104 138.855 464.077 102.406 505.749 100.039C519.591 99.6645 533.425 98.1885 547.126 95.6239C557.439 93.8525 566.254 91.9522 575.18 91.2435C598.565 89.3425 621.814 88.1847 644.766 87.6031C650.467 87.4609 656.157 87.337 661.895 87.0692C672.137 86.5822 682.334 84.8762 692.279 81.9858C698.11 80.236 703.829 78.071 709.392 75.5071V75.5071Z" stroke="#6A6A6F" stroke-width="3.66667" stroke-miterlimit="10" stroke-dasharray="8 2"/>
<path opacity="0.5" d="M694.171 87.8729C700.208 85.7053 706.344 83.0426 712.77 80.4863C737.351 70.6424 762.663 54.6354 786.344 44.4805C803.81 37.0039 820.455 33.7743 835.146 40.6742C844.449 45.0407 854.114 48.611 864.044 51.3497C876.786 61.1587 883.583 64.2371 895.914 78.3339C900.738 83.775 905.929 88.8617 911.452 93.5591C917.214 98.4922 923.446 102.936 929.466 107.503C942.866 117.594 957.387 124.85 973.069 125.32C1000.09 126.134 1030.91 124.907 1059.1 130.73C1065.59 131.661 1072 132.972 1078.32 134.655C1103.3 140.837 1123.17 159.447 1133.86 188.797C1136.52 195.607 1138.25 202.791 1138.99 210.151C1139.81 219.725 1138.07 229.446 1133.97 238.291C1112.14 286.769 1036.67 330.877 898.331 366.048C895.499 366.768 892.622 367.363 889.801 368.064C884.504 369.528 878.959 369.324 873.902 367.482C869.196 365.758 864.844 362.853 860.45 359.715C855.738 355.241 850.65 351.396 844.962 349.117C840.741 347.428 836.542 347.935 832.3 348.233C819.915 351.58 807.379 359.376 796.103 371.126C791.671 374.454 787.203 377.601 782.609 380.418C776.673 384.08 770.394 387.094 763.88 389.41C760.953 390.417 758.095 391.527 755.081 392.46C749.313 394.36 743.435 395.844 737.492 396.898C733.748 397.532 729.97 398 726.181 398.51C701.095 401.894 675.274 404.682 648.86 407.054C641.545 407.736 634.248 408.306 626.973 408.778C611.145 409.781 596.133 407.846 581.297 404.59C577.637 403.777 573.974 402.889 570.352 401.95C569.128 401.611 567.916 401.231 566.7 400.921C560.771 399.444 555.048 397.287 549.637 394.491C542.807 390.94 536.326 386.806 528.609 383.025C524.568 381.268 518.923 380.928 515.872 379.792C514.481 379.254 513.051 378.817 511.593 378.486C477.556 371.307 445.77 368.762 404.031 376.548C398.631 377.551 393.091 378.632 387.403 379.971C381.262 381.405 375.121 382.777 368.943 384.029C362.765 385.282 356.386 386.823 350.175 388.437C324.993 395.015 300.423 404.007 274.929 411.471C257.264 416.65 239.876 417.489 223.359 412.858C215.949 410.8 208.643 408.421 201.352 405.708C196.33 404.39 191.352 403.159 186.401 401.981C176.369 399.549 166.523 397.077 156.552 395.147C137.055 391.37 120.177 382.509 104.709 370.819C100.176 367.301 95.8746 363.486 91.8303 359.398C70.9767 338.934 58.7904 313.92 55.6183 290.665C55.2332 279.406 58.7521 268.475 65.8495 257.686C75.9635 242.2 93.7443 227.534 117.129 212.61C123.033 208.845 129.243 204.998 135.692 200.775C138.46 198.989 141.212 197.107 144.033 195.29C151.882 190.207 160.129 185.391 168.545 180.526C183.274 172.02 198.225 165.385 213.784 161.516C229.39 157.639 245.401 156.276 261.23 157.479C292.067 159.819 317.313 178.343 347.083 182.654C352.237 183.398 357.622 184.717 362.939 185.261C367.375 185.861 371.919 185.531 376.297 184.29C387.395 180.799 397.938 175.519 407.518 168.654C439.037 146.163 464.283 114.85 502.537 110.398C517.448 109.196 529.873 106.793 541.252 104.741C550.779 103.031 559.199 101.369 567.735 100.582C589.624 98.5902 611.453 97.4339 633.113 96.9159C638.469 96.7827 643.808 96.6771 649.201 96.4796C658.803 96.1505 668.389 94.9065 677.833 92.764C683.357 91.463 688.812 89.8297 694.171 87.8729V87.8729Z" stroke="#6A6A6F" stroke-width="3" stroke-miterlimit="10" stroke-dasharray="7 3"/>
<path opacity="0.666667" d="M678.995 100.179C685.117 98.5755 691.27 96.6342 697.612 94.875C722.622 87.9647 747.145 74.4209 770.333 63.5765C787.006 55.7887 803.02 50.4414 817.819 52.1553C827.968 53.2045 838.182 53.7275 848.422 53.7224C860.587 58.8818 868.793 61.1056 881.066 76.4199C885.608 82.0154 890.454 87.3431 895.582 92.3794C900.795 97.5721 906.49 102.356 911.887 107.312C923.949 118.482 937.142 126.798 951.875 129.602C977.419 134.465 1007.07 135.583 1034.37 141.985C1040.76 142.757 1046.89 144.31 1053.03 145.561C1078.13 150.854 1097.58 169.249 1107.69 196.567C1110.08 202.551 1111.6 208.889 1112.2 215.385C1112.8 223.842 1111.21 232.396 1107.6 240.198C1088.21 283.268 1019.45 322.848 900.325 354.875C897.556 355.606 894.774 356.219 892.027 356.914C886.245 358.396 881.314 358.32 876.714 356.658C872.114 354.995 867.982 352.278 863.808 349.206C859.817 344.614 855.03 340.817 849.673 337.992C845.716 336.027 841.743 335.756 837.715 335.662C825.719 336.916 813.514 343.874 803.253 356.933C799.186 360.361 795.109 363.684 790.908 366.753C785.502 370.742 779.748 374.197 773.727 377.068C771.051 378.331 768.352 379.593 765.558 380.714C760.16 382.958 754.581 384.666 748.901 385.813C745.304 386.496 741.678 386.966 738.052 387.497C713.995 391.07 689.199 394.033 663.818 396.547C656.829 397.233 649.816 397.881 642.798 398.415C628.018 399.403 613.235 398.91 598.661 396.944C595.069 396.501 591.477 395.998 587.918 395.438C586.715 395.247 585.513 395.031 584.305 394.849C578.472 394.001 572.729 392.694 567.125 390.939C560.116 388.695 553.236 386.023 545.647 383.259C541.754 381.711 535.929 381.622 533.427 380.043C532.134 379.296 530.876 378.57 529.603 378.031C498.772 363.714 469.332 351.438 428.996 358.317C423.634 359.203 418.308 360.365 413.04 361.797C406.949 363.468 400.879 365.163 394.803 366.768C388.726 368.374 382.413 370.247 376.278 372.138C351.286 379.868 326.856 389.247 301.655 396.611C284.212 401.71 266.893 403.447 250.006 400.736C242.419 399.532 234.867 397.944 227.288 395.935C222.091 395.325 216.93 394.859 211.798 394.422C201.422 393.558 191.149 392.802 180.824 392.482C159.93 391.836 142.821 383.76 128.027 371.614C123.641 367.935 119.535 363.925 115.74 359.615C97.0781 338.748 86.18 312.356 82.2625 289.112C81.914 278.684 85.0816 268.666 91.5161 258.72C100.76 244.436 116.921 230.688 138.435 216.952C143.87 213.492 149.634 209.928 155.638 206.233C158.203 204.635 160.78 202.996 163.424 201.383C170.692 196.922 178.427 192.767 186.291 188.392C200.105 180.719 213.927 175.063 228.281 172.166C242.749 169.301 257.468 168.59 271.973 170.058C300.636 172.811 325.594 187.772 353.563 190.467C358.353 190.927 363.437 192.158 368.467 192.609C372.717 192.99 376.923 192.795 380.896 191.054C390.917 186.671 400.492 181.222 409.458 174.802C439.041 153.694 464.534 127.478 499.352 120.933C512.635 118.852 524.313 116.14 535.414 114.039C544.17 112.385 552.205 110.942 560.327 110.101C580.703 108.008 601.144 106.859 621.494 106.394C626.508 106.285 631.505 106.202 636.544 106.07C645.527 105.901 654.512 105.115 663.438 103.718C668.752 102.764 673.943 101.493 678.995 100.179Z" stroke="#6A6A6F" stroke-width="2.33333" stroke-miterlimit="10" stroke-dasharray="6 4"/>
<path opacity="0.833333" d="M663.795 112.509C669.993 111.526 676.162 110.268 682.432 109.302C707.916 105.412 731.635 94.2362 754.298 82.6962C770.171 74.6064 785.563 67.1463 800.476 63.6651C811.475 61.1123 821.946 56.9547 832.808 56.1012C844.425 55.1805 854.094 57.979 866.178 74.5335C870.424 80.345 875.075 85.8014 879.681 91.2324C884.288 96.6634 889.531 101.763 894.256 107.152C905.023 119.426 916.879 128.798 930.642 133.911C954.69 142.89 983.1 146.244 1009.6 153.254C1015.78 153.98 1021.74 155.454 1027.68 156.481C1052.86 160.839 1071.89 179.075 1081.44 204.392C1083.55 209.563 1084.86 215.065 1085.33 220.706C1085.72 228.041 1084.28 235.428 1081.14 242.178C1064.21 279.836 1002.19 315.116 902.261 343.78C899.592 344.544 896.869 345.155 894.191 345.852C888.648 347.325 883.924 347.381 879.459 345.931C874.982 344.265 870.823 341.864 867.142 338.82C863.599 334.131 859.271 330.13 854.346 326.993C850.922 324.95 847.097 323.664 843.108 323.215C831.494 322.383 819.612 328.498 810.38 342.862C806.675 346.414 802.971 349.904 799.176 353.206C794.287 357.533 789.054 361.43 783.537 364.853C781.077 366.351 778.565 367.795 775.966 369.066C770.947 371.672 765.647 373.628 760.196 374.885C756.762 375.612 753.296 376.089 749.802 376.634C726.865 380.278 703.144 383.31 678.816 385.93C672.138 386.66 665.433 387.343 658.701 387.977C644.478 389.202 630.23 389.61 616.024 389.2C612.519 389.122 609.001 389.012 605.47 388.871L601.907 388.702C595.92 388.446 590.199 388.074 584.615 387.303C577.226 386.39 569.9 385.095 562.667 383.424C558.933 382.089 552.923 382.237 551.015 380.24C549.879 379.302 548.755 378.384 547.637 377.517C519.951 355.965 493.044 334.14 454.073 340.078C448.913 340.848 443.804 342.028 438.793 343.605C432.747 345.523 426.751 347.518 420.77 349.485C414.79 351.453 408.544 353.635 402.493 355.807C377.701 364.695 353.397 374.466 328.478 381.747C311.271 386.762 293.997 389.395 276.653 388.615C268.792 388.245 260.975 387.417 253.24 386.135C247.874 386.225 242.497 386.456 237.196 386.842C226.48 387.522 215.792 388.562 205.101 389.809C182.838 392.407 165.459 385.022 151.342 372.395C147.099 368.537 143.204 364.298 139.7 359.726C123.164 338.529 113.623 310.702 108.949 287.487C108.639 277.866 111.482 268.716 117.231 259.673C125.587 246.52 140.159 233.755 159.788 221.212C164.759 218.048 170.034 214.864 175.583 211.593C177.962 210.195 180.365 208.774 182.827 207.375C189.54 203.55 196.739 200.041 204.04 196.151C216.922 189.301 229.634 184.635 242.813 182.654C256.14 180.808 269.581 180.754 282.787 182.495C309.271 185.67 333.972 197.073 360.12 198.129C364.541 198.314 369.338 199.453 374.072 199.807C378.015 200.109 381.936 199.798 385.558 197.67C394.212 192.574 402.821 187.01 411.452 180.797C439.043 161.005 464.839 139.955 496.238 131.325C507.865 128.375 518.814 125.339 529.653 123.185C537.587 121.634 545.264 120.364 552.923 119.452C571.78 117.266 590.836 116.14 609.886 115.733C614.542 115.634 619.208 115.556 623.885 115.501C632.305 115.384 640.733 115.271 649.072 114.543C654.034 114.035 658.956 113.271 663.795 112.509Z" stroke="#6A6A6F" stroke-width="1.66667" stroke-miterlimit="10" stroke-dasharray="5 5"/>
<path d="M1058.45 226.007C1059.93 264.513 1000.09 302.979 904.19 332.678C901.609 333.514 898.992 334.213 896.351 334.775C891.745 336.416 886.802 336.528 882.245 335.092C877.914 333.573 873.923 331.244 870.47 328.22C855.272 305.355 831.516 301.843 817.477 328.577C814.129 332.224 810.815 335.89 807.419 339.436C797.221 350.029 786.336 359.577 771.448 363.747C768.157 364.381 764.852 364.991 761.535 365.577C718.121 372.85 671.508 378.595 622.874 382.253C615.93 382.781 608.938 383.269 601.936 383.654C594.578 383.943 586.862 384.345 579.537 383.561C575.952 382.436 569.759 382.821 568.447 380.421C539.803 346.996 512.217 308.469 464.377 325.4C401.883 348.329 344.713 380.954 279.13 376.298C273.604 377.093 268.075 378.095 262.546 379.22C251.492 381.483 240.404 384.291 229.325 387.104C167.72 402.379 146.39 331.986 135.583 285.831C135.326 277.012 137.839 268.738 142.882 260.613C153.029 244.276 173.444 228.299 202.153 213.357C208.309 210.158 214.825 207 221.7 203.881C232.741 197.738 244.864 194.071 257.23 193.136C269.205 192.103 281.299 193.077 293.448 194.892C317.743 198.507 342.249 205.432 366.504 205.763C373.945 205.288 382.827 209.754 390.075 204.251C432.314 171.32 474.751 143.408 523.72 132.304C530.918 130.917 538.169 129.748 545.474 128.799C574.667 124.965 604.663 124.392 634.595 125.314C639.257 125.136 643.912 124.963 648.561 124.793C654.832 124.355 661.023 124.054 667.22 123.683C723.914 123.599 766.23 77.8365 817.135 58.4197C828.161 54.2148 839.371 54.7512 851.249 72.5971C855.216 78.5665 859.544 84.2777 863.735 90.021C867.927 95.7643 872.185 101.411 876.591 106.947C900.577 145.555 944.586 152.569 984.771 164.5C990.748 165.179 996.605 166.353 1002.3 167.383C1027.78 169.588 1047.15 188.497 1055.15 212.209C1057.11 216.519 1058.22 221.201 1058.45 226.007V226.007Z" stroke="#6A6A6F" stroke-miterlimit="10" stroke-dasharray="4 6"/>
<path d="M654.485 132.555C660.012 132.165 665.703 131.796 671.499 131.672C689.699 131.263 707.772 127.099 724.633 119.428C752.193 106.902 779.062 88.1391 809.102 78.0015C819.307 74.5487 829.572 75.1773 840.73 89.9833C844.534 95.0367 848.751 99.8014 852.806 104.644C856.86 109.487 861.229 114.008 865.187 118.917C890.258 150.058 928.512 158.041 964.901 169.252C970.325 170.017 975.522 171.398 980.753 172.272C996.615 174.739 1010.73 183.328 1020.23 196.293C1023.87 201.542 1026.69 207.347 1028.61 213.516C1030.28 217.713 1030.73 222.35 1029.93 226.897C1027.56 240.81 1014.79 251.804 994.86 268.626C968.105 291.194 930.145 314.725 878.18 330.856C875.825 331.582 873.427 332.16 871.078 332.815C866.284 334.13 862.158 334.409 858.287 333.413C854.374 332.27 850.713 330.43 847.467 327.975C844.977 324.785 842.098 321.936 838.897 319.495C825.472 309.366 809.218 310.944 798.349 329.343C795.205 332.432 792.086 335.537 788.871 338.586C779.31 347.549 769.268 356.124 755.679 359.18C752.705 359.842 749.694 360.262 746.673 360.761C727.242 363.94 707.097 366.547 686.462 368.846C672.268 370.404 657.856 371.772 643.226 372.947C635.764 373.545 628.269 374.045 620.74 374.448C614.44 374.796 608.099 375.133 601.758 375.286C594.978 375.605 588.203 375.431 581.484 374.764C578.221 373.751 572.765 373.998 571.412 371.892C544.506 343.077 518.673 309.964 475.756 322.797C417.622 340.187 363.597 368.054 302.699 365.282C297.56 366.055 292.397 366.973 287.247 368.01C276.924 370.083 266.584 372.611 256.26 375.112C244.628 377.888 234.424 377.601 225.402 375.127C212.41 371.562 201.922 362.969 193.39 351.74C188.692 345.502 184.577 338.816 181.098 331.766C173.493 317.246 168.421 300.755 164.33 286.731C163.183 281.14 163.881 275.248 166.317 269.962C167.859 266.628 169.837 263.511 172.193 260.699C173.603 258.977 175.122 257.351 176.739 255.831C184.354 248.737 194.179 242.305 205.725 235.777C209.066 233.892 212.525 231.964 216.156 230.063C221.416 227.312 227.244 224.41 232.251 220.899C234.246 219.476 236.328 218.103 238.445 216.713C244.644 212.64 251.395 208.91 258.299 204.876C270.515 197.716 282.711 192.887 295.438 190.755C308.331 188.692 321.372 188.447 334.193 190.026C352.103 192.102 370.085 196.512 388.017 198.084C391.969 198.517 395.95 198.723 399.941 198.702C406.67 198.528 414.615 202.036 421.134 197.448C459.72 170.195 498.148 146.26 542.259 138.004C548.711 136.824 555.253 135.978 561.81 135.226C588.097 132.241 614.98 132.814 641.862 132.943C646.146 132.878 650.328 132.644 654.485 132.555Z" stroke="#6A6A6F" stroke-width="1.33333" stroke-miterlimit="10" stroke-dasharray="5 5"/>
<path d="M660.375 140.272C665.153 139.941 670.34 139.673 675.736 139.612C692.972 139.422 710.162 135.919 723.863 130.29C747.989 120.38 773.001 105.524 801.066 97.5081C810.476 94.8226 819.812 95.5159 830.199 107.289C833.849 111.432 837.946 115.245 841.869 119.177C845.792 123.11 849.929 126.774 853.766 130.816C877.751 156.056 912.414 163.451 944.994 173.946C949.838 174.781 954.499 176.135 959.177 177.094C973.357 179.85 985.944 187.659 994.733 199.156C997.974 203.93 1000.42 209.239 1001.97 214.876C1002.72 216.94 1003.06 219.151 1002.97 221.382C1002.87 223.613 1002.35 225.82 1001.42 227.876C996.036 238.733 981.794 243.816 962.917 261.171C936.051 285.883 902.478 313.455 852.136 329.114C850.03 329.774 847.903 330.349 845.777 330.924C842.035 332.117 838.107 332.418 834.301 331.803C830.805 331.034 827.475 329.687 824.44 327.814C822.01 325.34 819.298 323.173 816.356 321.357C804.005 313.736 789.488 315.189 779.173 330.191C776.218 332.728 773.295 335.272 770.315 337.732C761.384 345.073 752.068 352.067 739.902 354.609C737.235 355.166 734.51 355.518 731.807 355.932C714.254 358.6 696.182 360.748 677.625 362.555C664.864 363.771 651.865 364.912 638.746 365.713C632.045 366.124 625.318 366.398 618.56 366.604C612.897 366.781 607.219 366.924 601.54 366.907C595.456 367.006 589.388 366.697 583.375 365.984C580.395 365.049 575.722 365.159 574.262 363.36C549.094 339.153 525.002 311.62 487.025 320.204C433.278 332.352 382.379 355.169 326.183 354.29C321.402 355.012 316.639 355.867 311.833 356.796C302.245 358.692 292.659 360.932 283.071 363.134C273.589 365.39 263.823 365.552 254.433 363.609C242.328 361.047 232.185 354.112 223.644 344.607C218.908 339.342 214.681 333.617 211.018 327.507C202.884 315.183 197.512 300.309 192.97 287.655C191.928 284.825 191.518 281.77 191.769 278.708C192.021 275.646 192.927 272.653 194.423 269.941C196.263 266.534 198.646 263.452 201.469 260.825C203.154 259.207 204.966 257.734 206.885 256.423C216.164 250.204 227.332 245.185 239.829 239.672C243.565 238.015 247.387 236.273 251.358 234.555C257.234 232.037 263.86 229.155 268.572 225.057C270.557 223.346 272.616 221.689 274.726 220.026C280.986 215.055 287.835 210.426 294.869 205.78C307.347 197.496 320.146 191.519 333.612 188.269C347.214 184.989 361.153 183.904 374.918 185.052C390.833 186.38 406.812 189.891 422.774 191.074C426.301 191.345 429.828 191.615 433.351 191.527C439.342 191.308 446.366 194.137 452.231 190.459C486.954 168.616 521.668 149.796 560.892 143.562C566.633 142.659 572.425 142.054 578.24 141.511C601.603 139.365 625.418 140.091 649.24 140.441C652.976 140.452 656.678 140.296 660.375 140.272Z" stroke="#6A6A6F" stroke-width="1.66667" stroke-miterlimit="10" stroke-dasharray="6 4"/>
<path d="M666.301 148.01C670.339 147.741 675.027 147.566 680.017 147.578C695.385 147.596 711.684 145.209 723.127 141.196C743.84 133.927 766.979 122.943 793.049 117.062C801.657 115.115 810.145 115.896 819.702 124.638C823.218 127.895 827.195 130.718 830.976 133.759C834.756 136.8 838.658 139.592 842.353 142.781C865.265 162.14 896.346 168.913 925.118 178.731C929.39 179.64 933.507 180.962 937.631 182.007C950.116 185.047 961.192 192.081 969.277 202.105C972.142 206.383 974.215 211.18 975.398 216.271C976.068 218.366 976.186 220.625 975.739 222.825C975.291 225.025 974.295 227.09 972.847 228.815C964.443 236.606 948.769 235.859 930.924 253.663C903.999 280.548 874.767 312.122 826.108 327.343C824.239 327.919 822.345 328.456 820.465 328.99C817.163 330.053 813.714 330.45 810.314 330.156C807.222 329.754 804.219 328.9 801.397 327.62C799.02 325.88 796.464 324.404 793.769 323.216C782.545 318.072 769.697 319.459 759.944 331.009C757.197 333.004 754.469 334.985 751.696 336.904C743.412 342.618 734.804 347.998 724.06 350.048C721.676 350.499 719.269 350.789 716.857 351.126C701.214 353.291 685.129 354.942 668.721 356.298C657.348 357.224 645.823 358.026 634.222 358.453C628.23 358.673 622.312 358.763 616.324 358.752C611.306 358.749 606.291 358.698 601.234 358.477C595.853 358.357 590.497 357.914 585.191 357.149C582.552 356.336 578.643 356.299 577.079 354.783C553.649 335.185 531.224 313.053 498.251 317.562C448.756 324.316 401.164 342.261 349.625 343.248C345.228 343.931 340.832 344.704 336.438 345.568C327.6 347.284 318.748 349.248 309.93 351.111C301.203 352.994 292.281 353.324 283.561 352.086C272.331 350.508 262.528 345.24 253.968 337.514C249.21 333.199 244.875 328.422 241.021 323.246C232.347 313.136 226.691 299.913 221.634 288.618C220.131 285.785 219.418 282.561 219.568 279.284C219.718 276.007 220.726 272.798 222.487 269.992C224.653 266.441 227.479 263.343 230.796 260.883C232.76 259.361 234.865 258.045 237.076 256.955C248.042 251.636 260.552 248.03 273.945 243.524C278.093 242.13 282.265 240.553 286.579 239.034C293.077 236.739 300.474 233.861 304.939 229.216C306.893 227.193 308.964 225.273 311.064 223.322C317.571 217.389 324.394 211.833 331.498 206.681C356.004 188.076 385.815 178.66 415.685 180.089C429.604 180.767 443.578 183.28 457.557 184.079C460.646 184.256 463.729 184.442 466.788 184.344C472.08 184.199 478.105 186.279 483.316 183.512C514.191 167.074 545.19 153.345 579.491 149.138C584.529 148.539 589.555 148.142 594.628 147.809C615.072 146.491 635.828 147.376 656.541 147.93C659.8 148.034 663.041 147.967 666.301 148.01Z" stroke="#6A6A6F" stroke-width="2" stroke-miterlimit="10" stroke-dasharray="7 3"/>
<path d="M672.147 155.702C675.436 155.492 679.625 155.408 684.215 155.483C697.709 155.72 713.142 154.488 722.311 152.057C739.627 147.461 760.862 140.284 784.958 136.562C792.756 135.349 800.468 136.11 809.121 141.928C812.545 144.248 816.362 146.108 819.99 148.276C823.618 150.445 827.497 152.096 830.925 154.59C851.597 169.885 880.247 174.224 905.216 183.355C908.918 184.339 912.481 185.624 916.043 186.748C926.816 190.067 936.402 196.33 943.793 204.879C946.262 208.684 947.947 212.983 948.749 217.526C950.316 221.963 947.55 227.871 944.295 229.67C932.874 234.396 915.802 227.862 898.925 246.102C871.982 275.234 847.031 310.69 800.049 325.505C798.414 326.02 796.776 326.521 795.151 327.018C792.279 327.957 789.302 328.449 786.319 328.48C783.622 328.421 780.951 328.051 778.357 327.378C776.054 326.388 773.674 325.579 771.237 324.96C761.156 322.266 749.956 323.624 740.791 331.736C738.248 333.174 735.71 334.603 733.145 335.979C725.492 340.071 717.593 343.899 708.279 345.401C706.194 345.742 704.103 345.97 701.953 346.2C688.202 347.851 674.134 349.036 659.855 349.916C649.876 350.519 639.798 351.029 629.696 351.156C624.474 351.219 619.278 351.076 614.087 350.863C609.712 350.68 605.337 350.435 600.991 350.059C596.314 349.724 591.667 349.141 587.068 348.311C584.733 347.601 581.537 347.387 579.959 346.219C558.253 331.234 537.397 314.287 509.538 314.917C464.226 316.03 420.047 329.385 373.192 332.255C369.171 332.901 365.153 333.623 361.137 334.382C353.031 335.907 344.931 337.583 336.839 339.165C328.831 340.677 320.706 341.157 312.659 340.595C302.376 339.916 292.571 336.403 284.277 330.426C279.503 327.066 275.066 323.243 271.022 319.008C261.806 311.076 255.852 299.446 250.328 289.549C245.927 282.544 246.857 275.711 250.537 270.049C253.053 266.381 256.309 263.294 260.072 261.01C262.327 259.588 264.724 258.43 267.216 257.556C279.894 253.213 293.725 250.996 308.018 247.451C312.573 246.328 317.109 244.912 321.754 243.572C328.869 241.548 337.032 238.646 341.26 233.435C343.155 231.107 345.247 228.906 347.336 226.691C353.824 219.881 360.746 213.52 368.053 207.651C380.688 197.245 394.875 189.037 410.011 183.374C424.973 177.842 440.682 175.07 456.39 175.189C468.283 175.335 480.29 176.725 492.295 177.144C494.931 177.231 497.57 177.332 500.205 177.259C504.792 177.136 509.862 178.493 514.39 176.644C541.425 165.617 568.706 156.989 598.074 154.802C602.364 154.483 606.678 154.325 611.008 154.2C628.529 153.721 646.236 154.746 663.852 155.523C666.613 155.597 669.4 155.624 672.147 155.702Z" stroke="#6A6A6F" stroke-width="2.33333" stroke-miterlimit="10" stroke-dasharray="8 2"/>
<path d="M678.029 163.415C680.583 163.258 684.267 163.276 688.461 163.429C700.071 163.841 714.654 163.836 721.547 162.91C735.504 161.084 754.803 157.585 776.919 156.054C784.333 155.437 791.725 156.516 798.555 159.214C801.921 160.556 805.501 161.568 809.013 162.799C812.525 164.03 815.971 165.173 819.448 166.506C840.201 174.466 864.099 179.642 885.262 188.071C888.392 189.13 891.414 190.397 894.419 191.592C903.448 195.179 911.564 200.7 918.237 207.796C920.354 211.099 921.68 214.886 922.112 218.863C923.579 223.29 919.834 229.553 915.731 230.606C901.281 232.269 882.857 219.989 866.92 238.613C840.028 270.054 819.287 309.29 773.984 323.738C772.573 324.15 771.201 324.657 769.815 325.108C767.36 325.92 764.845 326.5 762.304 326.841C759.974 327.125 757.633 327.241 755.3 327.188C753.094 326.945 750.916 326.877 748.666 326.792C739.807 326.472 730.209 327.859 721.631 332.557C719.292 333.439 716.958 334.311 714.591 335.14C707.43 337.851 700.03 339.768 692.523 340.855C690.743 341.053 688.936 341.236 687.13 341.42C675.289 342.566 663.234 343.271 651.069 343.679C642.498 343.955 633.869 344.172 625.277 343.957C620.81 343.831 616.369 343.499 611.957 343.073C608.226 342.709 604.514 342.271 600.821 341.72C596.885 341.141 592.912 340.465 589.025 339.558C587.021 338.965 584.555 338.584 582.917 337.724C562.959 327.329 543.673 315.201 520.905 312.357C479.652 307.192 438.884 316.507 396.728 321.256C393.077 321.871 389.441 322.519 385.801 323.176C378.43 324.525 371.078 325.921 363.736 327.2C356.45 328.338 349.116 328.971 341.785 329.096C332.319 329.49 322.991 327.507 314.62 323.321C309.827 320.909 305.278 318.041 301.033 314.753C291.289 309.017 285.034 299.004 279.031 290.486C273.57 283.102 274.547 275.904 278.656 270.047C281.514 266.244 285.205 263.17 289.412 261.088C291.96 259.757 294.649 258.751 297.416 258.094C311.804 254.751 326.966 253.927 342.155 251.329C347.1 250.505 352.022 249.214 356.957 248.041C364.742 246.22 373.6 243.351 377.601 237.579C379.432 234.957 381.544 232.498 383.621 230.018C390.073 222.332 397.099 215.164 404.63 208.583C417.635 197.008 432.356 187.661 448.187 180.926C463.841 174.39 480.417 170.772 497.109 170.248C506.997 169.924 517.004 170.146 527.036 170.162C529.212 170.192 531.423 170.181 533.607 170.118C537.48 170.012 541.599 170.66 545.453 169.734C568.685 164.176 592.189 160.566 616.643 160.41C620.185 160.37 623.796 160.456 627.374 160.535C641.98 160.899 656.624 162.069 671.149 163.06C673.469 163.186 675.754 163.291 678.029 163.415Z" stroke="#6A6A6F" stroke-width="2.66667" stroke-miterlimit="10" stroke-dasharray="9 1"/>
<path d="M895.585 220.212C896.93 224.668 892.229 231.225 887.273 231.539C869.811 230.152 850.49 212.497 835.036 231.118C809.015 265.54 792.058 309.437 748.034 321.974C740.859 324.58 733.57 326.802 726.196 328.632C699.447 335.262 670.91 337.573 642.24 337.392C635.065 337.345 627.888 337.138 620.802 336.713C589.1 333.8 561.184 319.228 532.224 309.756C479.29 291.727 424.184 312.913 370.902 317.591C362.19 319.285 353.287 318.811 344.954 316.21C340.15 314.724 335.496 312.813 331.045 310.496C320.736 306.997 314.217 298.561 307.729 291.431C301.213 283.659 302.163 276.04 306.753 270.082C311.343 264.123 319.569 259.81 327.604 258.673C343.675 256.375 360.171 256.898 376.268 255.228C381.616 254.698 386.937 253.809 392.197 252.567C400.676 251.453 410.503 248.309 413.988 241.786C442.195 199.675 488.211 167.759 537.91 165.305C545.805 164.247 553.8 163.565 561.863 163.192C602.184 161.295 644.258 167.07 683.96 171.143C690.417 170.787 714.417 173.104 720.791 173.829C753.087 177.501 848.742 168.531 892.795 210.679C894.58 213.498 895.546 216.798 895.585 220.212V220.212Z" stroke="#6A6A6F" stroke-width="3" stroke-miterlimit="10"/>
<path d="M678.087 178.715C684.386 178.673 705.303 180.865 711.503 181.686C714.216 182.026 717.363 182.285 720.871 182.508C751.39 184.505 807.156 183.407 846.667 201.179C854.574 204.729 861.798 209.621 868.045 215.655C869.653 218.217 870.528 221.207 870.573 224.301C871.583 228.281 867.506 234.082 863.235 234.633C848.144 234.602 831.122 220.667 817.979 237.458C794.225 267.792 778.585 305.264 739.349 318.101C732.912 320.209 726.478 322.393 719.889 324.034C706.016 327.427 691.942 329.689 677.802 330.797C666.98 331.723 656.016 332.101 645.021 332.068C642.672 332.073 640.339 332.051 637.949 331.983C633.92 331.913 629.847 331.794 625.896 331.548C616.314 330.72 606.875 328.91 597.719 326.145C580.278 321.447 563.608 314.116 546.675 308.558C497.042 292.288 445.655 306.485 395.914 312.202C387.743 313.285 379.505 312.748 371.655 310.618C367.143 309.311 362.754 307.63 358.533 305.593C348.919 302.495 342.321 295.436 336.012 289.133C329.704 282.83 330.183 275.662 333.996 269.991C337.81 264.32 344.808 260.083 351.743 258.372C359.172 256.672 366.669 255.372 374.203 254.477C380.843 253.602 387.52 252.724 394.149 251.523C398.927 250.602 403.6 249.376 408.302 248.179C415.802 246.304 424.356 243.394 428.081 237.672C453.276 198.972 497.705 174.761 543.824 171.295C551.105 170.752 558.471 169.941 565.841 169.732C602.974 168.705 641.67 174.417 678.087 178.715Z" stroke="#6A6A6F" stroke-width="2.66667" stroke-miterlimit="10" stroke-dasharray="9.49 0.86"/>
<path d="M672.25 186.284C678.412 186.543 696.225 188.623 702.248 189.55C704.723 189.936 707.559 190.164 710.662 190.459C739.256 193.025 788.082 193.242 823.982 207.739C831.198 210.737 837.744 215.12 843.279 220.659C844.723 222.97 845.516 225.66 845.575 228.447C846.214 231.992 842.793 236.982 839.202 237.778C826.491 239.11 812.201 229.241 800.912 243.877C780.196 270.717 765.548 302.814 730.672 314.317C724.984 316.184 719.321 318.089 713.572 319.553C701.386 322.567 689.021 324.593 676.596 325.612C667.09 326.452 657.464 326.83 647.792 326.862C645.712 326.888 643.647 326.848 641.577 326.818C638.072 326.793 634.507 326.709 630.994 326.496C622.571 325.842 614.257 324.379 606.161 322.128C590.765 318.623 575.911 312.23 561.108 307.473C514.865 292.645 467.346 303.373 420.916 306.93C413.297 307.622 405.666 307.017 398.337 305.139C394.122 303.99 390.001 302.54 386.003 300.802C377.093 298.11 370.569 292.283 364.295 286.957C358.022 281.63 358.163 275.371 361.258 270.009C364.201 264.792 370.071 260.455 375.909 258.185C382.125 255.891 388.454 253.972 394.864 252.438C400.565 250.996 406.311 249.556 412.063 247.922C416.19 246.749 420.255 245.294 424.426 243.901C431.015 241.733 438.556 238.79 442.212 233.678C466.483 199.766 507.162 179.755 549.828 177.434C556.474 177.077 563.223 176.583 569.968 176.48C603.808 176.139 639.033 181.748 672.25 186.284Z" stroke="#6A6A6F" stroke-width="2.33333" stroke-miterlimit="10" stroke-dasharray="8.63 1.73"/>
<path d="M666.418 193.868C672.423 194.417 687.139 196.377 692.992 197.414C695.236 197.814 697.747 198.098 700.461 198.415C727.15 201.56 769.06 203.108 801.313 214.272C808.371 217.122 814.198 220.866 818.519 225.654C819.801 227.71 820.519 230.095 820.602 232.571C820.87 235.681 818.086 239.874 815.188 240.911C804.841 243.595 793.282 237.792 783.882 250.232C766.211 273.606 752.534 300.304 722.022 310.464C717.082 312.113 712.204 313.735 707.276 314.998C696.772 317.617 686.117 319.403 675.406 320.339C667.229 321.112 658.927 321.494 650.588 321.573C648.808 321.587 647.051 321.603 645.229 321.569C642.193 321.545 639.139 321.511 636.109 321.356C628.849 320.872 621.664 319.763 614.631 318.043C601.268 315.711 588.291 310.291 575.57 306.319C532.719 292.91 489.032 300.209 445.935 301.57C438.88 301.87 431.853 301.2 425.045 299.577C421.126 298.59 417.273 297.373 413.507 295.932C405.292 293.642 398.863 289.011 392.603 284.697C386.731 280.645 386.243 275.09 388.498 269.966C390.611 265.128 395.299 260.747 400.039 257.941C405.028 255.055 410.186 252.507 415.481 250.313C420.244 248.28 425.049 246.297 429.924 244.254C433.439 242.777 436.915 241.105 440.516 239.541C446.186 237.076 452.69 234.099 456.284 229.601C479.545 200.466 516.559 184.691 555.756 183.482C561.748 183.262 567.856 183.024 573.985 183.116C604.636 183.583 636.449 189.11 666.418 193.868Z" stroke="#6A6A6F" stroke-width="2" stroke-miterlimit="10" stroke-dasharray="7.77 2.59"/>
<path d="M660.581 201.436C666.438 202.304 678.046 204.162 683.745 205.282C685.75 205.691 687.936 206.009 690.252 206.365C715 210.23 750.039 212.972 778.652 220.81C785.111 223.215 790.248 226.426 793.764 230.638C794.878 232.446 795.515 234.531 795.614 236.698C795.457 238.166 794.976 239.59 794.206 240.863C793.437 242.136 792.4 243.224 791.174 244.043C783.194 248.093 774.366 246.357 766.836 256.615C752.216 276.513 739.532 297.812 713.315 306.65C709.119 308.066 705.011 309.41 700.926 310.473C692.131 312.708 683.206 314.255 674.231 315.099C667.375 315.8 660.41 316.181 653.396 316.302C651.9 316.333 650.392 316.345 648.897 316.353C646.342 316.349 643.787 316.346 641.239 316.248C635.13 315.942 629.068 315.184 623.1 313.98C611.787 312.831 600.674 308.389 590.044 305.183C550.548 293.196 510.678 297.095 470.961 296.238C464.487 296.159 458.061 295.427 451.777 294.053C448.14 293.179 444.542 292.218 441.026 291.096C433.524 289.217 427.19 285.743 420.926 282.471C415.357 279.562 414.333 274.813 415.776 269.957C417.1 265.509 420.583 261.082 424.248 257.68C428.013 254.24 432 251.067 436.181 248.186C440.012 245.492 443.853 243.025 447.858 240.579C450.763 238.798 453.656 236.937 456.673 235.184C461.452 232.413 466.902 229.415 470.457 225.532C492.645 201.161 526.11 189.542 561.785 189.537C567.167 189.541 572.62 189.502 578.09 189.741C605.456 191.021 633.828 196.513 660.581 201.436Z" stroke="#6A6A6F" stroke-width="1.66667" stroke-miterlimit="10" stroke-dasharray="6.9 3.45"/>
<path d="M654.754 209.011C660.453 210.192 668.992 211.86 674.49 213.146C676.263 213.569 678.128 213.934 680.043 214.316C702.851 218.961 731.009 222.833 755.983 227.343C761.893 229.296 766.304 231.978 769.003 235.633C769.957 237.185 770.515 238.968 770.627 240.826C770.056 243.207 768.853 245.405 767.151 247.17C761.578 252.537 755.464 254.918 749.805 262.993C738.252 279.427 726.512 295.311 704.729 302.809C701.277 303.993 697.965 305.036 694.715 305.931C687.568 307.791 680.316 309.113 673.018 309.886C667.482 310.516 661.872 310.906 656.16 311.067C654.962 311.111 653.764 311.155 652.518 311.159C650.447 311.19 648.376 311.221 646.322 311.163C641.361 311.043 636.421 310.647 631.523 309.977C622.236 310.011 612.958 306.616 604.401 304.128C568.274 293.559 532.189 294.051 495.867 290.972C489.97 290.505 484.116 289.704 478.331 288.573C474.978 287.905 471.66 287.15 468.377 286.309C461.57 284.832 455.347 282.465 449.081 280.294C443.808 278.476 442.262 274.592 442.881 269.983C443.426 265.932 445.702 261.482 448.223 257.542C450.8 253.585 453.616 249.792 456.656 246.186C459.441 242.947 462.422 239.888 465.58 237.028C467.862 234.924 470.181 232.878 472.611 230.945C476.495 227.854 480.84 224.819 484.374 221.562C505.373 201.912 535.391 194.496 567.558 195.691C572.31 195.871 577.12 196.073 581.96 196.488C606.284 198.465 631.27 203.829 654.754 209.011Z" stroke="#6A6A6F" stroke-width="1.33333" stroke-miterlimit="10" stroke-dasharray="6.04 4.31"/>
<path d="M745.648 244.958C734.519 269.031 723.441 289.295 696.055 298.979C688.175 301.742 680.058 303.634 671.846 304.622C666.734 305.35 661.489 305.719 656.174 305.924C650.858 306.13 645.461 306.091 640.018 305.868C632.773 307.08 625.241 305.05 618.935 302.929C571.291 292.112 526.356 287.433 477.502 277.941C463.766 276.314 472.914 255.573 477.432 243.968C480.428 237.648 484.276 231.764 488.859 226.493C523.685 186.916 591.631 201.213 648.919 216.556C656.088 218.463 663.116 220.412 669.827 222.238C690.661 227.743 711.981 232.669 733.312 233.838C740.813 235.961 745.162 239.441 745.648 244.958Z" stroke="#6A6A6F" stroke-miterlimit="10" stroke-dasharray="5.18 5.18"/>
<path d="M732.971 250.074C723.73 270.835 714.062 290.037 689.179 297.033C681.572 299.075 673.787 300.184 665.993 300.336C661.118 300.551 656.133 300.653 650.975 300.606C645.817 300.559 640.734 300.383 635.385 300.078C628.492 301.004 621.334 298.956 614.873 297.47C568.031 286.687 530.155 280.589 488.145 273.687C475.278 271.593 482.915 253.327 488.139 243.222C491.022 237.691 494.796 232.673 499.296 228.387C500.464 227.259 501.633 226.168 502.866 225.151C521.58 209.884 545.876 203.481 574.272 207.122C597.203 210.072 622.384 216.051 645.5 222.235C652.083 224 658.494 225.776 664.649 227.429C673.131 229.702 681.533 231.708 689.583 233.572C700.311 236.191 711.205 238.156 722.208 239.458C728.788 241.675 732.522 245.02 732.971 250.074Z" stroke="#6A6A6F" stroke-width="1.08333" stroke-miterlimit="10" stroke-dasharray="6.04 4.31"/>
<path d="M720.256 255.253C712.889 272.706 704.575 290.764 682.255 295.169C673.335 296.923 666.108 296.417 660.077 296.136C655.496 295.944 650.721 295.701 645.726 295.392C640.943 295.083 635.948 294.775 630.678 294.393C624.182 294.959 617.248 293.274 610.744 292.106C564.114 283.677 533.534 275.488 498.736 269.464C486.6 267.362 493.271 251.298 498.717 242.474C501.615 237.784 505.313 233.645 509.625 230.266C510.709 229.376 511.834 228.539 512.995 227.761C531.022 216.022 551.4 207.626 577.829 212.866C598.072 216.876 621.092 222.331 642.046 227.954C648.047 229.567 653.888 231.173 659.449 232.655C667.4 234.793 675.101 236.59 682.061 238.352C692.695 241.083 702.21 243.559 711.108 245.091C716.753 247.382 719.887 250.589 720.256 255.253Z" stroke="#6A6A6F" stroke-width="1.16667" stroke-miterlimit="10" stroke-dasharray="6.9 3.45"/>
<path d="M707.557 260.406C702.075 274.532 695.031 291.325 675.357 293.259C666.909 294.096 660.146 292.767 654.192 291.905C649.855 291.289 645.331 290.713 640.496 290.129C635.982 289.595 631.185 289.107 626.013 288.659C619.885 288.91 613.247 287.567 606.641 286.696C560.272 280.601 537.011 270.298 509.362 265.2C497.97 263.111 503.6 249.255 509.373 241.674C512.287 237.829 515.897 234.586 519.995 232.134C521.025 231.484 522.085 230.889 523.172 230.35C540.573 222.174 556.974 211.666 581.397 218.593C598.923 223.549 619.806 228.603 638.597 233.664C644.017 235.126 649.27 236.552 654.246 237.868C661.681 239.843 668.66 241.468 674.503 243.174C684.441 246.054 692.682 248.765 699.973 250.766C704.719 253.09 707.261 256.164 707.557 260.406Z" stroke="#6A6A6F" stroke-width="1.25" stroke-miterlimit="10" stroke-dasharray="7.77 2.59"/>
<path d="M694.867 265.563C691.257 276.367 685.46 291.709 668.455 291.358C660.479 291.193 654.217 289.159 648.293 287.676C644.195 286.647 639.933 285.719 635.255 284.883C631.003 284.12 626.412 283.456 621.312 282.964C615.554 282.902 609.184 281.885 602.504 281.327C556.421 277.518 540.445 265.021 519.953 260.976C509.306 258.876 513.819 247.22 519.983 240.932C522.933 237.907 526.47 235.554 530.345 234.038C531.315 233.625 532.305 233.267 533.31 232.966C550.134 228.429 562.539 215.578 584.933 224.313C599.775 230.099 618.493 234.859 635.13 239.364C639.974 240.664 644.643 241.925 649.02 243.079C655.943 244.905 662.189 246.378 666.943 247.957C676.186 251.025 683.131 253.992 688.827 256.398C692.667 258.787 694.626 261.733 694.867 265.563Z" stroke="#6A6A6F" stroke-width="1.33333" stroke-miterlimit="10" stroke-dasharray="8.63 1.73"/>
<path d="M682.168 270.714C680.446 278.207 675.919 291.878 661.546 289.466C654.06 288.21 648.252 285.592 642.405 283.468C638.349 281.98 634.214 280.706 630.017 279.651C625.622 278.579 621.161 277.772 616.655 277.234C611.257 276.852 605.179 276.164 598.404 275.931C552.668 274.346 543.943 259.571 530.579 256.712C520.697 254.587 523.982 245.079 530.638 240.154C533.651 237.938 537.117 236.48 540.739 235.905C541.66 235.733 542.588 235.618 543.518 235.56C559.783 234.797 568.26 219.261 588.534 230.022C600.735 236.502 617.225 241.117 631.72 245.046C635.978 246.205 640.072 247.281 643.851 248.273C650.257 249.936 655.768 251.303 659.434 252.733C665.881 255.113 672.016 258.243 677.719 262.064C679.027 263.08 680.1 264.376 680.866 265.867C681.633 267.358 682.076 269.01 682.168 270.714V270.714Z" stroke="#6A6A6F" stroke-width="1.41667" stroke-miterlimit="10" stroke-dasharray="9.49 0.86"/>
<path d="M669.469 275.866C669.633 280.032 666.515 291.832 654.654 287.547C635.713 280.695 628.054 270.068 594.307 270.512C548.93 271.109 547.48 253.974 541.211 252.439C527.991 249.208 538.073 234.955 553.706 238.131C569.339 241.307 574.201 222.666 592.118 235.721C610.036 248.776 643.147 253.312 651.914 257.49C665.786 264.101 669.213 269.097 669.469 275.866Z" stroke="#6A6A6F" stroke-width="1.5" stroke-miterlimit="10"/>
</svg>
