<svg width="40" height="34" viewBox="0 0 40 34" fill="none" xmlns="http://www.w3.org/2000/svg">
<path d="M36.5 0.5H3.5C2.70435 0.5 1.94129 0.81607 1.37868 1.37868C0.81607 1.94129 0.5 2.70435 0.5 3.5V30.5C0.5 31.2956 0.81607 32.0587 1.37868 32.6213C1.94129 33.1839 2.70435 33.5 3.5 33.5H36.5C37.2956 33.5 38.0587 33.1839 38.6213 32.6213C39.1839 32.0587 39.5 31.2956 39.5 30.5V3.5C39.5 2.70435 39.1839 1.94129 38.6213 1.37868C38.0587 0.81607 37.2956 0.5 36.5 0.5ZM36.5 3.5V11H3.5V3.5H36.5ZM3.5 14H14V30.5H3.5V14ZM36.5 30.5H17V14H36.5V30.5Z" fill="white"/>
</svg>
