<svg width="49" height="48" viewBox="0 0 49 48" fill="none" xmlns="http://www.w3.org/2000/svg">
<path d="M30.9756 22.7513L21.9756 16.7513C21.7496 16.6005 21.487 16.5139 21.2157 16.5008C20.9443 16.4876 20.6746 16.5484 20.4351 16.6766C20.1956 16.8048 19.9955 16.9957 19.856 17.2287C19.7165 17.4618 19.6429 17.7284 19.6431 18V30C19.6429 30.2716 19.7165 30.5382 19.856 30.7713C19.9955 31.0044 20.1956 31.1952 20.4351 31.3234C20.6746 31.4516 20.9443 31.5124 21.2157 31.4992C21.487 31.4861 21.7496 31.3995 21.9756 31.2488L30.9756 25.2488C31.1813 25.1118 31.35 24.9262 31.4668 24.7083C31.5835 24.4905 31.6445 24.2472 31.6445 24C31.6445 23.7529 31.5835 23.5095 31.4668 23.2917C31.35 23.0738 31.1813 22.8882 30.9756 22.7513ZM22.6431 27.1969V20.8125L27.4393 24L22.6431 27.1969ZM44.0799 13.035C43.9033 12.3438 43.5648 11.7045 43.0924 11.1698C42.62 10.6352 42.0273 10.2205 41.3631 9.96001C34.9356 7.47751 24.7056 7.50001 24.1431 7.50001C23.5806 7.50001 13.3506 7.47751 6.92307 9.96001C6.25887 10.2205 5.66613 10.6352 5.19374 11.1698C4.72136 11.7045 4.38286 12.3438 4.20619 13.035C3.72057 14.9063 3.14307 18.3263 3.14307 24C3.14307 29.6738 3.72057 33.0938 4.20619 34.965C4.3826 35.6566 4.72097 36.2963 5.19338 36.8313C5.66578 37.3663 6.25866 37.7812 6.92307 38.0419C13.0806 40.4175 22.7181 40.5 24.0193 40.5H24.2668C25.5681 40.5 35.2112 40.4175 41.3631 38.0419C42.0275 37.7812 42.6204 37.3663 43.0928 36.8313C43.5652 36.2963 43.9035 35.6566 44.0799 34.965C44.5656 33.09 45.1431 29.6738 45.1431 24C45.1431 18.3263 44.5656 14.9063 44.0799 13.035ZM41.1756 34.2225C41.1184 34.4526 41.0076 34.6658 40.8521 34.8447C40.6967 35.0236 40.501 35.1632 40.2812 35.2519C34.3468 37.5431 24.2537 37.5019 24.1562 37.5019H24.1431C24.0418 37.5019 13.9562 37.5394 8.01807 35.2519C7.79826 35.1632 7.60261 35.0236 7.44714 34.8447C7.29168 34.6658 7.18083 34.4526 7.12369 34.2225C6.66807 32.5106 6.14307 29.3569 6.14307 24C6.14307 18.6431 6.66807 15.4894 7.11057 13.7869C7.16665 13.5555 7.27701 13.3407 7.43253 13.1604C7.58806 12.9801 7.78427 12.8394 8.00494 12.75C13.7274 10.5394 23.3162 10.5 24.1018 10.5H24.1524C24.2537 10.5 34.3487 10.4663 40.2774 12.75C40.4972 12.8387 40.6929 12.9783 40.8484 13.1572C41.0038 13.3361 41.1147 13.5493 41.1718 13.7794C41.6181 15.4894 42.1431 18.6431 42.1431 24C42.1431 29.3569 41.6181 32.5106 41.1756 34.2131V34.2225Z" fill="white"/>
</svg>
