<svg viewBox="0 0 1738 103" fill="none" xmlns="http://www.w3.org/2000/svg">
<g filter="url(#filter0_f_85_34456)">
<path d="M26 51H699" stroke="#288BFF" stroke-width="11" stroke-linecap="round"/>
</g>
<path d="M37 51L1734 51.0001" stroke="#288BFF" stroke-opacity="0.82" stroke-width="7" stroke-linecap="round"/>
<g filter="url(#filter1_f_85_34456)">
<circle cx="148.5" cy="50.5" r="11.5" fill="#288BFF"/>
</g>
<circle cx="148.5" cy="50.5" r="11.5" fill="white"/>
<g filter="url(#filter2_d_85_34456)">
<circle cx="148.5" cy="50.5" r="6.5" fill="#288BFF"/>
</g>
<g filter="url(#filter3_f_85_34456)">
<circle cx="330.5" cy="50.5" r="11.5" fill="#288BFF"/>
</g>
<circle cx="330.5" cy="50.5" r="11.5" fill="white"/>
<g filter="url(#filter4_d_85_34456)">
<circle cx="330.5" cy="50.5" r="6.5" fill="#288BFF"/>
</g>
<g filter="url(#filter5_f_85_34456)">
<circle cx="515.5" cy="50.5" r="11.5" fill="#288BFF"/>
</g>
<circle cx="515.5" cy="50.5" r="11.5" fill="white"/>
<g filter="url(#filter6_d_85_34456)">
<circle cx="515.5" cy="50.5" r="6.5" fill="#288BFF"/>
</g>
<g filter="url(#filter7_f_85_34456)">
<circle cx="1247.5" cy="50.5" r="11.5" fill="#288BFF"/>
</g>
<circle cx="1247.5" cy="50.5" r="11.5" fill="white"/>
<g filter="url(#filter8_f_85_34456)">
<circle cx="1064.5" cy="50.5" r="11.5" fill="#288BFF"/>
</g>
<circle cx="1064.5" cy="50.5" r="11.5" fill="white"/>
<g filter="url(#filter9_f_85_34456)">
<circle cx="1614.5" cy="50.5" r="11.5" fill="#288BFF"/>
</g>
<circle cx="1614.5" cy="50.5" r="11.5" fill="white"/>
<g filter="url(#filter10_f_85_34456)">
<circle cx="1431.5" cy="50.5" r="11.5" fill="#288BFF"/>
</g>
<circle cx="1431.5" cy="50.5" r="11.5" fill="white"/>
<g filter="url(#filter11_f_85_34456)">
<circle cx="698.5" cy="50.5" r="11.5" fill="#288BFF"/>
</g>
<circle cx="698.5" cy="50.5" r="11.5" fill="white"/>
<g filter="url(#filter12_d_85_34456)">
<circle cx="698.5" cy="50.5" r="6.5" fill="#288BFF"/>
</g>
<g filter="url(#filter13_f_85_34456)">
<circle cx="881.5" cy="50.5" r="11.5" fill="#288BFF"/>
</g>
<circle cx="881.5" cy="50.5" r="11.5" fill="white"/>
<path d="M123.096 98C122.744 98 122.48 97.92 122.304 97.76C122.144 97.584 122.064 97.352 122.064 97.064C122.064 96.888 122.104 96.72 122.184 96.56C122.28 96.384 122.408 96.208 122.568 96.032L127.944 90.272C128.76 89.392 129.344 88.584 129.696 87.848C130.064 87.096 130.248 86.336 130.248 85.568C130.248 84.608 129.952 83.88 129.36 83.384C128.784 82.872 127.936 82.616 126.816 82.616C126.096 82.616 125.416 82.728 124.776 82.952C124.136 83.176 123.52 83.52 122.928 83.984C122.72 84.144 122.528 84.216 122.352 84.2C122.192 84.184 122.048 84.12 121.92 84.008C121.792 83.896 121.704 83.752 121.656 83.576C121.608 83.4 121.608 83.224 121.656 83.048C121.72 82.872 121.848 82.712 122.04 82.568C122.664 82.056 123.416 81.648 124.296 81.344C125.176 81.024 126.072 80.864 126.984 80.864C128.12 80.864 129.08 81.04 129.864 81.392C130.648 81.744 131.24 82.264 131.64 82.952C132.04 83.624 132.24 84.448 132.24 85.424C132.24 86.096 132.128 86.76 131.904 87.416C131.696 88.056 131.368 88.712 130.92 89.384C130.488 90.056 129.92 90.752 129.216 91.472L124.104 96.872V96.32H132.192C132.496 96.32 132.72 96.392 132.864 96.536C133.024 96.664 133.104 96.864 133.104 97.136C133.104 97.424 133.024 97.64 132.864 97.784C132.72 97.928 132.496 98 132.192 98H123.096ZM141.591 98.216C139.655 98.216 138.183 97.472 137.175 95.984C136.167 94.496 135.663 92.344 135.663 89.528C135.663 87.64 135.887 86.056 136.335 84.776C136.783 83.48 137.447 82.504 138.327 81.848C139.223 81.192 140.311 80.864 141.591 80.864C143.543 80.864 145.015 81.6 146.007 83.072C147.015 84.528 147.519 86.672 147.519 89.504C147.519 91.392 147.295 92.984 146.847 94.28C146.399 95.576 145.735 96.56 144.855 97.232C143.975 97.888 142.887 98.216 141.591 98.216ZM141.591 96.512C142.935 96.512 143.927 95.944 144.567 94.808C145.223 93.656 145.551 91.888 145.551 89.504C145.551 87.104 145.223 85.352 144.567 84.248C143.927 83.128 142.935 82.568 141.591 82.568C140.263 82.568 139.271 83.128 138.615 84.248C137.959 85.368 137.631 87.12 137.631 89.504C137.631 91.888 137.959 93.656 138.615 94.808C139.271 95.944 140.263 96.512 141.591 96.512ZM151.877 98C151.525 98 151.261 97.92 151.085 97.76C150.925 97.584 150.845 97.352 150.845 97.064C150.845 96.888 150.885 96.72 150.965 96.56C151.061 96.384 151.189 96.208 151.349 96.032L156.725 90.272C157.541 89.392 158.125 88.584 158.477 87.848C158.845 87.096 159.029 86.336 159.029 85.568C159.029 84.608 158.733 83.88 158.141 83.384C157.565 82.872 156.717 82.616 155.597 82.616C154.877 82.616 154.197 82.728 153.557 82.952C152.917 83.176 152.301 83.52 151.709 83.984C151.501 84.144 151.309 84.216 151.133 84.2C150.973 84.184 150.829 84.12 150.701 84.008C150.573 83.896 150.485 83.752 150.437 83.576C150.389 83.4 150.389 83.224 150.437 83.048C150.501 82.872 150.629 82.712 150.821 82.568C151.445 82.056 152.197 81.648 153.077 81.344C153.957 81.024 154.853 80.864 155.765 80.864C156.901 80.864 157.861 81.04 158.645 81.392C159.429 81.744 160.021 82.264 160.421 82.952C160.821 83.624 161.021 84.448 161.021 85.424C161.021 86.096 160.909 86.76 160.685 87.416C160.477 88.056 160.149 88.712 159.701 89.384C159.269 90.056 158.701 90.752 157.997 91.472L152.885 96.872V96.32H160.973C161.277 96.32 161.501 96.392 161.645 96.536C161.805 96.664 161.885 96.864 161.885 97.136C161.885 97.424 161.805 97.64 161.645 97.784C161.501 97.928 161.277 98 160.973 98H151.877ZM166.892 98C166.604 98 166.38 97.928 166.22 97.784C166.06 97.624 165.98 97.408 165.98 97.136C165.98 96.864 166.06 96.664 166.22 96.536C166.38 96.392 166.604 96.32 166.892 96.32H170.012V82.712H171.044L167.564 85.016C167.356 85.128 167.156 85.176 166.964 85.16C166.788 85.144 166.636 85.08 166.508 84.968C166.396 84.84 166.316 84.696 166.268 84.536C166.22 84.36 166.228 84.184 166.292 84.008C166.356 83.816 166.492 83.656 166.7 83.528L170.012 81.344C170.22 81.216 170.42 81.112 170.612 81.032C170.804 80.952 170.996 80.912 171.188 80.912C171.412 80.912 171.596 80.984 171.74 81.128C171.9 81.256 171.98 81.464 171.98 81.752V96.32H174.86C175.148 96.32 175.372 96.392 175.532 96.536C175.692 96.664 175.772 96.864 175.772 97.136C175.772 97.424 175.692 97.64 175.532 97.784C175.372 97.928 175.148 98 174.86 98H166.892Z" fill="white"/>
<path d="M305.096 18C304.744 18 304.48 17.92 304.304 17.76C304.144 17.584 304.064 17.352 304.064 17.064C304.064 16.888 304.104 16.72 304.184 16.56C304.28 16.384 304.408 16.208 304.568 16.032L309.944 10.272C310.76 9.392 311.344 8.584 311.696 7.848C312.064 7.096 312.248 6.336 312.248 5.568C312.248 4.608 311.952 3.88 311.36 3.384C310.784 2.872 309.936 2.616 308.816 2.616C308.096 2.616 307.416 2.728 306.776 2.952C306.136 3.176 305.52 3.52 304.928 3.984C304.72 4.144 304.528 4.216 304.352 4.2C304.192 4.184 304.048 4.12 303.92 4.008C303.792 3.896 303.704 3.752 303.656 3.576C303.608 3.4 303.608 3.224 303.656 3.048C303.72 2.872 303.848 2.712 304.04 2.568C304.664 2.056 305.416 1.648 306.296 1.344C307.176 1.024 308.072 0.863999 308.984 0.863999C310.12 0.863999 311.08 1.04 311.864 1.392C312.648 1.744 313.24 2.264 313.64 2.952C314.04 3.624 314.24 4.448 314.24 5.424C314.24 6.096 314.128 6.76 313.904 7.416C313.696 8.056 313.368 8.712 312.92 9.384C312.488 10.056 311.92 10.752 311.216 11.472L306.104 16.872V16.32H314.192C314.496 16.32 314.72 16.392 314.864 16.536C315.024 16.664 315.104 16.864 315.104 17.136C315.104 17.424 315.024 17.64 314.864 17.784C314.72 17.928 314.496 18 314.192 18H305.096ZM323.591 18.216C321.655 18.216 320.183 17.472 319.175 15.984C318.167 14.496 317.663 12.344 317.663 9.528C317.663 7.64 317.887 6.056 318.335 4.776C318.783 3.48 319.447 2.504 320.327 1.848C321.223 1.192 322.311 0.863999 323.591 0.863999C325.543 0.863999 327.015 1.6 328.007 3.072C329.015 4.528 329.519 6.672 329.519 9.504C329.519 11.392 329.295 12.984 328.847 14.28C328.399 15.576 327.735 16.56 326.855 17.232C325.975 17.888 324.887 18.216 323.591 18.216ZM323.591 16.512C324.935 16.512 325.927 15.944 326.567 14.808C327.223 13.656 327.551 11.888 327.551 9.504C327.551 7.104 327.223 5.352 326.567 4.248C325.927 3.128 324.935 2.568 323.591 2.568C322.263 2.568 321.271 3.128 320.615 4.248C319.959 5.368 319.631 7.12 319.631 9.504C319.631 11.888 319.959 13.656 320.615 14.808C321.271 15.944 322.263 16.512 323.591 16.512ZM333.877 18C333.525 18 333.261 17.92 333.085 17.76C332.925 17.584 332.845 17.352 332.845 17.064C332.845 16.888 332.885 16.72 332.965 16.56C333.061 16.384 333.189 16.208 333.349 16.032L338.725 10.272C339.541 9.392 340.125 8.584 340.477 7.848C340.845 7.096 341.029 6.336 341.029 5.568C341.029 4.608 340.733 3.88 340.141 3.384C339.565 2.872 338.717 2.616 337.597 2.616C336.877 2.616 336.197 2.728 335.557 2.952C334.917 3.176 334.301 3.52 333.709 3.984C333.501 4.144 333.309 4.216 333.133 4.2C332.973 4.184 332.829 4.12 332.701 4.008C332.573 3.896 332.485 3.752 332.437 3.576C332.389 3.4 332.389 3.224 332.437 3.048C332.501 2.872 332.629 2.712 332.821 2.568C333.445 2.056 334.197 1.648 335.077 1.344C335.957 1.024 336.853 0.863999 337.765 0.863999C338.901 0.863999 339.861 1.04 340.645 1.392C341.429 1.744 342.021 2.264 342.421 2.952C342.821 3.624 343.021 4.448 343.021 5.424C343.021 6.096 342.909 6.76 342.685 7.416C342.477 8.056 342.149 8.712 341.701 9.384C341.269 10.056 340.701 10.752 339.997 11.472L334.885 16.872V16.32H342.973C343.277 16.32 343.501 16.392 343.645 16.536C343.805 16.664 343.885 16.864 343.885 17.136C343.885 17.424 343.805 17.64 343.645 17.784C343.501 17.928 343.277 18 342.973 18H333.877ZM348.268 18C347.916 18 347.652 17.92 347.476 17.76C347.316 17.584 347.236 17.352 347.236 17.064C347.236 16.888 347.276 16.72 347.356 16.56C347.452 16.384 347.58 16.208 347.74 16.032L353.116 10.272C353.932 9.392 354.516 8.584 354.868 7.848C355.236 7.096 355.42 6.336 355.42 5.568C355.42 4.608 355.124 3.88 354.532 3.384C353.956 2.872 353.108 2.616 351.988 2.616C351.268 2.616 350.588 2.728 349.948 2.952C349.308 3.176 348.692 3.52 348.1 3.984C347.892 4.144 347.7 4.216 347.524 4.2C347.364 4.184 347.22 4.12 347.092 4.008C346.964 3.896 346.876 3.752 346.828 3.576C346.78 3.4 346.78 3.224 346.828 3.048C346.892 2.872 347.02 2.712 347.212 2.568C347.836 2.056 348.588 1.648 349.468 1.344C350.348 1.024 351.244 0.863999 352.156 0.863999C353.292 0.863999 354.252 1.04 355.036 1.392C355.82 1.744 356.412 2.264 356.812 2.952C357.212 3.624 357.412 4.448 357.412 5.424C357.412 6.096 357.3 6.76 357.076 7.416C356.868 8.056 356.54 8.712 356.092 9.384C355.66 10.056 355.092 10.752 354.388 11.472L349.276 16.872V16.32H357.364C357.668 16.32 357.892 16.392 358.036 16.536C358.196 16.664 358.276 16.864 358.276 17.136C358.276 17.424 358.196 17.64 358.036 17.784C357.892 17.928 357.668 18 357.364 18H348.268Z" fill="white"/>
<path d="M653.096 18C652.744 18 652.48 17.92 652.304 17.76C652.144 17.584 652.064 17.352 652.064 17.064C652.064 16.888 652.104 16.72 652.184 16.56C652.28 16.384 652.408 16.208 652.568 16.032L657.944 10.272C658.76 9.392 659.344 8.584 659.696 7.848C660.064 7.096 660.248 6.336 660.248 5.568C660.248 4.608 659.952 3.88 659.36 3.384C658.784 2.872 657.936 2.616 656.816 2.616C656.096 2.616 655.416 2.728 654.776 2.952C654.136 3.176 653.52 3.52 652.928 3.984C652.72 4.144 652.528 4.216 652.352 4.2C652.192 4.184 652.048 4.12 651.92 4.008C651.792 3.896 651.704 3.752 651.656 3.576C651.608 3.4 651.608 3.224 651.656 3.048C651.72 2.872 651.848 2.712 652.04 2.568C652.664 2.056 653.416 1.648 654.296 1.344C655.176 1.024 656.072 0.863999 656.984 0.863999C658.12 0.863999 659.08 1.04 659.864 1.392C660.648 1.744 661.24 2.264 661.64 2.952C662.04 3.624 662.24 4.448 662.24 5.424C662.24 6.096 662.128 6.76 661.904 7.416C661.696 8.056 661.368 8.712 660.92 9.384C660.488 10.056 659.92 10.752 659.216 11.472L654.104 16.872V16.32H662.192C662.496 16.32 662.72 16.392 662.864 16.536C663.024 16.664 663.104 16.864 663.104 17.136C663.104 17.424 663.024 17.64 662.864 17.784C662.72 17.928 662.496 18 662.192 18H653.096ZM671.591 18.216C669.655 18.216 668.183 17.472 667.175 15.984C666.167 14.496 665.663 12.344 665.663 9.528C665.663 7.64 665.887 6.056 666.335 4.776C666.783 3.48 667.447 2.504 668.327 1.848C669.223 1.192 670.311 0.863999 671.591 0.863999C673.543 0.863999 675.015 1.6 676.007 3.072C677.015 4.528 677.519 6.672 677.519 9.504C677.519 11.392 677.295 12.984 676.847 14.28C676.399 15.576 675.735 16.56 674.855 17.232C673.975 17.888 672.887 18.216 671.591 18.216ZM671.591 16.512C672.935 16.512 673.927 15.944 674.567 14.808C675.223 13.656 675.551 11.888 675.551 9.504C675.551 7.104 675.223 5.352 674.567 4.248C673.927 3.128 672.935 2.568 671.591 2.568C670.263 2.568 669.271 3.128 668.615 4.248C667.959 5.368 667.631 7.12 667.631 9.504C667.631 11.888 667.959 13.656 668.615 14.808C669.271 15.944 670.263 16.512 671.591 16.512ZM681.877 18C681.525 18 681.261 17.92 681.085 17.76C680.925 17.584 680.845 17.352 680.845 17.064C680.845 16.888 680.885 16.72 680.965 16.56C681.061 16.384 681.189 16.208 681.349 16.032L686.725 10.272C687.541 9.392 688.125 8.584 688.477 7.848C688.845 7.096 689.029 6.336 689.029 5.568C689.029 4.608 688.733 3.88 688.141 3.384C687.565 2.872 686.717 2.616 685.597 2.616C684.877 2.616 684.197 2.728 683.557 2.952C682.917 3.176 682.301 3.52 681.709 3.984C681.501 4.144 681.309 4.216 681.133 4.2C680.973 4.184 680.829 4.12 680.701 4.008C680.573 3.896 680.485 3.752 680.437 3.576C680.389 3.4 680.389 3.224 680.437 3.048C680.501 2.872 680.629 2.712 680.821 2.568C681.445 2.056 682.197 1.648 683.077 1.344C683.957 1.024 684.853 0.863999 685.765 0.863999C686.901 0.863999 687.861 1.04 688.645 1.392C689.429 1.744 690.021 2.264 690.421 2.952C690.821 3.624 691.021 4.448 691.021 5.424C691.021 6.096 690.909 6.76 690.685 7.416C690.477 8.056 690.149 8.712 689.701 9.384C689.269 10.056 688.701 10.752 687.997 11.472L682.885 16.872V16.32H690.973C691.277 16.32 691.501 16.392 691.645 16.536C691.805 16.664 691.885 16.864 691.885 17.136C691.885 17.424 691.805 17.64 691.645 17.784C691.501 17.928 691.277 18 690.973 18H681.877ZM700.18 18.216C699.252 18.216 698.316 18.08 697.372 17.808C696.444 17.536 695.636 17.136 694.948 16.608C694.74 16.464 694.604 16.304 694.54 16.128C694.476 15.936 694.46 15.76 694.492 15.6C694.54 15.424 694.628 15.28 694.756 15.168C694.884 15.04 695.036 14.968 695.212 14.952C695.404 14.936 695.612 15 695.836 15.144C696.54 15.608 697.244 15.944 697.948 16.152C698.652 16.36 699.38 16.464 700.132 16.464C700.948 16.464 701.636 16.344 702.196 16.104C702.756 15.864 703.18 15.512 703.468 15.048C703.756 14.568 703.9 13.984 703.9 13.296C703.9 12.304 703.572 11.552 702.916 11.04C702.26 10.528 701.308 10.272 700.06 10.272H698.356C698.052 10.272 697.82 10.2 697.66 10.056C697.5 9.896 697.42 9.68 697.42 9.408C697.42 9.152 697.5 8.952 697.66 8.808C697.82 8.648 698.052 8.568 698.356 8.568H699.892C700.628 8.568 701.252 8.44 701.764 8.184C702.292 7.928 702.7 7.568 702.988 7.104C703.276 6.624 703.42 6.048 703.42 5.376C703.42 4.48 703.132 3.8 702.556 3.336C701.98 2.856 701.148 2.616 700.06 2.616C699.34 2.616 698.66 2.72 698.02 2.928C697.38 3.136 696.748 3.488 696.124 3.984C695.932 4.128 695.74 4.2 695.548 4.2C695.372 4.184 695.22 4.128 695.092 4.032C694.98 3.92 694.892 3.776 694.828 3.6C694.78 3.424 694.788 3.248 694.852 3.072C694.916 2.88 695.052 2.704 695.26 2.544C695.9 2 696.652 1.584 697.516 1.296C698.38 1.008 699.268 0.863999 700.18 0.863999C701.268 0.863999 702.196 1.04 702.964 1.392C703.748 1.728 704.348 2.224 704.764 2.88C705.18 3.52 705.388 4.296 705.388 5.208C705.388 5.896 705.252 6.528 704.98 7.104C704.724 7.664 704.356 8.144 703.876 8.544C703.412 8.944 702.844 9.232 702.172 9.408V9.144C703.34 9.336 704.244 9.816 704.884 10.584C705.54 11.336 705.868 12.288 705.868 13.44C705.868 14.416 705.636 15.264 705.172 15.984C704.724 16.688 704.076 17.24 703.228 17.64C702.38 18.024 701.364 18.216 700.18 18.216ZM728.798 21.192C728.958 21.432 729.022 21.648 728.99 21.84C728.974 22.048 728.894 22.216 728.75 22.344C728.622 22.488 728.462 22.576 728.27 22.608C728.078 22.656 727.878 22.632 727.67 22.536C727.478 22.456 727.31 22.296 727.166 22.056L725.606 19.584C725.35 19.136 724.998 18.792 724.55 18.552C724.102 18.328 723.566 18.216 722.942 18.216L724.574 17.52C725.326 17.52 725.918 17.656 726.35 17.928C726.798 18.184 727.238 18.664 727.67 19.368L728.798 21.192ZM722.942 18.216C721.374 18.216 720.006 17.864 718.838 17.16C717.686 16.44 716.79 15.432 716.15 14.136C715.526 12.84 715.214 11.304 715.214 9.528C715.214 8.184 715.39 6.984 715.742 5.928C716.11 4.856 716.63 3.952 717.302 3.216C717.974 2.464 718.782 1.888 719.726 1.488C720.686 1.072 721.758 0.863999 722.942 0.863999C724.542 0.863999 725.918 1.216 727.07 1.92C728.238 2.624 729.134 3.624 729.758 4.92C730.398 6.2 730.718 7.728 730.718 9.504C730.718 10.848 730.534 12.056 730.166 13.128C729.798 14.2 729.278 15.112 728.606 15.864C727.934 16.616 727.118 17.2 726.158 17.616C725.214 18.016 724.142 18.216 722.942 18.216ZM722.942 16.464C724.158 16.464 725.182 16.192 726.014 15.648C726.862 15.104 727.51 14.312 727.958 13.272C728.406 12.232 728.63 10.984 728.63 9.528C728.63 7.336 728.134 5.64 727.142 4.44C726.166 3.224 724.766 2.616 722.942 2.616C721.758 2.616 720.742 2.888 719.894 3.432C719.062 3.976 718.422 4.768 717.974 5.808C717.526 6.832 717.302 8.072 717.302 9.528C717.302 11.704 717.798 13.408 718.79 14.64C719.782 15.856 721.166 16.464 722.942 16.464ZM735.244 18C734.892 18 734.628 17.92 734.452 17.76C734.292 17.584 734.212 17.352 734.212 17.064C734.212 16.888 734.252 16.72 734.332 16.56C734.428 16.384 734.556 16.208 734.716 16.032L740.092 10.272C740.908 9.392 741.492 8.584 741.844 7.848C742.212 7.096 742.396 6.336 742.396 5.568C742.396 4.608 742.1 3.88 741.508 3.384C740.932 2.872 740.084 2.616 738.964 2.616C738.244 2.616 737.564 2.728 736.924 2.952C736.284 3.176 735.668 3.52 735.076 3.984C734.868 4.144 734.676 4.216 734.5 4.2C734.34 4.184 734.196 4.12 734.068 4.008C733.94 3.896 733.852 3.752 733.804 3.576C733.756 3.4 733.756 3.224 733.804 3.048C733.868 2.872 733.996 2.712 734.188 2.568C734.812 2.056 735.564 1.648 736.444 1.344C737.324 1.024 738.22 0.863999 739.132 0.863999C740.268 0.863999 741.228 1.04 742.012 1.392C742.796 1.744 743.388 2.264 743.788 2.952C744.188 3.624 744.388 4.448 744.388 5.424C744.388 6.096 744.276 6.76 744.052 7.416C743.844 8.056 743.516 8.712 743.068 9.384C742.636 10.056 742.068 10.752 741.364 11.472L736.252 16.872V16.32H744.34C744.644 16.32 744.868 16.392 745.012 16.536C745.172 16.664 745.252 16.864 745.252 17.136C745.252 17.424 745.172 17.64 745.012 17.784C744.868 17.928 744.644 18 744.34 18H735.244Z" fill="white"/>
<path d="M1019.1 18C1018.74 18 1018.48 17.92 1018.3 17.76C1018.14 17.584 1018.06 17.352 1018.06 17.064C1018.06 16.888 1018.1 16.72 1018.18 16.56C1018.28 16.384 1018.41 16.208 1018.57 16.032L1023.94 10.272C1024.76 9.392 1025.34 8.584 1025.7 7.848C1026.06 7.096 1026.25 6.336 1026.25 5.568C1026.25 4.608 1025.95 3.88 1025.36 3.384C1024.78 2.872 1023.94 2.616 1022.82 2.616C1022.1 2.616 1021.42 2.728 1020.78 2.952C1020.14 3.176 1019.52 3.52 1018.93 3.984C1018.72 4.144 1018.53 4.216 1018.35 4.2C1018.19 4.184 1018.05 4.12 1017.92 4.008C1017.79 3.896 1017.7 3.752 1017.66 3.576C1017.61 3.4 1017.61 3.224 1017.66 3.048C1017.72 2.872 1017.85 2.712 1018.04 2.568C1018.66 2.056 1019.42 1.648 1020.3 1.344C1021.18 1.024 1022.07 0.863999 1022.98 0.863999C1024.12 0.863999 1025.08 1.04 1025.86 1.392C1026.65 1.744 1027.24 2.264 1027.64 2.952C1028.04 3.624 1028.24 4.448 1028.24 5.424C1028.24 6.096 1028.13 6.76 1027.9 7.416C1027.7 8.056 1027.37 8.712 1026.92 9.384C1026.49 10.056 1025.92 10.752 1025.22 11.472L1020.1 16.872V16.32H1028.19C1028.5 16.32 1028.72 16.392 1028.86 16.536C1029.02 16.664 1029.1 16.864 1029.1 17.136C1029.1 17.424 1029.02 17.64 1028.86 17.784C1028.72 17.928 1028.5 18 1028.19 18H1019.1ZM1037.59 18.216C1035.65 18.216 1034.18 17.472 1033.17 15.984C1032.17 14.496 1031.66 12.344 1031.66 9.528C1031.66 7.64 1031.89 6.056 1032.33 4.776C1032.78 3.48 1033.45 2.504 1034.33 1.848C1035.22 1.192 1036.31 0.863999 1037.59 0.863999C1039.54 0.863999 1041.01 1.6 1042.01 3.072C1043.01 4.528 1043.52 6.672 1043.52 9.504C1043.52 11.392 1043.29 12.984 1042.85 14.28C1042.4 15.576 1041.73 16.56 1040.85 17.232C1039.97 17.888 1038.89 18.216 1037.59 18.216ZM1037.59 16.512C1038.93 16.512 1039.93 15.944 1040.57 14.808C1041.22 13.656 1041.55 11.888 1041.55 9.504C1041.55 7.104 1041.22 5.352 1040.57 4.248C1039.93 3.128 1038.93 2.568 1037.59 2.568C1036.26 2.568 1035.27 3.128 1034.61 4.248C1033.96 5.368 1033.63 7.12 1033.63 9.504C1033.63 11.888 1033.96 13.656 1034.61 14.808C1035.27 15.944 1036.26 16.512 1037.59 16.512ZM1047.88 18C1047.53 18 1047.26 17.92 1047.09 17.76C1046.93 17.584 1046.85 17.352 1046.85 17.064C1046.85 16.888 1046.89 16.72 1046.97 16.56C1047.06 16.384 1047.19 16.208 1047.35 16.032L1052.73 10.272C1053.54 9.392 1054.13 8.584 1054.48 7.848C1054.85 7.096 1055.03 6.336 1055.03 5.568C1055.03 4.608 1054.73 3.88 1054.14 3.384C1053.57 2.872 1052.72 2.616 1051.6 2.616C1050.88 2.616 1050.2 2.728 1049.56 2.952C1048.92 3.176 1048.3 3.52 1047.71 3.984C1047.5 4.144 1047.31 4.216 1047.13 4.2C1046.97 4.184 1046.83 4.12 1046.7 4.008C1046.57 3.896 1046.49 3.752 1046.44 3.576C1046.39 3.4 1046.39 3.224 1046.44 3.048C1046.5 2.872 1046.63 2.712 1046.82 2.568C1047.45 2.056 1048.2 1.648 1049.08 1.344C1049.96 1.024 1050.85 0.863999 1051.77 0.863999C1052.9 0.863999 1053.86 1.04 1054.65 1.392C1055.43 1.744 1056.02 2.264 1056.42 2.952C1056.82 3.624 1057.02 4.448 1057.02 5.424C1057.02 6.096 1056.91 6.76 1056.69 7.416C1056.48 8.056 1056.15 8.712 1055.7 9.384C1055.27 10.056 1054.7 10.752 1054 11.472L1048.89 16.872V16.32H1056.97C1057.28 16.32 1057.5 16.392 1057.65 16.536C1057.81 16.664 1057.89 16.864 1057.89 17.136C1057.89 17.424 1057.81 17.64 1057.65 17.784C1057.5 17.928 1057.28 18 1056.97 18H1047.88ZM1066.18 18.216C1065.25 18.216 1064.32 18.08 1063.37 17.808C1062.44 17.536 1061.64 17.136 1060.95 16.608C1060.74 16.464 1060.6 16.304 1060.54 16.128C1060.48 15.936 1060.46 15.76 1060.49 15.6C1060.54 15.424 1060.63 15.28 1060.76 15.168C1060.88 15.04 1061.04 14.968 1061.21 14.952C1061.4 14.936 1061.61 15 1061.84 15.144C1062.54 15.608 1063.24 15.944 1063.95 16.152C1064.65 16.36 1065.38 16.464 1066.13 16.464C1066.95 16.464 1067.64 16.344 1068.2 16.104C1068.76 15.864 1069.18 15.512 1069.47 15.048C1069.76 14.568 1069.9 13.984 1069.9 13.296C1069.9 12.304 1069.57 11.552 1068.92 11.04C1068.26 10.528 1067.31 10.272 1066.06 10.272H1064.36C1064.05 10.272 1063.82 10.2 1063.66 10.056C1063.5 9.896 1063.42 9.68 1063.42 9.408C1063.42 9.152 1063.5 8.952 1063.66 8.808C1063.82 8.648 1064.05 8.568 1064.36 8.568H1065.89C1066.63 8.568 1067.25 8.44 1067.76 8.184C1068.29 7.928 1068.7 7.568 1068.99 7.104C1069.28 6.624 1069.42 6.048 1069.42 5.376C1069.42 4.48 1069.13 3.8 1068.56 3.336C1067.98 2.856 1067.15 2.616 1066.06 2.616C1065.34 2.616 1064.66 2.72 1064.02 2.928C1063.38 3.136 1062.75 3.488 1062.12 3.984C1061.93 4.128 1061.74 4.2 1061.55 4.2C1061.37 4.184 1061.22 4.128 1061.09 4.032C1060.98 3.92 1060.89 3.776 1060.83 3.6C1060.78 3.424 1060.79 3.248 1060.85 3.072C1060.92 2.88 1061.05 2.704 1061.26 2.544C1061.9 2 1062.65 1.584 1063.52 1.296C1064.38 1.008 1065.27 0.863999 1066.18 0.863999C1067.27 0.863999 1068.2 1.04 1068.96 1.392C1069.75 1.728 1070.35 2.224 1070.76 2.88C1071.18 3.52 1071.39 4.296 1071.39 5.208C1071.39 5.896 1071.25 6.528 1070.98 7.104C1070.72 7.664 1070.36 8.144 1069.88 8.544C1069.41 8.944 1068.84 9.232 1068.17 9.408V9.144C1069.34 9.336 1070.24 9.816 1070.88 10.584C1071.54 11.336 1071.87 12.288 1071.87 13.44C1071.87 14.416 1071.64 15.264 1071.17 15.984C1070.72 16.688 1070.08 17.24 1069.23 17.64C1068.38 18.024 1067.36 18.216 1066.18 18.216ZM1094.8 21.192C1094.96 21.432 1095.02 21.648 1094.99 21.84C1094.97 22.048 1094.89 22.216 1094.75 22.344C1094.62 22.488 1094.46 22.576 1094.27 22.608C1094.08 22.656 1093.88 22.632 1093.67 22.536C1093.48 22.456 1093.31 22.296 1093.17 22.056L1091.61 19.584C1091.35 19.136 1091 18.792 1090.55 18.552C1090.1 18.328 1089.57 18.216 1088.94 18.216L1090.57 17.52C1091.33 17.52 1091.92 17.656 1092.35 17.928C1092.8 18.184 1093.24 18.664 1093.67 19.368L1094.8 21.192ZM1088.94 18.216C1087.37 18.216 1086.01 17.864 1084.84 17.16C1083.69 16.44 1082.79 15.432 1082.15 14.136C1081.53 12.84 1081.21 11.304 1081.21 9.528C1081.21 8.184 1081.39 6.984 1081.74 5.928C1082.11 4.856 1082.63 3.952 1083.3 3.216C1083.97 2.464 1084.78 1.888 1085.73 1.488C1086.69 1.072 1087.76 0.863999 1088.94 0.863999C1090.54 0.863999 1091.92 1.216 1093.07 1.92C1094.24 2.624 1095.13 3.624 1095.76 4.92C1096.4 6.2 1096.72 7.728 1096.72 9.504C1096.72 10.848 1096.53 12.056 1096.17 13.128C1095.8 14.2 1095.28 15.112 1094.61 15.864C1093.93 16.616 1093.12 17.2 1092.16 17.616C1091.21 18.016 1090.14 18.216 1088.94 18.216ZM1088.94 16.464C1090.16 16.464 1091.18 16.192 1092.01 15.648C1092.86 15.104 1093.51 14.312 1093.96 13.272C1094.41 12.232 1094.63 10.984 1094.63 9.528C1094.63 7.336 1094.13 5.64 1093.14 4.44C1092.17 3.224 1090.77 2.616 1088.94 2.616C1087.76 2.616 1086.74 2.888 1085.89 3.432C1085.06 3.976 1084.42 4.768 1083.97 5.808C1083.53 6.832 1083.3 8.072 1083.3 9.528C1083.3 11.704 1083.8 13.408 1084.79 14.64C1085.78 15.856 1087.17 16.464 1088.94 16.464ZM1108.18 18.168C1107.88 18.168 1107.64 18.08 1107.46 17.904C1107.28 17.728 1107.2 17.48 1107.2 17.16V14.376H1100.31C1099.99 14.376 1099.73 14.304 1099.54 14.16C1099.36 14 1099.28 13.776 1099.28 13.488C1099.28 13.312 1099.32 13.136 1099.4 12.96C1099.48 12.768 1099.62 12.528 1099.83 12.24L1107.15 1.584C1107.29 1.36 1107.45 1.192 1107.63 1.08C1107.8 0.967999 1108.01 0.912 1108.25 0.912C1108.51 0.912 1108.72 0.992 1108.9 1.152C1109.09 1.312 1109.19 1.568 1109.19 1.92V12.696H1110.94C1111.24 12.696 1111.48 12.768 1111.64 12.912C1111.8 13.056 1111.88 13.264 1111.88 13.536C1111.88 13.808 1111.8 14.016 1111.64 14.16C1111.48 14.304 1111.24 14.376 1110.94 14.376H1109.19V17.16C1109.19 17.48 1109.1 17.728 1108.92 17.904C1108.75 18.08 1108.5 18.168 1108.18 18.168ZM1107.2 12.696V3.384H1107.77L1101.05 13.224V12.696H1107.2Z" fill="white"/>
<path d="M1386.1 18C1385.74 18 1385.48 17.92 1385.3 17.76C1385.14 17.584 1385.06 17.352 1385.06 17.064C1385.06 16.888 1385.1 16.72 1385.18 16.56C1385.28 16.384 1385.41 16.208 1385.57 16.032L1390.94 10.272C1391.76 9.392 1392.34 8.584 1392.7 7.848C1393.06 7.096 1393.25 6.336 1393.25 5.568C1393.25 4.608 1392.95 3.88 1392.36 3.384C1391.78 2.872 1390.94 2.616 1389.82 2.616C1389.1 2.616 1388.42 2.728 1387.78 2.952C1387.14 3.176 1386.52 3.52 1385.93 3.984C1385.72 4.144 1385.53 4.216 1385.35 4.2C1385.19 4.184 1385.05 4.12 1384.92 4.008C1384.79 3.896 1384.7 3.752 1384.66 3.576C1384.61 3.4 1384.61 3.224 1384.66 3.048C1384.72 2.872 1384.85 2.712 1385.04 2.568C1385.66 2.056 1386.42 1.648 1387.3 1.344C1388.18 1.024 1389.07 0.863999 1389.98 0.863999C1391.12 0.863999 1392.08 1.04 1392.86 1.392C1393.65 1.744 1394.24 2.264 1394.64 2.952C1395.04 3.624 1395.24 4.448 1395.24 5.424C1395.24 6.096 1395.13 6.76 1394.9 7.416C1394.7 8.056 1394.37 8.712 1393.92 9.384C1393.49 10.056 1392.92 10.752 1392.22 11.472L1387.1 16.872V16.32H1395.19C1395.5 16.32 1395.72 16.392 1395.86 16.536C1396.02 16.664 1396.1 16.864 1396.1 17.136C1396.1 17.424 1396.02 17.64 1395.86 17.784C1395.72 17.928 1395.5 18 1395.19 18H1386.1ZM1404.59 18.216C1402.65 18.216 1401.18 17.472 1400.17 15.984C1399.17 14.496 1398.66 12.344 1398.66 9.528C1398.66 7.64 1398.89 6.056 1399.33 4.776C1399.78 3.48 1400.45 2.504 1401.33 1.848C1402.22 1.192 1403.31 0.863999 1404.59 0.863999C1406.54 0.863999 1408.01 1.6 1409.01 3.072C1410.01 4.528 1410.52 6.672 1410.52 9.504C1410.52 11.392 1410.29 12.984 1409.85 14.28C1409.4 15.576 1408.73 16.56 1407.85 17.232C1406.97 17.888 1405.89 18.216 1404.59 18.216ZM1404.59 16.512C1405.93 16.512 1406.93 15.944 1407.57 14.808C1408.22 13.656 1408.55 11.888 1408.55 9.504C1408.55 7.104 1408.22 5.352 1407.57 4.248C1406.93 3.128 1405.93 2.568 1404.59 2.568C1403.26 2.568 1402.27 3.128 1401.61 4.248C1400.96 5.368 1400.63 7.12 1400.63 9.504C1400.63 11.888 1400.96 13.656 1401.61 14.808C1402.27 15.944 1403.26 16.512 1404.59 16.512ZM1414.88 18C1414.53 18 1414.26 17.92 1414.09 17.76C1413.93 17.584 1413.85 17.352 1413.85 17.064C1413.85 16.888 1413.89 16.72 1413.97 16.56C1414.06 16.384 1414.19 16.208 1414.35 16.032L1419.73 10.272C1420.54 9.392 1421.13 8.584 1421.48 7.848C1421.85 7.096 1422.03 6.336 1422.03 5.568C1422.03 4.608 1421.73 3.88 1421.14 3.384C1420.57 2.872 1419.72 2.616 1418.6 2.616C1417.88 2.616 1417.2 2.728 1416.56 2.952C1415.92 3.176 1415.3 3.52 1414.71 3.984C1414.5 4.144 1414.31 4.216 1414.13 4.2C1413.97 4.184 1413.83 4.12 1413.7 4.008C1413.57 3.896 1413.49 3.752 1413.44 3.576C1413.39 3.4 1413.39 3.224 1413.44 3.048C1413.5 2.872 1413.63 2.712 1413.82 2.568C1414.45 2.056 1415.2 1.648 1416.08 1.344C1416.96 1.024 1417.85 0.863999 1418.77 0.863999C1419.9 0.863999 1420.86 1.04 1421.65 1.392C1422.43 1.744 1423.02 2.264 1423.42 2.952C1423.82 3.624 1424.02 4.448 1424.02 5.424C1424.02 6.096 1423.91 6.76 1423.69 7.416C1423.48 8.056 1423.15 8.712 1422.7 9.384C1422.27 10.056 1421.7 10.752 1421 11.472L1415.89 16.872V16.32H1423.97C1424.28 16.32 1424.5 16.392 1424.65 16.536C1424.81 16.664 1424.89 16.864 1424.89 17.136C1424.89 17.424 1424.81 17.64 1424.65 17.784C1424.5 17.928 1424.28 18 1423.97 18H1414.88ZM1436.2 18.168C1435.9 18.168 1435.66 18.08 1435.48 17.904C1435.31 17.728 1435.22 17.48 1435.22 17.16V14.376H1428.33C1428.01 14.376 1427.76 14.304 1427.56 14.16C1427.39 14 1427.3 13.776 1427.3 13.488C1427.3 13.312 1427.34 13.136 1427.42 12.96C1427.5 12.768 1427.64 12.528 1427.85 12.24L1435.17 1.584C1435.32 1.36 1435.48 1.192 1435.65 1.08C1435.83 0.967999 1436.04 0.912 1436.28 0.912C1436.53 0.912 1436.75 0.992 1436.92 1.152C1437.12 1.312 1437.21 1.568 1437.21 1.92V12.696H1438.96C1439.27 12.696 1439.5 12.768 1439.66 12.912C1439.82 13.056 1439.9 13.264 1439.9 13.536C1439.9 13.808 1439.82 14.016 1439.66 14.16C1439.5 14.304 1439.27 14.376 1438.96 14.376H1437.21V17.16C1437.21 17.48 1437.12 17.728 1436.95 17.904C1436.77 18.08 1436.52 18.168 1436.2 18.168ZM1435.22 12.696V3.384H1435.8L1429.08 13.224V12.696H1435.22ZM1461.8 21.192C1461.96 21.432 1462.02 21.648 1461.99 21.84C1461.97 22.048 1461.89 22.216 1461.75 22.344C1461.62 22.488 1461.46 22.576 1461.27 22.608C1461.08 22.656 1460.88 22.632 1460.67 22.536C1460.48 22.456 1460.31 22.296 1460.17 22.056L1458.61 19.584C1458.35 19.136 1458 18.792 1457.55 18.552C1457.1 18.328 1456.57 18.216 1455.94 18.216L1457.57 17.52C1458.33 17.52 1458.92 17.656 1459.35 17.928C1459.8 18.184 1460.24 18.664 1460.67 19.368L1461.8 21.192ZM1455.94 18.216C1454.37 18.216 1453.01 17.864 1451.84 17.16C1450.69 16.44 1449.79 15.432 1449.15 14.136C1448.53 12.84 1448.21 11.304 1448.21 9.528C1448.21 8.184 1448.39 6.984 1448.74 5.928C1449.11 4.856 1449.63 3.952 1450.3 3.216C1450.97 2.464 1451.78 1.888 1452.73 1.488C1453.69 1.072 1454.76 0.863999 1455.94 0.863999C1457.54 0.863999 1458.92 1.216 1460.07 1.92C1461.24 2.624 1462.13 3.624 1462.76 4.92C1463.4 6.2 1463.72 7.728 1463.72 9.504C1463.72 10.848 1463.53 12.056 1463.17 13.128C1462.8 14.2 1462.28 15.112 1461.61 15.864C1460.93 16.616 1460.12 17.2 1459.16 17.616C1458.21 18.016 1457.14 18.216 1455.94 18.216ZM1455.94 16.464C1457.16 16.464 1458.18 16.192 1459.01 15.648C1459.86 15.104 1460.51 14.312 1460.96 13.272C1461.41 12.232 1461.63 10.984 1461.63 9.528C1461.63 7.336 1461.13 5.64 1460.14 4.44C1459.17 3.224 1457.77 2.616 1455.94 2.616C1454.76 2.616 1453.74 2.888 1452.89 3.432C1452.06 3.976 1451.42 4.768 1450.97 5.808C1450.53 6.832 1450.3 8.072 1450.3 9.528C1450.3 11.704 1450.8 13.408 1451.79 14.64C1452.78 15.856 1454.17 16.464 1455.94 16.464ZM1468.24 18C1467.89 18 1467.63 17.92 1467.45 17.76C1467.29 17.584 1467.21 17.352 1467.21 17.064C1467.21 16.888 1467.25 16.72 1467.33 16.56C1467.43 16.384 1467.56 16.208 1467.72 16.032L1473.09 10.272C1473.91 9.392 1474.49 8.584 1474.84 7.848C1475.21 7.096 1475.4 6.336 1475.4 5.568C1475.4 4.608 1475.1 3.88 1474.51 3.384C1473.93 2.872 1473.08 2.616 1471.96 2.616C1471.24 2.616 1470.56 2.728 1469.92 2.952C1469.28 3.176 1468.67 3.52 1468.08 3.984C1467.87 4.144 1467.68 4.216 1467.5 4.2C1467.34 4.184 1467.2 4.12 1467.07 4.008C1466.94 3.896 1466.85 3.752 1466.8 3.576C1466.76 3.4 1466.76 3.224 1466.8 3.048C1466.87 2.872 1467 2.712 1467.19 2.568C1467.81 2.056 1468.56 1.648 1469.44 1.344C1470.32 1.024 1471.22 0.863999 1472.13 0.863999C1473.27 0.863999 1474.23 1.04 1475.01 1.392C1475.8 1.744 1476.39 2.264 1476.79 2.952C1477.19 3.624 1477.39 4.448 1477.39 5.424C1477.39 6.096 1477.28 6.76 1477.05 7.416C1476.84 8.056 1476.52 8.712 1476.07 9.384C1475.64 10.056 1475.07 10.752 1474.36 11.472L1469.25 16.872V16.32H1477.34C1477.64 16.32 1477.87 16.392 1478.01 16.536C1478.17 16.664 1478.25 16.864 1478.25 17.136C1478.25 17.424 1478.17 17.64 1478.01 17.784C1477.87 17.928 1477.64 18 1477.34 18H1468.24Z" fill="white"/>
<path d="M470.096 98C469.744 98 469.48 97.92 469.304 97.76C469.144 97.584 469.064 97.352 469.064 97.064C469.064 96.888 469.104 96.72 469.184 96.56C469.28 96.384 469.408 96.208 469.568 96.032L474.944 90.272C475.76 89.392 476.344 88.584 476.696 87.848C477.064 87.096 477.248 86.336 477.248 85.568C477.248 84.608 476.952 83.88 476.36 83.384C475.784 82.872 474.936 82.616 473.816 82.616C473.096 82.616 472.416 82.728 471.776 82.952C471.136 83.176 470.52 83.52 469.928 83.984C469.72 84.144 469.528 84.216 469.352 84.2C469.192 84.184 469.048 84.12 468.92 84.008C468.792 83.896 468.704 83.752 468.656 83.576C468.608 83.4 468.608 83.224 468.656 83.048C468.72 82.872 468.848 82.712 469.04 82.568C469.664 82.056 470.416 81.648 471.296 81.344C472.176 81.024 473.072 80.864 473.984 80.864C475.12 80.864 476.08 81.04 476.864 81.392C477.648 81.744 478.24 82.264 478.64 82.952C479.04 83.624 479.24 84.448 479.24 85.424C479.24 86.096 479.128 86.76 478.904 87.416C478.696 88.056 478.368 88.712 477.92 89.384C477.488 90.056 476.92 90.752 476.216 91.472L471.104 96.872V96.32H479.192C479.496 96.32 479.72 96.392 479.864 96.536C480.024 96.664 480.104 96.864 480.104 97.136C480.104 97.424 480.024 97.64 479.864 97.784C479.72 97.928 479.496 98 479.192 98H470.096ZM488.591 98.216C486.655 98.216 485.183 97.472 484.175 95.984C483.167 94.496 482.663 92.344 482.663 89.528C482.663 87.64 482.887 86.056 483.335 84.776C483.783 83.48 484.447 82.504 485.327 81.848C486.223 81.192 487.311 80.864 488.591 80.864C490.543 80.864 492.015 81.6 493.007 83.072C494.015 84.528 494.519 86.672 494.519 89.504C494.519 91.392 494.295 92.984 493.847 94.28C493.399 95.576 492.735 96.56 491.855 97.232C490.975 97.888 489.887 98.216 488.591 98.216ZM488.591 96.512C489.935 96.512 490.927 95.944 491.567 94.808C492.223 93.656 492.551 91.888 492.551 89.504C492.551 87.104 492.223 85.352 491.567 84.248C490.927 83.128 489.935 82.568 488.591 82.568C487.263 82.568 486.271 83.128 485.615 84.248C484.959 85.368 484.631 87.12 484.631 89.504C484.631 91.888 484.959 93.656 485.615 94.808C486.271 95.944 487.263 96.512 488.591 96.512ZM498.877 98C498.525 98 498.261 97.92 498.085 97.76C497.925 97.584 497.845 97.352 497.845 97.064C497.845 96.888 497.885 96.72 497.965 96.56C498.061 96.384 498.189 96.208 498.349 96.032L503.725 90.272C504.541 89.392 505.125 88.584 505.477 87.848C505.845 87.096 506.029 86.336 506.029 85.568C506.029 84.608 505.733 83.88 505.141 83.384C504.565 82.872 503.717 82.616 502.597 82.616C501.877 82.616 501.197 82.728 500.557 82.952C499.917 83.176 499.301 83.52 498.709 83.984C498.501 84.144 498.309 84.216 498.133 84.2C497.973 84.184 497.829 84.12 497.701 84.008C497.573 83.896 497.485 83.752 497.437 83.576C497.389 83.4 497.389 83.224 497.437 83.048C497.501 82.872 497.629 82.712 497.821 82.568C498.445 82.056 499.197 81.648 500.077 81.344C500.957 81.024 501.853 80.864 502.765 80.864C503.901 80.864 504.861 81.04 505.645 81.392C506.429 81.744 507.021 82.264 507.421 82.952C507.821 83.624 508.021 84.448 508.021 85.424C508.021 86.096 507.909 86.76 507.685 87.416C507.477 88.056 507.149 88.712 506.701 89.384C506.269 90.056 505.701 90.752 504.997 91.472L499.885 96.872V96.32H507.973C508.277 96.32 508.501 96.392 508.645 96.536C508.805 96.664 508.885 96.864 508.885 97.136C508.885 97.424 508.805 97.64 508.645 97.784C508.501 97.928 508.277 98 507.973 98H498.877ZM517.18 98.216C516.252 98.216 515.316 98.08 514.372 97.808C513.444 97.536 512.636 97.136 511.948 96.608C511.74 96.464 511.604 96.304 511.54 96.128C511.476 95.936 511.46 95.76 511.492 95.6C511.54 95.424 511.628 95.28 511.756 95.168C511.884 95.04 512.036 94.968 512.212 94.952C512.404 94.936 512.612 95 512.836 95.144C513.54 95.608 514.244 95.944 514.948 96.152C515.652 96.36 516.38 96.464 517.132 96.464C517.948 96.464 518.636 96.344 519.196 96.104C519.756 95.864 520.18 95.512 520.468 95.048C520.756 94.568 520.9 93.984 520.9 93.296C520.9 92.304 520.572 91.552 519.916 91.04C519.26 90.528 518.308 90.272 517.06 90.272H515.356C515.052 90.272 514.82 90.2 514.66 90.056C514.5 89.896 514.42 89.68 514.42 89.408C514.42 89.152 514.5 88.952 514.66 88.808C514.82 88.648 515.052 88.568 515.356 88.568H516.892C517.628 88.568 518.252 88.44 518.764 88.184C519.292 87.928 519.7 87.568 519.988 87.104C520.276 86.624 520.42 86.048 520.42 85.376C520.42 84.48 520.132 83.8 519.556 83.336C518.98 82.856 518.148 82.616 517.06 82.616C516.34 82.616 515.66 82.72 515.02 82.928C514.38 83.136 513.748 83.488 513.124 83.984C512.932 84.128 512.74 84.2 512.548 84.2C512.372 84.184 512.22 84.128 512.092 84.032C511.98 83.92 511.892 83.776 511.828 83.6C511.78 83.424 511.788 83.248 511.852 83.072C511.916 82.88 512.052 82.704 512.26 82.544C512.9 82 513.652 81.584 514.516 81.296C515.38 81.008 516.268 80.864 517.18 80.864C518.268 80.864 519.196 81.04 519.964 81.392C520.748 81.728 521.348 82.224 521.764 82.88C522.18 83.52 522.388 84.296 522.388 85.208C522.388 85.896 522.252 86.528 521.98 87.104C521.724 87.664 521.356 88.144 520.876 88.544C520.412 88.944 519.844 89.232 519.172 89.408V89.144C520.34 89.336 521.244 89.816 521.884 90.584C522.54 91.336 522.868 92.288 522.868 93.44C522.868 94.416 522.636 95.264 522.172 95.984C521.724 96.688 521.076 97.24 520.228 97.64C519.38 98.024 518.364 98.216 517.18 98.216ZM545.798 101.192C545.958 101.432 546.022 101.648 545.99 101.84C545.974 102.048 545.894 102.216 545.75 102.344C545.622 102.488 545.462 102.576 545.27 102.608C545.078 102.656 544.878 102.632 544.67 102.536C544.478 102.456 544.31 102.296 544.166 102.056L542.606 99.584C542.35 99.136 541.998 98.792 541.55 98.552C541.102 98.328 540.566 98.216 539.942 98.216L541.574 97.52C542.326 97.52 542.918 97.656 543.35 97.928C543.798 98.184 544.238 98.664 544.67 99.368L545.798 101.192ZM539.942 98.216C538.374 98.216 537.006 97.864 535.838 97.16C534.686 96.44 533.79 95.432 533.15 94.136C532.526 92.84 532.214 91.304 532.214 89.528C532.214 88.184 532.39 86.984 532.742 85.928C533.11 84.856 533.63 83.952 534.302 83.216C534.974 82.464 535.782 81.888 536.726 81.488C537.686 81.072 538.758 80.864 539.942 80.864C541.542 80.864 542.918 81.216 544.07 81.92C545.238 82.624 546.134 83.624 546.758 84.92C547.398 86.2 547.718 87.728 547.718 89.504C547.718 90.848 547.534 92.056 547.166 93.128C546.798 94.2 546.278 95.112 545.606 95.864C544.934 96.616 544.118 97.2 543.158 97.616C542.214 98.016 541.142 98.216 539.942 98.216ZM539.942 96.464C541.158 96.464 542.182 96.192 543.014 95.648C543.862 95.104 544.51 94.312 544.958 93.272C545.406 92.232 545.63 90.984 545.63 89.528C545.63 87.336 545.134 85.64 544.142 84.44C543.166 83.224 541.766 82.616 539.942 82.616C538.758 82.616 537.742 82.888 536.894 83.432C536.062 83.976 535.422 84.768 534.974 85.808C534.526 86.832 534.302 88.072 534.302 89.528C534.302 91.704 534.798 93.408 535.79 94.64C536.782 95.856 538.166 96.464 539.942 96.464ZM552.868 98C552.58 98 552.356 97.928 552.196 97.784C552.036 97.624 551.956 97.408 551.956 97.136C551.956 96.864 552.036 96.664 552.196 96.536C552.356 96.392 552.58 96.32 552.868 96.32H555.988V82.712H557.02L553.54 85.016C553.332 85.128 553.132 85.176 552.94 85.16C552.764 85.144 552.612 85.08 552.484 84.968C552.372 84.84 552.292 84.696 552.244 84.536C552.196 84.36 552.204 84.184 552.268 84.008C552.332 83.816 552.468 83.656 552.676 83.528L555.988 81.344C556.196 81.216 556.396 81.112 556.588 81.032C556.78 80.952 556.972 80.912 557.164 80.912C557.388 80.912 557.572 80.984 557.716 81.128C557.876 81.256 557.956 81.464 557.956 81.752V96.32H560.836C561.124 96.32 561.348 96.392 561.508 96.536C561.668 96.664 561.748 96.864 561.748 97.136C561.748 97.424 561.668 97.64 561.508 97.784C561.348 97.928 561.124 98 560.836 98H552.868Z" fill="white"/>
<path d="M836.096 98C835.744 98 835.48 97.92 835.304 97.76C835.144 97.584 835.064 97.352 835.064 97.064C835.064 96.888 835.104 96.72 835.184 96.56C835.28 96.384 835.408 96.208 835.568 96.032L840.944 90.272C841.76 89.392 842.344 88.584 842.696 87.848C843.064 87.096 843.248 86.336 843.248 85.568C843.248 84.608 842.952 83.88 842.36 83.384C841.784 82.872 840.936 82.616 839.816 82.616C839.096 82.616 838.416 82.728 837.776 82.952C837.136 83.176 836.52 83.52 835.928 83.984C835.72 84.144 835.528 84.216 835.352 84.2C835.192 84.184 835.048 84.12 834.92 84.008C834.792 83.896 834.704 83.752 834.656 83.576C834.608 83.4 834.608 83.224 834.656 83.048C834.72 82.872 834.848 82.712 835.04 82.568C835.664 82.056 836.416 81.648 837.296 81.344C838.176 81.024 839.072 80.864 839.984 80.864C841.12 80.864 842.08 81.04 842.864 81.392C843.648 81.744 844.24 82.264 844.64 82.952C845.04 83.624 845.24 84.448 845.24 85.424C845.24 86.096 845.128 86.76 844.904 87.416C844.696 88.056 844.368 88.712 843.92 89.384C843.488 90.056 842.92 90.752 842.216 91.472L837.104 96.872V96.32H845.192C845.496 96.32 845.72 96.392 845.864 96.536C846.024 96.664 846.104 96.864 846.104 97.136C846.104 97.424 846.024 97.64 845.864 97.784C845.72 97.928 845.496 98 845.192 98H836.096ZM854.591 98.216C852.655 98.216 851.183 97.472 850.175 95.984C849.167 94.496 848.663 92.344 848.663 89.528C848.663 87.64 848.887 86.056 849.335 84.776C849.783 83.48 850.447 82.504 851.327 81.848C852.223 81.192 853.311 80.864 854.591 80.864C856.543 80.864 858.015 81.6 859.007 83.072C860.015 84.528 860.519 86.672 860.519 89.504C860.519 91.392 860.295 92.984 859.847 94.28C859.399 95.576 858.735 96.56 857.855 97.232C856.975 97.888 855.887 98.216 854.591 98.216ZM854.591 96.512C855.935 96.512 856.927 95.944 857.567 94.808C858.223 93.656 858.551 91.888 858.551 89.504C858.551 87.104 858.223 85.352 857.567 84.248C856.927 83.128 855.935 82.568 854.591 82.568C853.263 82.568 852.271 83.128 851.615 84.248C850.959 85.368 850.631 87.12 850.631 89.504C850.631 91.888 850.959 93.656 851.615 94.808C852.271 95.944 853.263 96.512 854.591 96.512ZM864.877 98C864.525 98 864.261 97.92 864.085 97.76C863.925 97.584 863.845 97.352 863.845 97.064C863.845 96.888 863.885 96.72 863.965 96.56C864.061 96.384 864.189 96.208 864.349 96.032L869.725 90.272C870.541 89.392 871.125 88.584 871.477 87.848C871.845 87.096 872.029 86.336 872.029 85.568C872.029 84.608 871.733 83.88 871.141 83.384C870.565 82.872 869.717 82.616 868.597 82.616C867.877 82.616 867.197 82.728 866.557 82.952C865.917 83.176 865.301 83.52 864.709 83.984C864.501 84.144 864.309 84.216 864.133 84.2C863.973 84.184 863.829 84.12 863.701 84.008C863.573 83.896 863.485 83.752 863.437 83.576C863.389 83.4 863.389 83.224 863.437 83.048C863.501 82.872 863.629 82.712 863.821 82.568C864.445 82.056 865.197 81.648 866.077 81.344C866.957 81.024 867.853 80.864 868.765 80.864C869.901 80.864 870.861 81.04 871.645 81.392C872.429 81.744 873.021 82.264 873.421 82.952C873.821 83.624 874.021 84.448 874.021 85.424C874.021 86.096 873.909 86.76 873.685 87.416C873.477 88.056 873.149 88.712 872.701 89.384C872.269 90.056 871.701 90.752 870.997 91.472L865.885 96.872V96.32H873.973C874.277 96.32 874.501 96.392 874.645 96.536C874.805 96.664 874.885 96.864 874.885 97.136C874.885 97.424 874.805 97.64 874.645 97.784C874.501 97.928 874.277 98 873.973 98H864.877ZM883.18 98.216C882.252 98.216 881.316 98.08 880.372 97.808C879.444 97.536 878.636 97.136 877.948 96.608C877.74 96.464 877.604 96.304 877.54 96.128C877.476 95.936 877.46 95.76 877.492 95.6C877.54 95.424 877.628 95.28 877.756 95.168C877.884 95.04 878.036 94.968 878.212 94.952C878.404 94.936 878.612 95 878.836 95.144C879.54 95.608 880.244 95.944 880.948 96.152C881.652 96.36 882.38 96.464 883.132 96.464C883.948 96.464 884.636 96.344 885.196 96.104C885.756 95.864 886.18 95.512 886.468 95.048C886.756 94.568 886.9 93.984 886.9 93.296C886.9 92.304 886.572 91.552 885.916 91.04C885.26 90.528 884.308 90.272 883.06 90.272H881.356C881.052 90.272 880.82 90.2 880.66 90.056C880.5 89.896 880.42 89.68 880.42 89.408C880.42 89.152 880.5 88.952 880.66 88.808C880.82 88.648 881.052 88.568 881.356 88.568H882.892C883.628 88.568 884.252 88.44 884.764 88.184C885.292 87.928 885.7 87.568 885.988 87.104C886.276 86.624 886.42 86.048 886.42 85.376C886.42 84.48 886.132 83.8 885.556 83.336C884.98 82.856 884.148 82.616 883.06 82.616C882.34 82.616 881.66 82.72 881.02 82.928C880.38 83.136 879.748 83.488 879.124 83.984C878.932 84.128 878.74 84.2 878.548 84.2C878.372 84.184 878.22 84.128 878.092 84.032C877.98 83.92 877.892 83.776 877.828 83.6C877.78 83.424 877.788 83.248 877.852 83.072C877.916 82.88 878.052 82.704 878.26 82.544C878.9 82 879.652 81.584 880.516 81.296C881.38 81.008 882.268 80.864 883.18 80.864C884.268 80.864 885.196 81.04 885.964 81.392C886.748 81.728 887.348 82.224 887.764 82.88C888.18 83.52 888.388 84.296 888.388 85.208C888.388 85.896 888.252 86.528 887.98 87.104C887.724 87.664 887.356 88.144 886.876 88.544C886.412 88.944 885.844 89.232 885.172 89.408V89.144C886.34 89.336 887.244 89.816 887.884 90.584C888.54 91.336 888.868 92.288 888.868 93.44C888.868 94.416 888.636 95.264 888.172 95.984C887.724 96.688 887.076 97.24 886.228 97.64C885.38 98.024 884.364 98.216 883.18 98.216ZM911.798 101.192C911.958 101.432 912.022 101.648 911.99 101.84C911.974 102.048 911.894 102.216 911.75 102.344C911.622 102.488 911.462 102.576 911.27 102.608C911.078 102.656 910.878 102.632 910.67 102.536C910.478 102.456 910.31 102.296 910.166 102.056L908.606 99.584C908.35 99.136 907.998 98.792 907.55 98.552C907.102 98.328 906.566 98.216 905.942 98.216L907.574 97.52C908.326 97.52 908.918 97.656 909.35 97.928C909.798 98.184 910.238 98.664 910.67 99.368L911.798 101.192ZM905.942 98.216C904.374 98.216 903.006 97.864 901.838 97.16C900.686 96.44 899.79 95.432 899.15 94.136C898.526 92.84 898.214 91.304 898.214 89.528C898.214 88.184 898.39 86.984 898.742 85.928C899.11 84.856 899.63 83.952 900.302 83.216C900.974 82.464 901.782 81.888 902.726 81.488C903.686 81.072 904.758 80.864 905.942 80.864C907.542 80.864 908.918 81.216 910.07 81.92C911.238 82.624 912.134 83.624 912.758 84.92C913.398 86.2 913.718 87.728 913.718 89.504C913.718 90.848 913.534 92.056 913.166 93.128C912.798 94.2 912.278 95.112 911.606 95.864C910.934 96.616 910.118 97.2 909.158 97.616C908.214 98.016 907.142 98.216 905.942 98.216ZM905.942 96.464C907.158 96.464 908.182 96.192 909.014 95.648C909.862 95.104 910.51 94.312 910.958 93.272C911.406 92.232 911.63 90.984 911.63 89.528C911.63 87.336 911.134 85.64 910.142 84.44C909.166 83.224 907.766 82.616 905.942 82.616C904.758 82.616 903.742 82.888 902.894 83.432C902.062 83.976 901.422 84.768 900.974 85.808C900.526 86.832 900.302 88.072 900.302 89.528C900.302 91.704 900.798 93.408 901.79 94.64C902.782 95.856 904.166 96.464 905.942 96.464ZM922.156 98.216C921.228 98.216 920.292 98.08 919.348 97.808C918.42 97.536 917.612 97.136 916.924 96.608C916.716 96.464 916.58 96.304 916.516 96.128C916.452 95.936 916.436 95.76 916.468 95.6C916.516 95.424 916.604 95.28 916.732 95.168C916.86 95.04 917.012 94.968 917.188 94.952C917.38 94.936 917.588 95 917.812 95.144C918.516 95.608 919.22 95.944 919.924 96.152C920.628 96.36 921.356 96.464 922.108 96.464C922.924 96.464 923.612 96.344 924.172 96.104C924.732 95.864 925.156 95.512 925.444 95.048C925.732 94.568 925.876 93.984 925.876 93.296C925.876 92.304 925.548 91.552 924.892 91.04C924.236 90.528 923.284 90.272 922.036 90.272H920.332C920.028 90.272 919.796 90.2 919.636 90.056C919.476 89.896 919.396 89.68 919.396 89.408C919.396 89.152 919.476 88.952 919.636 88.808C919.796 88.648 920.028 88.568 920.332 88.568H921.868C922.604 88.568 923.228 88.44 923.74 88.184C924.268 87.928 924.676 87.568 924.964 87.104C925.252 86.624 925.396 86.048 925.396 85.376C925.396 84.48 925.108 83.8 924.532 83.336C923.956 82.856 923.124 82.616 922.036 82.616C921.316 82.616 920.636 82.72 919.996 82.928C919.356 83.136 918.724 83.488 918.1 83.984C917.908 84.128 917.716 84.2 917.524 84.2C917.348 84.184 917.196 84.128 917.068 84.032C916.956 83.92 916.868 83.776 916.804 83.6C916.756 83.424 916.764 83.248 916.828 83.072C916.892 82.88 917.028 82.704 917.236 82.544C917.876 82 918.628 81.584 919.492 81.296C920.356 81.008 921.244 80.864 922.156 80.864C923.244 80.864 924.172 81.04 924.94 81.392C925.724 81.728 926.324 82.224 926.74 82.88C927.156 83.52 927.364 84.296 927.364 85.208C927.364 85.896 927.228 86.528 926.956 87.104C926.7 87.664 926.332 88.144 925.852 88.544C925.388 88.944 924.82 89.232 924.148 89.408V89.144C925.316 89.336 926.22 89.816 926.86 90.584C927.516 91.336 927.844 92.288 927.844 93.44C927.844 94.416 927.612 95.264 927.148 95.984C926.7 96.688 926.052 97.24 925.204 97.64C924.356 98.024 923.34 98.216 922.156 98.216Z" fill="white"/>
<path d="M1202.1 98C1201.74 98 1201.48 97.92 1201.3 97.76C1201.14 97.584 1201.06 97.352 1201.06 97.064C1201.06 96.888 1201.1 96.72 1201.18 96.56C1201.28 96.384 1201.41 96.208 1201.57 96.032L1206.94 90.272C1207.76 89.392 1208.34 88.584 1208.7 87.848C1209.06 87.096 1209.25 86.336 1209.25 85.568C1209.25 84.608 1208.95 83.88 1208.36 83.384C1207.78 82.872 1206.94 82.616 1205.82 82.616C1205.1 82.616 1204.42 82.728 1203.78 82.952C1203.14 83.176 1202.52 83.52 1201.93 83.984C1201.72 84.144 1201.53 84.216 1201.35 84.2C1201.19 84.184 1201.05 84.12 1200.92 84.008C1200.79 83.896 1200.7 83.752 1200.66 83.576C1200.61 83.4 1200.61 83.224 1200.66 83.048C1200.72 82.872 1200.85 82.712 1201.04 82.568C1201.66 82.056 1202.42 81.648 1203.3 81.344C1204.18 81.024 1205.07 80.864 1205.98 80.864C1207.12 80.864 1208.08 81.04 1208.86 81.392C1209.65 81.744 1210.24 82.264 1210.64 82.952C1211.04 83.624 1211.24 84.448 1211.24 85.424C1211.24 86.096 1211.13 86.76 1210.9 87.416C1210.7 88.056 1210.37 88.712 1209.92 89.384C1209.49 90.056 1208.92 90.752 1208.22 91.472L1203.1 96.872V96.32H1211.19C1211.5 96.32 1211.72 96.392 1211.86 96.536C1212.02 96.664 1212.1 96.864 1212.1 97.136C1212.1 97.424 1212.02 97.64 1211.86 97.784C1211.72 97.928 1211.5 98 1211.19 98H1202.1ZM1220.59 98.216C1218.65 98.216 1217.18 97.472 1216.17 95.984C1215.17 94.496 1214.66 92.344 1214.66 89.528C1214.66 87.64 1214.89 86.056 1215.33 84.776C1215.78 83.48 1216.45 82.504 1217.33 81.848C1218.22 81.192 1219.31 80.864 1220.59 80.864C1222.54 80.864 1224.01 81.6 1225.01 83.072C1226.01 84.528 1226.52 86.672 1226.52 89.504C1226.52 91.392 1226.29 92.984 1225.85 94.28C1225.4 95.576 1224.73 96.56 1223.85 97.232C1222.97 97.888 1221.89 98.216 1220.59 98.216ZM1220.59 96.512C1221.93 96.512 1222.93 95.944 1223.57 94.808C1224.22 93.656 1224.55 91.888 1224.55 89.504C1224.55 87.104 1224.22 85.352 1223.57 84.248C1222.93 83.128 1221.93 82.568 1220.59 82.568C1219.26 82.568 1218.27 83.128 1217.61 84.248C1216.96 85.368 1216.63 87.12 1216.63 89.504C1216.63 91.888 1216.96 93.656 1217.61 94.808C1218.27 95.944 1219.26 96.512 1220.59 96.512ZM1230.88 98C1230.53 98 1230.26 97.92 1230.09 97.76C1229.93 97.584 1229.85 97.352 1229.85 97.064C1229.85 96.888 1229.89 96.72 1229.97 96.56C1230.06 96.384 1230.19 96.208 1230.35 96.032L1235.73 90.272C1236.54 89.392 1237.13 88.584 1237.48 87.848C1237.85 87.096 1238.03 86.336 1238.03 85.568C1238.03 84.608 1237.73 83.88 1237.14 83.384C1236.57 82.872 1235.72 82.616 1234.6 82.616C1233.88 82.616 1233.2 82.728 1232.56 82.952C1231.92 83.176 1231.3 83.52 1230.71 83.984C1230.5 84.144 1230.31 84.216 1230.13 84.2C1229.97 84.184 1229.83 84.12 1229.7 84.008C1229.57 83.896 1229.49 83.752 1229.44 83.576C1229.39 83.4 1229.39 83.224 1229.44 83.048C1229.5 82.872 1229.63 82.712 1229.82 82.568C1230.45 82.056 1231.2 81.648 1232.08 81.344C1232.96 81.024 1233.85 80.864 1234.77 80.864C1235.9 80.864 1236.86 81.04 1237.65 81.392C1238.43 81.744 1239.02 82.264 1239.42 82.952C1239.82 83.624 1240.02 84.448 1240.02 85.424C1240.02 86.096 1239.91 86.76 1239.69 87.416C1239.48 88.056 1239.15 88.712 1238.7 89.384C1238.27 90.056 1237.7 90.752 1237 91.472L1231.89 96.872V96.32H1239.97C1240.28 96.32 1240.5 96.392 1240.65 96.536C1240.81 96.664 1240.89 96.864 1240.89 97.136C1240.89 97.424 1240.81 97.64 1240.65 97.784C1240.5 97.928 1240.28 98 1239.97 98H1230.88ZM1252.2 98.168C1251.9 98.168 1251.66 98.08 1251.48 97.904C1251.31 97.728 1251.22 97.48 1251.22 97.16V94.376H1244.33C1244.01 94.376 1243.76 94.304 1243.56 94.16C1243.39 94 1243.3 93.776 1243.3 93.488C1243.3 93.312 1243.34 93.136 1243.42 92.96C1243.5 92.768 1243.64 92.528 1243.85 92.24L1251.17 81.584C1251.32 81.36 1251.48 81.192 1251.65 81.08C1251.83 80.968 1252.04 80.912 1252.28 80.912C1252.53 80.912 1252.75 80.992 1252.92 81.152C1253.12 81.312 1253.21 81.568 1253.21 81.92V92.696H1254.96C1255.27 92.696 1255.5 92.768 1255.66 92.912C1255.82 93.056 1255.9 93.264 1255.9 93.536C1255.9 93.808 1255.82 94.016 1255.66 94.16C1255.5 94.304 1255.27 94.376 1254.96 94.376H1253.21V97.16C1253.21 97.48 1253.12 97.728 1252.95 97.904C1252.77 98.08 1252.52 98.168 1252.2 98.168ZM1251.22 92.696V83.384H1251.8L1245.08 93.224V92.696H1251.22ZM1277.8 101.192C1277.96 101.432 1278.02 101.648 1277.99 101.84C1277.97 102.048 1277.89 102.216 1277.75 102.344C1277.62 102.488 1277.46 102.576 1277.27 102.608C1277.08 102.656 1276.88 102.632 1276.67 102.536C1276.48 102.456 1276.31 102.296 1276.17 102.056L1274.61 99.584C1274.35 99.136 1274 98.792 1273.55 98.552C1273.1 98.328 1272.57 98.216 1271.94 98.216L1273.57 97.52C1274.33 97.52 1274.92 97.656 1275.35 97.928C1275.8 98.184 1276.24 98.664 1276.67 99.368L1277.8 101.192ZM1271.94 98.216C1270.37 98.216 1269.01 97.864 1267.84 97.16C1266.69 96.44 1265.79 95.432 1265.15 94.136C1264.53 92.84 1264.21 91.304 1264.21 89.528C1264.21 88.184 1264.39 86.984 1264.74 85.928C1265.11 84.856 1265.63 83.952 1266.3 83.216C1266.97 82.464 1267.78 81.888 1268.73 81.488C1269.69 81.072 1270.76 80.864 1271.94 80.864C1273.54 80.864 1274.92 81.216 1276.07 81.92C1277.24 82.624 1278.13 83.624 1278.76 84.92C1279.4 86.2 1279.72 87.728 1279.72 89.504C1279.72 90.848 1279.53 92.056 1279.17 93.128C1278.8 94.2 1278.28 95.112 1277.61 95.864C1276.93 96.616 1276.12 97.2 1275.16 97.616C1274.21 98.016 1273.14 98.216 1271.94 98.216ZM1271.94 96.464C1273.16 96.464 1274.18 96.192 1275.01 95.648C1275.86 95.104 1276.51 94.312 1276.96 93.272C1277.41 92.232 1277.63 90.984 1277.63 89.528C1277.63 87.336 1277.13 85.64 1276.14 84.44C1275.17 83.224 1273.77 82.616 1271.94 82.616C1270.76 82.616 1269.74 82.888 1268.89 83.432C1268.06 83.976 1267.42 84.768 1266.97 85.808C1266.53 86.832 1266.3 88.072 1266.3 89.528C1266.3 91.704 1266.8 93.408 1267.79 94.64C1268.78 95.856 1270.17 96.464 1271.94 96.464ZM1284.87 98C1284.58 98 1284.36 97.928 1284.2 97.784C1284.04 97.624 1283.96 97.408 1283.96 97.136C1283.96 96.864 1284.04 96.664 1284.2 96.536C1284.36 96.392 1284.58 96.32 1284.87 96.32H1287.99V82.712H1289.02L1285.54 85.016C1285.33 85.128 1285.13 85.176 1284.94 85.16C1284.76 85.144 1284.61 85.08 1284.48 84.968C1284.37 84.84 1284.29 84.696 1284.24 84.536C1284.2 84.36 1284.2 84.184 1284.27 84.008C1284.33 83.816 1284.47 83.656 1284.68 83.528L1287.99 81.344C1288.2 81.216 1288.4 81.112 1288.59 81.032C1288.78 80.952 1288.97 80.912 1289.16 80.912C1289.39 80.912 1289.57 80.984 1289.72 81.128C1289.88 81.256 1289.96 81.464 1289.96 81.752V96.32H1292.84C1293.12 96.32 1293.35 96.392 1293.51 96.536C1293.67 96.664 1293.75 96.864 1293.75 97.136C1293.75 97.424 1293.67 97.64 1293.51 97.784C1293.35 97.928 1293.12 98 1292.84 98H1284.87Z" fill="white"/>
<path d="M1569.1 98C1568.74 98 1568.48 97.92 1568.3 97.76C1568.14 97.584 1568.06 97.352 1568.06 97.064C1568.06 96.888 1568.1 96.72 1568.18 96.56C1568.28 96.384 1568.41 96.208 1568.57 96.032L1573.94 90.272C1574.76 89.392 1575.34 88.584 1575.7 87.848C1576.06 87.096 1576.25 86.336 1576.25 85.568C1576.25 84.608 1575.95 83.88 1575.36 83.384C1574.78 82.872 1573.94 82.616 1572.82 82.616C1572.1 82.616 1571.42 82.728 1570.78 82.952C1570.14 83.176 1569.52 83.52 1568.93 83.984C1568.72 84.144 1568.53 84.216 1568.35 84.2C1568.19 84.184 1568.05 84.12 1567.92 84.008C1567.79 83.896 1567.7 83.752 1567.66 83.576C1567.61 83.4 1567.61 83.224 1567.66 83.048C1567.72 82.872 1567.85 82.712 1568.04 82.568C1568.66 82.056 1569.42 81.648 1570.3 81.344C1571.18 81.024 1572.07 80.864 1572.98 80.864C1574.12 80.864 1575.08 81.04 1575.86 81.392C1576.65 81.744 1577.24 82.264 1577.64 82.952C1578.04 83.624 1578.24 84.448 1578.24 85.424C1578.24 86.096 1578.13 86.76 1577.9 87.416C1577.7 88.056 1577.37 88.712 1576.92 89.384C1576.49 90.056 1575.92 90.752 1575.22 91.472L1570.1 96.872V96.32H1578.19C1578.5 96.32 1578.72 96.392 1578.86 96.536C1579.02 96.664 1579.1 96.864 1579.1 97.136C1579.1 97.424 1579.02 97.64 1578.86 97.784C1578.72 97.928 1578.5 98 1578.19 98H1569.1ZM1587.59 98.216C1585.65 98.216 1584.18 97.472 1583.17 95.984C1582.17 94.496 1581.66 92.344 1581.66 89.528C1581.66 87.64 1581.89 86.056 1582.33 84.776C1582.78 83.48 1583.45 82.504 1584.33 81.848C1585.22 81.192 1586.31 80.864 1587.59 80.864C1589.54 80.864 1591.01 81.6 1592.01 83.072C1593.01 84.528 1593.52 86.672 1593.52 89.504C1593.52 91.392 1593.29 92.984 1592.85 94.28C1592.4 95.576 1591.73 96.56 1590.85 97.232C1589.97 97.888 1588.89 98.216 1587.59 98.216ZM1587.59 96.512C1588.93 96.512 1589.93 95.944 1590.57 94.808C1591.22 93.656 1591.55 91.888 1591.55 89.504C1591.55 87.104 1591.22 85.352 1590.57 84.248C1589.93 83.128 1588.93 82.568 1587.59 82.568C1586.26 82.568 1585.27 83.128 1584.61 84.248C1583.96 85.368 1583.63 87.12 1583.63 89.504C1583.63 91.888 1583.96 93.656 1584.61 94.808C1585.27 95.944 1586.26 96.512 1587.59 96.512ZM1597.88 98C1597.53 98 1597.26 97.92 1597.09 97.76C1596.93 97.584 1596.85 97.352 1596.85 97.064C1596.85 96.888 1596.89 96.72 1596.97 96.56C1597.06 96.384 1597.19 96.208 1597.35 96.032L1602.73 90.272C1603.54 89.392 1604.13 88.584 1604.48 87.848C1604.85 87.096 1605.03 86.336 1605.03 85.568C1605.03 84.608 1604.73 83.88 1604.14 83.384C1603.57 82.872 1602.72 82.616 1601.6 82.616C1600.88 82.616 1600.2 82.728 1599.56 82.952C1598.92 83.176 1598.3 83.52 1597.71 83.984C1597.5 84.144 1597.31 84.216 1597.13 84.2C1596.97 84.184 1596.83 84.12 1596.7 84.008C1596.57 83.896 1596.49 83.752 1596.44 83.576C1596.39 83.4 1596.39 83.224 1596.44 83.048C1596.5 82.872 1596.63 82.712 1596.82 82.568C1597.45 82.056 1598.2 81.648 1599.08 81.344C1599.96 81.024 1600.85 80.864 1601.77 80.864C1602.9 80.864 1603.86 81.04 1604.65 81.392C1605.43 81.744 1606.02 82.264 1606.42 82.952C1606.82 83.624 1607.02 84.448 1607.02 85.424C1607.02 86.096 1606.91 86.76 1606.69 87.416C1606.48 88.056 1606.15 88.712 1605.7 89.384C1605.27 90.056 1604.7 90.752 1604 91.472L1598.89 96.872V96.32H1606.97C1607.28 96.32 1607.5 96.392 1607.65 96.536C1607.81 96.664 1607.89 96.864 1607.89 97.136C1607.89 97.424 1607.81 97.64 1607.65 97.784C1607.5 97.928 1607.28 98 1606.97 98H1597.88ZM1619.2 98.168C1618.9 98.168 1618.66 98.08 1618.48 97.904C1618.31 97.728 1618.22 97.48 1618.22 97.16V94.376H1611.33C1611.01 94.376 1610.76 94.304 1610.56 94.16C1610.39 94 1610.3 93.776 1610.3 93.488C1610.3 93.312 1610.34 93.136 1610.42 92.96C1610.5 92.768 1610.64 92.528 1610.85 92.24L1618.17 81.584C1618.32 81.36 1618.48 81.192 1618.65 81.08C1618.83 80.968 1619.04 80.912 1619.28 80.912C1619.53 80.912 1619.75 80.992 1619.92 81.152C1620.12 81.312 1620.21 81.568 1620.21 81.92V92.696H1621.96C1622.27 92.696 1622.5 92.768 1622.66 92.912C1622.82 93.056 1622.9 93.264 1622.9 93.536C1622.9 93.808 1622.82 94.016 1622.66 94.16C1622.5 94.304 1622.27 94.376 1621.96 94.376H1620.21V97.16C1620.21 97.48 1620.12 97.728 1619.95 97.904C1619.77 98.08 1619.52 98.168 1619.2 98.168ZM1618.22 92.696V83.384H1618.8L1612.08 93.224V92.696H1618.22ZM1644.8 101.192C1644.96 101.432 1645.02 101.648 1644.99 101.84C1644.97 102.048 1644.89 102.216 1644.75 102.344C1644.62 102.488 1644.46 102.576 1644.27 102.608C1644.08 102.656 1643.88 102.632 1643.67 102.536C1643.48 102.456 1643.31 102.296 1643.17 102.056L1641.61 99.584C1641.35 99.136 1641 98.792 1640.55 98.552C1640.1 98.328 1639.57 98.216 1638.94 98.216L1640.57 97.52C1641.33 97.52 1641.92 97.656 1642.35 97.928C1642.8 98.184 1643.24 98.664 1643.67 99.368L1644.8 101.192ZM1638.94 98.216C1637.37 98.216 1636.01 97.864 1634.84 97.16C1633.69 96.44 1632.79 95.432 1632.15 94.136C1631.53 92.84 1631.21 91.304 1631.21 89.528C1631.21 88.184 1631.39 86.984 1631.74 85.928C1632.11 84.856 1632.63 83.952 1633.3 83.216C1633.97 82.464 1634.78 81.888 1635.73 81.488C1636.69 81.072 1637.76 80.864 1638.94 80.864C1640.54 80.864 1641.92 81.216 1643.07 81.92C1644.24 82.624 1645.13 83.624 1645.76 84.92C1646.4 86.2 1646.72 87.728 1646.72 89.504C1646.72 90.848 1646.53 92.056 1646.17 93.128C1645.8 94.2 1645.28 95.112 1644.61 95.864C1643.93 96.616 1643.12 97.2 1642.16 97.616C1641.21 98.016 1640.14 98.216 1638.94 98.216ZM1638.94 96.464C1640.16 96.464 1641.18 96.192 1642.01 95.648C1642.86 95.104 1643.51 94.312 1643.96 93.272C1644.41 92.232 1644.63 90.984 1644.63 89.528C1644.63 87.336 1644.13 85.64 1643.14 84.44C1642.17 83.224 1640.77 82.616 1638.94 82.616C1637.76 82.616 1636.74 82.888 1635.89 83.432C1635.06 83.976 1634.42 84.768 1633.97 85.808C1633.53 86.832 1633.3 88.072 1633.3 89.528C1633.3 91.704 1633.8 93.408 1634.79 94.64C1635.78 95.856 1637.17 96.464 1638.94 96.464ZM1658.18 98.168C1657.88 98.168 1657.64 98.08 1657.46 97.904C1657.28 97.728 1657.2 97.48 1657.2 97.16V94.376H1650.31C1649.99 94.376 1649.73 94.304 1649.54 94.16C1649.36 94 1649.28 93.776 1649.28 93.488C1649.28 93.312 1649.32 93.136 1649.4 92.96C1649.48 92.768 1649.62 92.528 1649.83 92.24L1657.15 81.584C1657.29 81.36 1657.45 81.192 1657.63 81.08C1657.8 80.968 1658.01 80.912 1658.25 80.912C1658.51 80.912 1658.72 80.992 1658.9 81.152C1659.09 81.312 1659.19 81.568 1659.19 81.92V92.696H1660.94C1661.24 92.696 1661.48 92.768 1661.64 92.912C1661.8 93.056 1661.88 93.264 1661.88 93.536C1661.88 93.808 1661.8 94.016 1661.64 94.16C1661.48 94.304 1661.24 94.376 1660.94 94.376H1659.19V97.16C1659.19 97.48 1659.1 97.728 1658.92 97.904C1658.75 98.08 1658.5 98.168 1658.18 98.168ZM1657.2 92.696V83.384H1657.77L1651.05 93.224V92.696H1657.2Z" fill="white"/>
<defs>
<filter id="filter0_f_85_34456" x="0.5" y="25.5" width="724" height="51" filterUnits="userSpaceOnUse" color-interpolation-filters="sRGB">
<feFlood flood-opacity="0" result="BackgroundImageFix"/>
<feBlend mode="normal" in="SourceGraphic" in2="BackgroundImageFix" result="shape"/>
<feGaussianBlur stdDeviation="10" result="effect1_foregroundBlur_85_34456"/>
</filter>
<filter id="filter1_f_85_34456" x="130" y="32" width="37" height="37" filterUnits="userSpaceOnUse" color-interpolation-filters="sRGB">
<feFlood flood-opacity="0" result="BackgroundImageFix"/>
<feBlend mode="normal" in="SourceGraphic" in2="BackgroundImageFix" result="shape"/>
<feGaussianBlur stdDeviation="3.5" result="effect1_foregroundBlur_85_34456"/>
</filter>
<filter id="filter2_d_85_34456" x="138" y="44" width="21" height="21" filterUnits="userSpaceOnUse" color-interpolation-filters="sRGB">
<feFlood flood-opacity="0" result="BackgroundImageFix"/>
<feColorMatrix in="SourceAlpha" type="matrix" values="0 0 0 0 0 0 0 0 0 0 0 0 0 0 0 0 0 0 127 0" result="hardAlpha"/>
<feOffset dy="4"/>
<feGaussianBlur stdDeviation="2"/>
<feComposite in2="hardAlpha" operator="out"/>
<feColorMatrix type="matrix" values="0 0 0 0 0 0 0 0 0 0 0 0 0 0 0 0 0 0 0.25 0"/>
<feBlend mode="normal" in2="BackgroundImageFix" result="effect1_dropShadow_85_34456"/>
<feBlend mode="normal" in="SourceGraphic" in2="effect1_dropShadow_85_34456" result="shape"/>
</filter>
<filter id="filter3_f_85_34456" x="312" y="32" width="37" height="37" filterUnits="userSpaceOnUse" color-interpolation-filters="sRGB">
<feFlood flood-opacity="0" result="BackgroundImageFix"/>
<feBlend mode="normal" in="SourceGraphic" in2="BackgroundImageFix" result="shape"/>
<feGaussianBlur stdDeviation="3.5" result="effect1_foregroundBlur_85_34456"/>
</filter>
<filter id="filter4_d_85_34456" x="320" y="44" width="21" height="21" filterUnits="userSpaceOnUse" color-interpolation-filters="sRGB">
<feFlood flood-opacity="0" result="BackgroundImageFix"/>
<feColorMatrix in="SourceAlpha" type="matrix" values="0 0 0 0 0 0 0 0 0 0 0 0 0 0 0 0 0 0 127 0" result="hardAlpha"/>
<feOffset dy="4"/>
<feGaussianBlur stdDeviation="2"/>
<feComposite in2="hardAlpha" operator="out"/>
<feColorMatrix type="matrix" values="0 0 0 0 0 0 0 0 0 0 0 0 0 0 0 0 0 0 0.25 0"/>
<feBlend mode="normal" in2="BackgroundImageFix" result="effect1_dropShadow_85_34456"/>
<feBlend mode="normal" in="SourceGraphic" in2="effect1_dropShadow_85_34456" result="shape"/>
</filter>
<filter id="filter5_f_85_34456" x="497" y="32" width="37" height="37" filterUnits="userSpaceOnUse" color-interpolation-filters="sRGB">
<feFlood flood-opacity="0" result="BackgroundImageFix"/>
<feBlend mode="normal" in="SourceGraphic" in2="BackgroundImageFix" result="shape"/>
<feGaussianBlur stdDeviation="3.5" result="effect1_foregroundBlur_85_34456"/>
</filter>
<filter id="filter6_d_85_34456" x="505" y="44" width="21" height="21" filterUnits="userSpaceOnUse" color-interpolation-filters="sRGB">
<feFlood flood-opacity="0" result="BackgroundImageFix"/>
<feColorMatrix in="SourceAlpha" type="matrix" values="0 0 0 0 0 0 0 0 0 0 0 0 0 0 0 0 0 0 127 0" result="hardAlpha"/>
<feOffset dy="4"/>
<feGaussianBlur stdDeviation="2"/>
<feComposite in2="hardAlpha" operator="out"/>
<feColorMatrix type="matrix" values="0 0 0 0 0 0 0 0 0 0 0 0 0 0 0 0 0 0 0.25 0"/>
<feBlend mode="normal" in2="BackgroundImageFix" result="effect1_dropShadow_85_34456"/>
<feBlend mode="normal" in="SourceGraphic" in2="effect1_dropShadow_85_34456" result="shape"/>
</filter>
<filter id="filter7_f_85_34456" x="1229" y="32" width="37" height="37" filterUnits="userSpaceOnUse" color-interpolation-filters="sRGB">
<feFlood flood-opacity="0" result="BackgroundImageFix"/>
<feBlend mode="normal" in="SourceGraphic" in2="BackgroundImageFix" result="shape"/>
<feGaussianBlur stdDeviation="3.5" result="effect1_foregroundBlur_85_34456"/>
</filter>
<filter id="filter8_f_85_34456" x="1046" y="32" width="37" height="37" filterUnits="userSpaceOnUse" color-interpolation-filters="sRGB">
<feFlood flood-opacity="0" result="BackgroundImageFix"/>
<feBlend mode="normal" in="SourceGraphic" in2="BackgroundImageFix" result="shape"/>
<feGaussianBlur stdDeviation="3.5" result="effect1_foregroundBlur_85_34456"/>
</filter>
<filter id="filter9_f_85_34456" x="1596" y="32" width="37" height="37" filterUnits="userSpaceOnUse" color-interpolation-filters="sRGB">
<feFlood flood-opacity="0" result="BackgroundImageFix"/>
<feBlend mode="normal" in="SourceGraphic" in2="BackgroundImageFix" result="shape"/>
<feGaussianBlur stdDeviation="3.5" result="effect1_foregroundBlur_85_34456"/>
</filter>
<filter id="filter10_f_85_34456" x="1413" y="32" width="37" height="37" filterUnits="userSpaceOnUse" color-interpolation-filters="sRGB">
<feFlood flood-opacity="0" result="BackgroundImageFix"/>
<feBlend mode="normal" in="SourceGraphic" in2="BackgroundImageFix" result="shape"/>
<feGaussianBlur stdDeviation="3.5" result="effect1_foregroundBlur_85_34456"/>
</filter>
<filter id="filter11_f_85_34456" x="680" y="32" width="37" height="37" filterUnits="userSpaceOnUse" color-interpolation-filters="sRGB">
<feFlood flood-opacity="0" result="BackgroundImageFix"/>
<feBlend mode="normal" in="SourceGraphic" in2="BackgroundImageFix" result="shape"/>
<feGaussianBlur stdDeviation="3.5" result="effect1_foregroundBlur_85_34456"/>
</filter>
<filter id="filter12_d_85_34456" x="688" y="44" width="21" height="21" filterUnits="userSpaceOnUse" color-interpolation-filters="sRGB">
<feFlood flood-opacity="0" result="BackgroundImageFix"/>
<feColorMatrix in="SourceAlpha" type="matrix" values="0 0 0 0 0 0 0 0 0 0 0 0 0 0 0 0 0 0 127 0" result="hardAlpha"/>
<feOffset dy="4"/>
<feGaussianBlur stdDeviation="2"/>
<feComposite in2="hardAlpha" operator="out"/>
<feColorMatrix type="matrix" values="0 0 0 0 0 0 0 0 0 0 0 0 0 0 0 0 0 0 0.25 0"/>
<feBlend mode="normal" in2="BackgroundImageFix" result="effect1_dropShadow_85_34456"/>
<feBlend mode="normal" in="SourceGraphic" in2="effect1_dropShadow_85_34456" result="shape"/>
</filter>
<filter id="filter13_f_85_34456" x="863" y="32" width="37" height="37" filterUnits="userSpaceOnUse" color-interpolation-filters="sRGB">
<feFlood flood-opacity="0" result="BackgroundImageFix"/>
<feBlend mode="normal" in="SourceGraphic" in2="BackgroundImageFix" result="shape"/>
<feGaussianBlur stdDeviation="3.5" result="effect1_foregroundBlur_85_34456"/>
</filter>
</defs>
</svg>
